<svg width="376.038623046875px" height="131px" xmlns="http://www.w3.org/2000/svg" viewBox="61.980688476562506 9.5 376.038623046875 131" style="background: rgba(0, 0, 0, 0);" preserveAspectRatio="xMidYMid"><defs><linearGradient id="editing-shiny-gradient" x1="0.04322727117869957" x2="0.9567727288213004" y1="0.2966316784620999" y2="0.7033683215379001" gradientUnits="objectBoundingBox"><stop offset="0.0" stop-color="#ffb200"></stop><stop offset="0.5" stop-color="#e10057"></stop><stop offset="1.0" stop-color="#5A1A80"></stop></linearGradient><linearGradient id="editing-shiny-gradient2" x1="0" x2="0" y1="0" y2="1"><stop offset="0.2" stop-color="#fff" stop-opacity="0.8"></stop><stop offset="0.8" stop-color="#fff" stop-opacity="0"></stop></linearGradient><filter id="editing-shiny2" x="-100%" y="-100%" width="300%" height="300%"><feMorphology operator="erode" radius="2"></feMorphology></filter><filter id="editing-shiny" x="-100%" y="-100%" width="300%" height="300%"><feFlood flood-color="#fff" result="flood"></feFlood><feConvolveMatrix in="SourceGraphic" result="conv" order="8,8" divisor="1" kernelMatrix="0 0 0 0 0 0 0 0 0 0 0 1 1 0 0 0 0 0 0 1 1 0 0 0 0 0 1 0 0 1 0 0 0 0 1 0 0 1 0 0 0 1 0 0 0 0 1 0 0 1 1 0 0 1 1 0 0 0 0 1 1 0 0 0 "></feConvolveMatrix><feOffset dx="0" dy="4" in="conv" result="offset"></feOffset><feComposite operator="in" in="flood" in2="offset" result="comp"></feComposite><feGaussianBlur in="offset" stdDeviation="3" result="shadow"></feGaussianBlur><feColorMatrix in="shadow" type="matrix" values="0.7 0 0 0 0  0 0.7 0 0 0  0 0 0.7 0 0  0 0 0 0.3 0" result="dark-shadow"></feColorMatrix><feOffset dx="0" dy="4" in="dark-shadow" result="offset-shadow"></feOffset><feOffset dx="0" dy="2" in="conv" result="offset-2"></feOffset><feComposite operator="out" in="offset" in2="offset-2" result="edge-diff"></feComposite><feGaussianBlur in="edge-diff" stdDeviation="1" result="edge-blur"></feGaussianBlur><feColorMatrix in="edge-blur" result="edge-shadow" type="matrix" values="0 0 0 0 0  0 0 0 0 0  0 0 0 0 0  0 0 0 0.5 0"></feColorMatrix><feComposite operator="in" in="edge-shadow" in2="offset" result="edge-shadow-in"></feComposite><feOffset dx="0" dy="1" in="edge-shadow-in" result="edge-shadow-final"></feOffset><feMerge result="out"><feMergeNode in="offset-shadow"></feMergeNode><feMergeNode in="comp"></feMergeNode><feMergeNode in="edge-shadow-final"></feMergeNode><feMergeNode in="SourceGraphic"></feMergeNode></feMerge></filter></defs><g filter="url(#editing-shiny)"><g transform="translate(120.32858276367188, 104.03499984741211)"><path d="M33.32-34.33L33.32-34.33L33.32-34.33Q32.93-34.33 32.68-34.58L32.68-34.58L32.68-34.58Q32.42-34.83 32.42-35.11L32.42-35.11L32.42-35.11Q32.42-35.39 32.70-35.90L32.70-35.90L32.70-35.90Q32.98-36.40 32.98-36.85L32.98-36.85L32.98-36.85Q32.98-38.14 31.67-38.72L31.67-38.72L31.67-38.72Q30.35-39.31 28.95-39.31L28.95-39.31L28.95-39.31Q24.81-39.31 20.30-36.51L20.30-36.51L20.30-36.51Q15.79-33.71 15.01-29.79L15.01-29.79L15.01-29.79Q15.29-27.44 17.33-25.40L17.33-25.40L17.33-25.40Q19.38-23.35 22.06-21.87L22.06-21.87L22.06-21.87Q24.75-20.38 27.38-18.87L27.38-18.87L27.38-18.87Q30.02-17.36 31.81-15.29L31.81-15.29L31.81-15.29Q33.60-13.22 33.60-11.06L33.60-11.06L33.60-11.06Q33.60-8.90 32.03-6.86L32.03-6.86L32.03-6.86Q30.46-4.82 28.92-3.42L28.92-3.42L28.92-3.42Q27.38-2.02 27.38-1.93L27.38-1.93L27.38-1.93Q27.38-1.85 27.55-1.85L27.55-1.85L27.55-1.85Q30.97-1.85 36.90-5.60L36.90-5.60L37.46-5.99L37.46-5.99Q37.86-6.22 38.05-6.22L38.05-6.22L38.05-6.22Q38.25-6.22 38.47-5.88L38.47-5.88L38.47-5.88Q38.70-5.54 38.70-5.15L38.70-5.15L38.70-5.15Q38.70-4.76 37.97-4.37L37.97-4.37L37.97-4.37Q34.72-1.29 25.84 1.51L25.84 1.51L25.84 1.51Q16.97 4.31 9.80 4.31L9.80 4.31L9.80 4.31Q0 4.31 0-1.40L0-1.40L0-1.40Q0-2.24 1.68-3.81L1.68-3.81L1.68-3.81Q4.26-6.16 4.82-6.16L4.82-6.16L4.82-6.16Q5.38-6.16 7.67-4.76L7.67-4.76L7.67-4.76Q9.97-3.36 13.44-1.96L13.44-1.96L13.44-1.96Q16.91-0.56 20.33-0.56L20.33-0.56L20.33-0.56Q23.74-0.56 25.56-2.69L25.56-2.69L25.56-2.69Q27.38-4.82 27.38-7.06L27.38-7.06L27.38-7.06Q27.38-9.30 25.48-11.09L25.48-11.09L25.48-11.09Q23.58-12.88 20.86-14.25L20.86-14.25L20.86-14.25Q18.14-15.62 15.40-17.08L15.40-17.08L15.40-17.08Q12.66-18.54 10.75-20.61L10.75-20.61L10.75-20.61Q8.85-22.68 8.85-25.14L8.85-25.14L8.85-25.14Q8.85-29.12 13.27-33.49L13.27-33.49L13.27-33.49Q17.70-37.86 23.41-40.54L23.41-40.54L23.41-40.54Q29.12-43.23 33.15-43.23L33.15-43.23L33.15-43.23Q38.19-43.23 38.19-39.87L38.19-39.87L38.19-39.87Q38.19-37.86 36.37-36.09L36.37-36.09L36.37-36.09Q34.55-34.33 33.32-34.33ZM50.68-7.17L50.68-7.17L50.46-5.60L50.46-5.60Q50.46-4.59 51.32-3.50L51.32-3.50L51.32-3.50Q52.19-2.41 53.37-2.41L53.37-2.41L53.37-2.41Q54.26-2.41 54.82-2.80L54.82-2.80L54.82-2.80Q56.06-3.64 56.36-3.95L56.36-3.95L56.36-3.95Q56.67-4.26 57.37-4.26L57.37-4.26L57.37-4.26Q58.07-4.26 58.07-3.75L58.07-3.75L58.07-3.75Q58.07-3.19 55.44-0.22L55.44-0.22L55.44-0.22Q54.60 0.73 52.98 1.79L52.98 1.79L52.98 1.79Q51.35 2.86 50.09 2.86L50.09 2.86L50.09 2.86Q48.83 2.86 48.19 2.44L48.19 2.44L48.19 2.44Q47.54 2.02 47.26 1.12L47.26 1.12L47.26 1.12Q46.93-0.11 46.93-1.90L46.93-1.90L46.93-1.90Q46.93-2.13 46.65-2.13L46.65-2.13L46.65-2.13Q46.37-2.13 45.36-1.01L45.36-1.01L45.36-1.01Q42.22 2.24 40.29 2.24L40.29 2.24L40.29 2.24Q38.36 2.24 37.32 1.23L37.32 1.23L37.32 1.23Q36.29 0.22 36.29-1.34L36.29-1.34L36.29-1.34Q36.29-4.09 37.74-6.58L37.74-6.58L37.74-6.58Q39.20-9.07 41.22-10.58L41.22-10.58L41.22-10.58Q45.70-13.89 48.16-13.89L48.16-13.89L48.16-13.89Q51.86-13.78 51.86-11.26L51.86-11.26L51.86-11.26Q51.86-10.36 51.07-9.49L51.07-9.49L51.07-9.49Q50.29-8.62 49.62-8.62L49.62-8.62L49.62-8.62Q48.94-8.62 47.77-9.80L47.77-9.80L47.77-9.80Q46.59-10.98 45.19-10.98L45.19-10.98L45.19-10.98Q43.79-10.98 42.90-9.83L42.90-9.83L42.90-9.83Q42-8.68 42-6.89L42-6.89L42-6.89Q42-3.98 45.08-3.98L45.08-3.98L45.08-3.98Q46.31-3.98 47.12-4.59L47.12-4.59L47.12-4.59Q47.94-5.21 48.27-5.94L48.27-5.94L48.27-5.94Q49.22-7.84 50.01-7.84L50.01-7.84L50.01-7.84Q50.68-7.84 50.68-7.17ZM70.73-7.17L70.73-7.17L70.50-5.60L70.50-5.60Q70.50-4.59 71.37-3.50L71.37-3.50L71.37-3.50Q72.24-2.41 73.42-2.41L73.42-2.41L73.42-2.41Q74.31-2.41 74.87-2.80L74.87-2.80L74.87-2.80Q76.10-3.64 76.41-3.95L76.41-3.95L76.41-3.95Q76.72-4.26 77.42-4.26L77.42-4.26L77.42-4.26Q78.12-4.26 78.12-3.75L78.12-3.75L78.12-3.75Q78.12-3.19 75.49-0.22L75.49-0.22L75.49-0.22Q74.65 0.73 73.02 1.79L73.02 1.79L73.02 1.79Q71.40 2.86 70.14 2.86L70.14 2.86L70.14 2.86Q68.88 2.86 68.24 2.44L68.24 2.44L68.24 2.44Q67.59 2.02 67.31 1.12L67.31 1.12L67.31 1.12Q66.98-0.11 66.98-1.90L66.98-1.90L66.98-1.90Q66.98-2.13 66.70-2.13L66.70-2.13L66.70-2.13Q66.42-2.13 65.41-1.01L65.41-1.01L65.41-1.01Q62.27 2.24 60.34 2.24L60.34 2.24L60.34 2.24Q58.41 2.24 57.37 1.23L57.37 1.23L57.37 1.23Q56.34 0.22 56.34-1.34L56.34-1.34L56.34-1.34Q56.34-4.09 57.79-6.58L57.79-6.58L57.79-6.58Q59.25-9.07 61.26-10.58L61.26-10.58L61.26-10.58Q65.74-13.89 68.21-13.89L68.21-13.89L68.21-13.89Q71.90-13.78 71.90-11.26L71.90-11.26L71.90-11.26Q71.90-10.36 71.12-9.49L71.12-9.49L71.12-9.49Q70.34-8.62 69.66-8.62L69.66-8.62L69.66-8.62Q68.99-8.62 67.82-9.80L67.82-9.80L67.82-9.80Q66.64-10.98 65.24-10.98L65.24-10.98L65.24-10.98Q63.84-10.98 62.94-9.83L62.94-9.83L62.94-9.83Q62.05-8.68 62.05-6.89L62.05-6.89L62.05-6.89Q62.05-3.98 65.13-3.98L65.13-3.98L65.13-3.98Q66.36-3.98 67.17-4.59L67.17-4.59L67.17-4.59Q67.98-5.21 68.32-5.94L68.32-5.94L68.32-5.94Q69.27-7.84 70.06-7.84L70.06-7.84L70.06-7.84Q70.73-7.84 70.73-7.17ZM109.70-34.33L109.70-34.33L109.70-34.33Q109.31-34.33 109.06-34.58L109.06-34.58L109.06-34.58Q108.81-34.83 108.81-35.11L108.81-35.11L108.81-35.11Q108.81-35.39 109.09-35.90L109.09-35.90L109.09-35.90Q109.37-36.40 109.37-36.85L109.37-36.85L109.37-36.85Q109.37-38.14 108.05-38.72L108.05-38.72L108.05-38.72Q106.74-39.31 105.34-39.31L105.34-39.31L105.34-39.31Q101.19-39.31 96.68-36.51L96.68-36.51L96.68-36.51Q92.18-33.71 91.39-29.79L91.39-29.79L91.39-29.79Q91.67-27.44 93.72-25.40L93.72-25.40L93.72-25.40Q95.76-23.35 98.45-21.87L98.45-21.87L98.45-21.87Q101.14-20.38 103.77-18.87L103.77-18.87L103.77-18.87Q106.40-17.36 108.19-15.29L108.19-15.29L108.19-15.29Q109.98-13.22 109.98-11.06L109.98-11.06L109.98-11.06Q109.98-8.90 108.42-6.86L108.42-6.86L108.42-6.86Q106.85-4.82 105.31-3.42L105.31-3.42L105.31-3.42Q103.77-2.02 103.77-1.93L103.77-1.93L103.77-1.93Q103.77-1.85 103.94-1.85L103.94-1.85L103.94-1.85Q107.35-1.85 113.29-5.60L113.29-5.60L113.85-5.99L113.85-5.99Q114.24-6.22 114.44-6.22L114.44-6.22L114.44-6.22Q114.63-6.22 114.86-5.88L114.86-5.88L114.86-5.88Q115.08-5.54 115.08-5.15L115.08-5.15L115.08-5.15Q115.08-4.76 114.35-4.37L114.35-4.37L114.35-4.37Q111.10-1.29 102.23 1.51L102.23 1.51L102.23 1.51Q93.35 4.31 86.18 4.31L86.18 4.31L86.18 4.31Q76.38 4.31 76.38-1.40L76.38-1.40L76.38-1.40Q76.38-2.24 78.06-3.81L78.06-3.81L78.06-3.81Q80.64-6.16 81.20-6.16L81.20-6.16L81.20-6.16Q81.76-6.16 84.06-4.76L84.06-4.76L84.06-4.76Q86.35-3.36 89.82-1.96L89.82-1.96L89.82-1.96Q93.30-0.56 96.71-0.56L96.71-0.56L96.71-0.56Q100.13-0.56 101.95-2.69L101.95-2.69L101.95-2.69Q103.77-4.82 103.77-7.06L103.77-7.06L103.77-7.06Q103.77-9.30 101.86-11.09L101.86-11.09L101.86-11.09Q99.96-12.88 97.24-14.25L97.24-14.25L97.24-14.25Q94.53-15.62 91.78-17.08L91.78-17.08L91.78-17.08Q89.04-18.54 87.14-20.61L87.14-20.61L87.14-20.61Q85.23-22.68 85.23-25.14L85.23-25.14L85.23-25.14Q85.23-29.12 89.66-33.49L89.66-33.49L89.66-33.49Q94.08-37.86 99.79-40.54L99.79-40.54L99.79-40.54Q105.50-43.23 109.54-43.23L109.54-43.23L109.54-43.23Q114.58-43.23 114.58-39.87L114.58-39.87L114.58-39.87Q114.58-37.86 112.76-36.09L112.76-36.09L112.76-36.09Q110.94-34.33 109.70-34.33ZM130.37-6.44L130.37-6.44Q131.32-6.78 132.30-8.60L132.30-8.60L132.30-8.60Q133.28-10.42 133.28-11.59L133.28-11.59L133.28-11.59Q133.28-12.77 132.38-12.82L132.38-12.82L132.38-12.82Q131.04-12.82 130.48-11.62L130.48-11.62L130.48-11.62Q129.92-10.42 129.92-8.99L129.92-8.99L129.92-8.99Q129.92-7.56 130.37-6.44L130.37-6.44ZM135.18-2.80L135.18-2.80L135.18-2.80Q136.75-2.80 137.79-3.50L137.79-3.50L137.79-3.50Q138.82-4.20 139.75-5.32L139.75-5.32L139.75-5.32Q140.67-6.44 141.20-6.44L141.20-6.44L141.20-6.44Q141.74-6.44 141.74-5.94L141.74-5.94L141.74-5.94Q141.74-5.60 141.51-5.15L141.51-5.15L141.51-5.15Q139.66-2.18 136.92 0.08L136.92 0.08L136.92 0.08Q134.18 2.35 131.10 2.35L131.10 2.35L131.10 2.35Q128.02 2.35 126.64 0.87L126.64 0.87L126.64 0.87Q125.27-0.62 125.27-3.08L125.27-3.08L125.27-3.08Q125.27-7.34 128.46-11.79L128.46-11.79L128.46-11.79Q131.66-16.24 135.07-16.24L135.07-16.24L135.07-16.24Q136.86-16.24 136.86-14.78L136.86-14.78L136.86-14.78Q136.86-12.82 135.63-10.72L135.63-10.72L135.63-10.72Q134.40-8.62 131.10-5.04L131.10-5.04L131.10-5.04Q132.61-2.80 135.18-2.80ZM139.27 1.18L139.27 1.18L139.27 1.18Q139.27 0.22 143.19-3.81L143.19-3.81L143.19-3.81Q140.73-7.39 140.73-10.81L140.73-10.81L140.73-10.81Q140.73-11.76 142.38-13.38L142.38-13.38L142.38-13.38Q144.03-15.01 144.98-15.01L144.98-15.01L144.98-15.01Q145.54-15.01 145.77-14.34L145.77-14.34L145.77-14.34Q145.99-13.72 146.10-13.61L146.10-13.61L146.10-13.61Q146.83-11.65 148.74-8.79L148.74-8.79L148.74-8.79Q151.20-10.70 152.18-11.37L152.18-11.37L152.18-11.37Q153.16-12.04 153.61-12.04L153.61-12.04L153.61-12.04Q154.34-12.04 154.34-11.42L154.34-11.42L154.34-11.42Q154.34-10.98 153.66-10.47L153.66-10.47L153.66-10.47Q152.26-9.58 149.69-7.45L149.69-7.45L149.69-7.45Q152.77-3.42 155.68-3.42L155.68-3.42L155.68-3.42Q156.30-3.42 156.60-3.58L156.60-3.58L156.60-3.58Q156.91-3.75 157.02-3.75L157.02-3.75L157.02-3.75Q157.58-3.75 157.58-3.19L157.58-3.19L157.58-3.19Q157.58-2.86 156.74-1.82L156.74-1.82L156.74-1.82Q155.90-0.78 154.22 0.28L154.22 0.28L154.22 0.28Q152.54 1.34 150.81 1.34L150.81 1.34L150.81 1.34Q147.50 1.34 144.26-2.41L144.26-2.41L144.26-2.41Q142.30-0.28 141.18 1.34L141.18 1.34L141.18 1.34Q140.45 2.07 140.11 2.07L140.11 2.07L140.11 2.07Q139.78 2.07 139.52 1.79L139.52 1.79L139.52 1.79Q139.27 1.51 139.27 1.18ZM170.74-7.17L170.74-7.17L170.52-5.60L170.52-5.60Q170.52-4.59 171.39-3.50L171.39-3.50L171.39-3.50Q172.26-2.41 173.43-2.41L173.43-2.41L173.43-2.41Q174.33-2.41 174.89-2.80L174.89-2.80L174.89-2.80Q176.12-3.64 176.43-3.95L176.43-3.95L176.43-3.95Q176.74-4.26 177.44-4.26L177.44-4.26L177.44-4.26Q178.14-4.26 178.14-3.75L178.14-3.75L178.14-3.75Q178.14-3.19 175.50-0.22L175.50-0.22L175.50-0.22Q174.66 0.73 173.04 1.79L173.04 1.79L173.04 1.79Q171.42 2.86 170.16 2.86L170.16 2.86L170.16 2.86Q168.90 2.86 168.25 2.44L168.25 2.44L168.25 2.44Q167.61 2.02 167.33 1.12L167.33 1.12L167.33 1.12Q166.99-0.11 166.99-1.90L166.99-1.90L166.99-1.90Q166.99-2.13 166.71-2.13L166.71-2.13L166.71-2.13Q166.43-2.13 165.42-1.01L165.42-1.01L165.42-1.01Q162.29 2.24 160.36 2.24L160.36 2.24L160.36 2.24Q158.42 2.24 157.39 1.23L157.39 1.23L157.39 1.23Q156.35 0.22 156.35-1.34L156.35-1.34L156.35-1.34Q156.35-4.09 157.81-6.58L157.81-6.58L157.81-6.58Q159.26-9.07 161.28-10.58L161.28-10.58L161.28-10.58Q165.76-13.89 168.22-13.89L168.22-13.89L168.22-13.89Q171.92-13.78 171.92-11.26L171.92-11.26L171.92-11.26Q171.92-10.36 171.14-9.49L171.14-9.49L171.14-9.49Q170.35-8.62 169.68-8.62L169.68-8.62L169.68-8.62Q169.01-8.62 167.83-9.80L167.83-9.80L167.83-9.80Q166.66-10.98 165.26-10.98L165.26-10.98L165.26-10.98Q163.86-10.98 162.96-9.83L162.96-9.83L162.96-9.83Q162.06-8.68 162.06-6.89L162.06-6.89L162.06-6.89Q162.06-3.98 165.14-3.98L165.14-3.98L165.14-3.98Q166.38-3.98 167.19-4.59L167.19-4.59L167.19-4.59Q168.00-5.21 168.34-5.94L168.34-5.94L168.34-5.94Q169.29-7.84 170.07-7.84L170.07-7.84L170.07-7.84Q170.74-7.84 170.74-7.17ZM189.22-0.78L189.28-1.68L189.28-1.68Q189.28-4.09 188.75-4.09L188.75-4.09L188.75-4.09Q188.22-4.09 187.29-2.69L187.29-2.69L187.29-2.69Q186.37-1.29 185.30 0.14L185.30 0.14L185.30 0.14Q184.24 1.57 183.34 1.57L183.34 1.57L183.34 1.57Q182.84 1.57 181.80-0.22L181.80-0.22L181.80-0.22Q180.77-2.02 179.54-3.78L179.54-3.78L179.54-3.78Q178.30-5.54 177.35-5.54L177.35-5.54L177.35-5.54Q177.07-5.54 177.07-5.82L177.07-5.82L177.07-5.82Q177.07-6.72 179.20-9.07L179.20-9.07L179.20-9.07Q181.33-11.42 182.25-11.42L182.25-11.42L182.25-11.42Q183.18-11.42 185.00-8.51L185.00-8.51L185.00-8.51Q186.82-5.60 187.43-5.60L187.43-5.60L187.43-5.60Q188.05-5.60 189.92-7.90L189.92-7.90L189.92-7.90Q191.80-10.19 192.89-10.19L192.89-10.19L192.89-10.19Q193.98-10.19 194.52-9.32L194.52-9.32L194.52-9.32Q195.05-8.46 195.13-7.45L195.13-7.45L195.13-7.45Q195.22-6.44 195.33-5.57L195.33-5.57L195.33-5.57Q195.44-4.70 195.78-4.70L195.78-4.70L195.78-4.70Q196.34-4.70 198.66-7.48L198.66-7.48L198.66-7.48Q200.98-10.25 202.05-10.25L202.05-10.25L202.05-10.25Q203.22-10.25 205.97-6.72L205.97-6.72L205.97-6.72Q206.98-5.38 208.52-4.28L208.52-4.28L208.52-4.28Q210.06-3.19 211.06-3.19L211.06-3.19L211.06-3.19Q212.07-3.19 213.02-3.53L213.02-3.53L213.02-3.53Q213.98-3.86 214.65-3.86L214.65-3.86L214.65-3.86Q215.32-3.86 215.32-3.42L215.32-3.42L215.32-3.42Q215.32-3.19 215.12-3.02L215.12-3.02L215.12-3.02Q214.93-2.86 214.17-2.16L214.17-2.16L214.17-2.16Q213.42-1.46 212.94-1.06L212.94-1.06L212.94-1.06Q212.46-0.67 211.60 0.03L211.60 0.03L211.60 0.03Q210.73 0.73 210.11 1.12L210.11 1.12L210.11 1.12Q208.43 2.13 206.95 2.13L206.95 2.13L206.95 2.13Q205.46 2.13 203.64 0.48L203.64 0.48L203.64 0.48Q201.82-1.18 200.51-2.83L200.51-2.83L200.51-2.83Q199.19-4.48 198.58-4.48L198.58-4.48L198.58-4.48Q197.96-4.48 196.59-2.80L196.59-2.80L196.59-2.80Q195.22-1.12 193.79 0.56L193.79 0.56L193.79 0.56Q192.36 2.24 191.32 2.24L191.32 2.24L191.32 2.24Q190.29 2.24 189.76 1.29L189.76 1.29L189.76 1.29Q189.22 0.34 189.22-0.78L189.22-0.78ZM221.20-7.56L221.20-7.56L221.20-7.56Q219.63-7.56 218.90-1.79L218.90-1.79L218.90-1.79Q220.36-0.06 222.32-0.06L222.32-0.06L222.32-0.06Q223.22-0.06 224.34-0.62L224.34-0.62L224.34-0.62Q224.78-1.96 224.78-3.42L224.78-3.42L224.78-3.42Q224.78-4.87 223.61-6.22L223.61-6.22L223.61-6.22Q222.43-7.56 221.20-7.56ZM216.72-4.31L216.72-4.31L217.11-11.37L217.11-11.37Q217.11-11.70 216.92-11.70L216.92-11.70L216.92-11.70Q216.72-11.70 216.36-11.20L216.36-11.20L216.36-11.20Q215.99-10.70 215.38-10.70L215.38-10.70L215.38-10.70Q214.76-10.70 214.76-11.09L214.76-11.09L214.76-11.09Q214.76-11.48 215.26-12.07L215.26-12.07L215.26-12.07Q215.77-12.66 216.41-14.20L216.41-14.20L216.41-14.20Q217.06-15.74 217.56-16.77L217.56-16.77L217.56-16.77Q218.06-17.81 218.51-17.81L218.51-17.81L218.51-17.81Q219.13-17.81 219.46-17.28L219.46-17.28L219.46-17.28Q219.80-16.74 219.80-16.30L219.80-16.30L219.80-16.30Q219.80-15.85 219.30-13.27L219.30-13.27L219.30-13.27Q218.79-10.70 218.79-9.49L218.79-9.49L218.79-9.49Q218.79-8.29 219.07-8.29L219.07-8.29L219.07-8.29Q219.18-8.29 220.11-9.49L220.11-9.49L220.11-9.49Q221.03-10.70 222.35-11.90L222.35-11.90L222.35-11.90Q223.66-13.10 224.78-13.10L224.78-13.10L224.78-13.10Q228.93-13.10 228.93-8.34L228.93-8.34L228.93-8.34Q228.93-5.04 227.08-2.30L227.08-2.30L227.08-2.30Q229.88-4.26 232.18-6.38L232.18-6.38L232.96-7.11L232.96-7.11Q233.63-7.11 233.63-6.72L233.63-6.72L233.63-6.72Q233.63-5.77 231.25-3.56L231.25-3.56L231.25-3.56Q228.87-1.34 225.15 0.84L225.15 0.84L225.15 0.84Q221.42 3.02 218.29 3.70L218.29 3.70L218.29 3.70Q218.18 6.50 218.18 8.23L218.18 8.23L218.18 8.23Q218.18 9.97 218.37 11.34L218.37 11.34L218.37 11.34Q218.57 12.71 218.57 13.36L218.57 13.36L218.57 13.36Q218.57 14 218.06 14.42L218.06 14.42L218.06 14.42Q217.56 14.84 217.00 14.84L217.00 14.84L217.00 14.84Q216.27 14.84 216.22 13.89L216.22 13.89L216.22 13.89Q216.16 12.94 216.16 9.24L216.16 9.24L216.16 9.24Q216.16 5.54 216.22 3.98L216.22 3.98L216.22 3.98Q214.70 3.98 213.81 2.60L213.81 2.60L213.81 2.60Q212.91 1.23 212.91 0L212.91 0L212.91 0Q212.91-1.23 214.00-2.74L214.00-2.74L214.00-2.74Q215.10-4.26 216.72-4.31ZM237.22-31.02L237.22-31.02Q235.65-31.02 234.84-27.38L234.84-27.38L234.84-27.38Q234.02-23.74 234.02-19.99L234.02-19.99L234.02-19.99Q234.02-16.24 234.81-12.60L234.81-12.60L234.81-12.60Q238.67-18.37 238.67-28.06L238.67-28.06L238.67-28.06Q238.67-29.46 238.25-30.24L238.25-30.24L238.25-30.24Q237.83-31.02 237.22-31.02L237.22-31.02ZM242.65-3.81L242.65-3.81L242.65-3.81Q243.54-3.81 245.22-4.48L245.22-4.48L245.22-4.48Q246.90-5.15 247.52-5.15L247.52-5.15L247.52-5.15Q248.14-5.15 248.14-4.59L248.14-4.59L248.14-4.59Q248.14-3.30 244.64-0.81L244.64-0.81L244.64-0.81Q241.14 1.68 239.01 1.68L239.01 1.68L239.01 1.68Q236.88 1.68 235.54 1.01L235.54 1.01L235.54 1.01Q234.19 0.34 233.38-0.98L233.38-0.98L233.38-0.98Q232.57-2.30 232.06-3.58L232.06-3.58L232.06-3.58Q231.56-4.87 231.39-6.72L231.39-6.72L231.39-6.72Q231.06-9.58 231.06-13.38L231.06-13.38L231.06-13.38Q231.06-17.19 232.06-22.51L232.06-22.51L232.06-22.51Q233.07-27.83 234.89-31.53L234.89-31.53L234.89-31.53Q236.71-35.22 238.73-35.34L238.73-35.34L238.73-35.34Q239.29-35.28 239.65-35.14L239.65-35.14L239.65-35.14Q240.02-35 240.38-34.19L240.38-34.19L240.38-34.19Q240.74-33.38 240.74-31.86L240.74-31.86L240.74-31.86Q240.74-18.09 235.31-10.70L235.31-10.70L235.31-10.70Q237.55-3.81 242.65-3.81ZM250.43-6.44L250.43-6.44Q251.38-6.78 252.36-8.60L252.36-8.60L252.36-8.60Q253.34-10.42 253.34-11.59L253.34-11.59L253.34-11.59Q253.34-12.77 252.45-12.82L252.45-12.82L252.45-12.82Q251.10-12.82 250.54-11.62L250.54-11.62L250.54-11.62Q249.98-10.42 249.98-8.99L249.98-8.99L249.98-8.99Q249.98-7.56 250.43-6.44L250.43-6.44ZM255.25-2.80L255.25-2.80L255.25-2.80Q256.82-2.80 257.85-3.50L257.85-3.50L257.85-3.50Q258.89-4.20 259.81-5.32L259.81-5.32L259.81-5.32Q260.74-6.44 261.27-6.44L261.27-6.44L261.27-6.44Q261.80-6.44 261.80-5.94L261.80-5.94L261.80-5.94Q261.80-5.60 261.58-5.15L261.58-5.15L261.58-5.15Q259.73-2.18 256.98 0.08L256.98 0.08L256.98 0.08Q254.24 2.35 251.16 2.35L251.16 2.35L251.16 2.35Q248.08 2.35 246.71 0.87L246.71 0.87L246.71 0.87Q245.34-0.62 245.34-3.08L245.34-3.08L245.34-3.08Q245.34-7.34 248.53-11.79L248.53-11.79L248.53-11.79Q251.72-16.24 255.14-16.24L255.14-16.24L255.14-16.24Q256.93-16.24 256.93-14.78L256.93-14.78L256.93-14.78Q256.93-12.82 255.70-10.72L255.70-10.72L255.70-10.72Q254.46-8.62 251.16-5.04L251.16-5.04L251.16-5.04Q252.67-2.80 255.25-2.80Z" fill="url(#editing-shiny-gradient)"></path></g></g><g filter="url(#editing-shiny2)"><g transform="translate(120.32817077636719, 104.03500366210938)"><path d="M33.32-34.33L33.32-34.33L33.32-34.33Q32.93-34.33 32.68-34.58L32.68-34.58L32.68-34.58Q32.42-34.83 32.42-35.11L32.42-35.11L32.42-35.11Q32.42-35.39 32.70-35.90L32.70-35.90L32.70-35.90Q32.98-36.40 32.98-36.85L32.98-36.85L32.98-36.85Q32.98-38.14 31.67-38.72L31.67-38.72L31.67-38.72Q30.35-39.31 28.95-39.31L28.95-39.31L28.95-39.31Q24.81-39.31 20.30-36.51L20.30-36.51L20.30-36.51Q15.79-33.71 15.01-29.79L15.01-29.79L15.01-29.79Q15.29-27.44 17.33-25.40L17.33-25.40L17.33-25.40Q19.38-23.35 22.06-21.87L22.06-21.87L22.06-21.87Q24.75-20.38 27.38-18.87L27.38-18.87L27.38-18.87Q30.02-17.36 31.81-15.29L31.81-15.29L31.81-15.29Q33.60-13.22 33.60-11.06L33.60-11.06L33.60-11.06Q33.60-8.90 32.03-6.86L32.03-6.86L32.03-6.86Q30.46-4.82 28.92-3.42L28.92-3.42L28.92-3.42Q27.38-2.02 27.38-1.93L27.38-1.93L27.38-1.93Q27.38-1.85 27.55-1.85L27.55-1.85L27.55-1.85Q30.97-1.85 36.90-5.60L36.90-5.60L37.46-5.99L37.46-5.99Q37.86-6.22 38.05-6.22L38.05-6.22L38.05-6.22Q38.25-6.22 38.47-5.88L38.47-5.88L38.47-5.88Q38.70-5.54 38.70-5.15L38.70-5.15L38.70-5.15Q38.70-4.76 37.97-4.37L37.97-4.37L37.97-4.37Q34.72-1.29 25.84 1.51L25.84 1.51L25.84 1.51Q16.97 4.31 9.80 4.31L9.80 4.31L9.80 4.31Q0 4.31 0-1.40L0-1.40L0-1.40Q0-2.24 1.68-3.81L1.68-3.81L1.68-3.81Q4.26-6.16 4.82-6.16L4.82-6.16L4.82-6.16Q5.38-6.16 7.67-4.76L7.67-4.76L7.67-4.76Q9.97-3.36 13.44-1.96L13.44-1.96L13.44-1.96Q16.91-0.56 20.33-0.56L20.33-0.56L20.33-0.56Q23.74-0.56 25.56-2.69L25.56-2.69L25.56-2.69Q27.38-4.82 27.38-7.06L27.38-7.06L27.38-7.06Q27.38-9.30 25.48-11.09L25.48-11.09L25.48-11.09Q23.58-12.88 20.86-14.25L20.86-14.25L20.86-14.25Q18.14-15.62 15.40-17.08L15.40-17.08L15.40-17.08Q12.66-18.54 10.75-20.61L10.75-20.61L10.75-20.61Q8.85-22.68 8.85-25.14L8.85-25.14L8.85-25.14Q8.85-29.12 13.27-33.49L13.27-33.49L13.27-33.49Q17.70-37.86 23.41-40.54L23.41-40.54L23.41-40.54Q29.12-43.23 33.15-43.23L33.15-43.23L33.15-43.23Q38.19-43.23 38.19-39.87L38.19-39.87L38.19-39.87Q38.19-37.86 36.37-36.09L36.37-36.09L36.37-36.09Q34.55-34.33 33.32-34.33ZM50.68-7.17L50.68-7.17L50.46-5.60L50.46-5.60Q50.46-4.59 51.32-3.50L51.32-3.50L51.32-3.50Q52.19-2.41 53.37-2.41L53.37-2.41L53.37-2.41Q54.26-2.41 54.82-2.80L54.82-2.80L54.82-2.80Q56.06-3.64 56.36-3.95L56.36-3.95L56.36-3.95Q56.67-4.26 57.37-4.26L57.37-4.26L57.37-4.26Q58.07-4.26 58.07-3.75L58.07-3.75L58.07-3.75Q58.07-3.19 55.44-0.22L55.44-0.22L55.44-0.22Q54.60 0.73 52.98 1.79L52.98 1.79L52.98 1.79Q51.35 2.86 50.09 2.86L50.09 2.86L50.09 2.86Q48.83 2.86 48.19 2.44L48.19 2.44L48.19 2.44Q47.54 2.02 47.26 1.12L47.26 1.12L47.26 1.12Q46.93-0.11 46.93-1.90L46.93-1.90L46.93-1.90Q46.93-2.13 46.65-2.13L46.65-2.13L46.65-2.13Q46.37-2.13 45.36-1.01L45.36-1.01L45.36-1.01Q42.22 2.24 40.29 2.24L40.29 2.24L40.29 2.24Q38.36 2.24 37.32 1.23L37.32 1.23L37.32 1.23Q36.29 0.22 36.29-1.34L36.29-1.34L36.29-1.34Q36.29-4.09 37.74-6.58L37.74-6.58L37.74-6.58Q39.20-9.07 41.22-10.58L41.22-10.58L41.22-10.58Q45.70-13.89 48.16-13.89L48.16-13.89L48.16-13.89Q51.86-13.78 51.86-11.26L51.86-11.26L51.86-11.26Q51.86-10.36 51.07-9.49L51.07-9.49L51.07-9.49Q50.29-8.62 49.62-8.62L49.62-8.62L49.62-8.62Q48.94-8.62 47.77-9.80L47.77-9.80L47.77-9.80Q46.59-10.98 45.19-10.98L45.19-10.98L45.19-10.98Q43.79-10.98 42.90-9.83L42.90-9.83L42.90-9.83Q42-8.68 42-6.89L42-6.89L42-6.89Q42-3.98 45.08-3.98L45.08-3.98L45.08-3.98Q46.31-3.98 47.12-4.59L47.12-4.59L47.12-4.59Q47.94-5.21 48.27-5.94L48.27-5.94L48.27-5.94Q49.22-7.84 50.01-7.84L50.01-7.84L50.01-7.84Q50.68-7.84 50.68-7.17ZM70.73-7.17L70.73-7.17L70.50-5.60L70.50-5.60Q70.50-4.59 71.37-3.50L71.37-3.50L71.37-3.50Q72.24-2.41 73.42-2.41L73.42-2.41L73.42-2.41Q74.31-2.41 74.87-2.80L74.87-2.80L74.87-2.80Q76.10-3.64 76.41-3.95L76.41-3.95L76.41-3.95Q76.72-4.26 77.42-4.26L77.42-4.26L77.42-4.26Q78.12-4.26 78.12-3.75L78.12-3.75L78.12-3.75Q78.12-3.19 75.49-0.22L75.49-0.22L75.49-0.22Q74.65 0.73 73.02 1.79L73.02 1.79L73.02 1.79Q71.40 2.86 70.14 2.86L70.14 2.86L70.14 2.86Q68.88 2.86 68.24 2.44L68.24 2.44L68.24 2.44Q67.59 2.02 67.31 1.12L67.31 1.12L67.31 1.12Q66.98-0.11 66.98-1.90L66.98-1.90L66.98-1.90Q66.98-2.13 66.70-2.13L66.70-2.13L66.70-2.13Q66.42-2.13 65.41-1.01L65.41-1.01L65.41-1.01Q62.27 2.24 60.34 2.24L60.34 2.24L60.34 2.24Q58.41 2.24 57.37 1.23L57.37 1.23L57.37 1.23Q56.34 0.22 56.34-1.34L56.34-1.34L56.34-1.34Q56.34-4.09 57.79-6.58L57.79-6.58L57.79-6.58Q59.25-9.07 61.26-10.58L61.26-10.58L61.26-10.58Q65.74-13.89 68.21-13.89L68.21-13.89L68.21-13.89Q71.90-13.78 71.90-11.26L71.90-11.26L71.90-11.26Q71.90-10.36 71.12-9.49L71.12-9.49L71.12-9.49Q70.34-8.62 69.66-8.62L69.66-8.62L69.66-8.62Q68.99-8.62 67.82-9.80L67.82-9.80L67.82-9.80Q66.64-10.98 65.24-10.98L65.24-10.98L65.24-10.98Q63.84-10.98 62.94-9.83L62.94-9.83L62.94-9.83Q62.05-8.68 62.05-6.89L62.05-6.89L62.05-6.89Q62.05-3.98 65.13-3.98L65.13-3.98L65.13-3.98Q66.36-3.98 67.17-4.59L67.17-4.59L67.17-4.59Q67.98-5.21 68.32-5.94L68.32-5.94L68.32-5.94Q69.27-7.84 70.06-7.84L70.06-7.84L70.06-7.84Q70.73-7.84 70.73-7.17ZM109.70-34.33L109.70-34.33L109.70-34.33Q109.31-34.33 109.06-34.58L109.06-34.58L109.06-34.58Q108.81-34.83 108.81-35.11L108.81-35.11L108.81-35.11Q108.81-35.39 109.09-35.90L109.09-35.90L109.09-35.90Q109.37-36.40 109.37-36.85L109.37-36.85L109.37-36.85Q109.37-38.14 108.05-38.72L108.05-38.72L108.05-38.72Q106.74-39.31 105.34-39.31L105.34-39.31L105.34-39.31Q101.19-39.31 96.68-36.51L96.68-36.51L96.68-36.51Q92.18-33.71 91.39-29.79L91.39-29.79L91.39-29.79Q91.67-27.44 93.72-25.40L93.72-25.40L93.72-25.40Q95.76-23.35 98.45-21.87L98.45-21.87L98.45-21.87Q101.14-20.38 103.77-18.87L103.77-18.87L103.77-18.87Q106.40-17.36 108.19-15.29L108.19-15.29L108.19-15.29Q109.98-13.22 109.98-11.06L109.98-11.06L109.98-11.06Q109.98-8.90 108.42-6.86L108.42-6.86L108.42-6.86Q106.85-4.82 105.31-3.42L105.31-3.42L105.31-3.42Q103.77-2.02 103.77-1.93L103.77-1.93L103.77-1.93Q103.77-1.85 103.94-1.85L103.94-1.85L103.94-1.85Q107.35-1.85 113.29-5.60L113.29-5.60L113.85-5.99L113.85-5.99Q114.24-6.22 114.44-6.22L114.44-6.22L114.44-6.22Q114.63-6.22 114.86-5.88L114.86-5.88L114.86-5.88Q115.08-5.54 115.08-5.15L115.08-5.15L115.08-5.15Q115.08-4.76 114.35-4.37L114.35-4.37L114.35-4.37Q111.10-1.29 102.23 1.51L102.23 1.51L102.23 1.51Q93.35 4.31 86.18 4.31L86.18 4.31L86.18 4.31Q76.38 4.31 76.38-1.40L76.38-1.40L76.38-1.40Q76.38-2.24 78.06-3.81L78.06-3.81L78.06-3.81Q80.64-6.16 81.20-6.16L81.20-6.16L81.20-6.16Q81.76-6.16 84.06-4.76L84.06-4.76L84.06-4.76Q86.35-3.36 89.82-1.96L89.82-1.96L89.82-1.96Q93.30-0.56 96.71-0.56L96.71-0.56L96.71-0.56Q100.13-0.56 101.95-2.69L101.95-2.69L101.95-2.69Q103.77-4.82 103.77-7.06L103.77-7.06L103.77-7.06Q103.77-9.30 101.86-11.09L101.86-11.09L101.86-11.09Q99.96-12.88 97.24-14.25L97.24-14.25L97.24-14.25Q94.53-15.62 91.78-17.08L91.78-17.08L91.78-17.08Q89.04-18.54 87.14-20.61L87.14-20.61L87.14-20.61Q85.23-22.68 85.23-25.14L85.23-25.14L85.23-25.14Q85.23-29.12 89.66-33.49L89.66-33.49L89.66-33.49Q94.08-37.86 99.79-40.54L99.79-40.54L99.79-40.54Q105.50-43.23 109.54-43.23L109.54-43.23L109.54-43.23Q114.58-43.23 114.58-39.87L114.58-39.87L114.58-39.87Q114.58-37.86 112.76-36.09L112.76-36.09L112.76-36.09Q110.94-34.33 109.70-34.33ZM130.37-6.44L130.37-6.44Q131.32-6.78 132.30-8.60L132.30-8.60L132.30-8.60Q133.28-10.42 133.28-11.59L133.28-11.59L133.28-11.59Q133.28-12.77 132.38-12.82L132.38-12.82L132.38-12.82Q131.04-12.82 130.48-11.62L130.48-11.62L130.48-11.62Q129.92-10.42 129.92-8.99L129.92-8.99L129.92-8.99Q129.92-7.56 130.37-6.44L130.37-6.44ZM135.18-2.80L135.18-2.80L135.18-2.80Q136.75-2.80 137.79-3.50L137.79-3.50L137.79-3.50Q138.82-4.20 139.75-5.32L139.75-5.32L139.75-5.32Q140.67-6.44 141.20-6.44L141.20-6.44L141.20-6.44Q141.74-6.44 141.74-5.94L141.74-5.94L141.74-5.94Q141.74-5.60 141.51-5.15L141.51-5.15L141.51-5.15Q139.66-2.18 136.92 0.08L136.92 0.08L136.92 0.08Q134.18 2.35 131.10 2.35L131.10 2.35L131.10 2.35Q128.02 2.35 126.64 0.87L126.64 0.87L126.64 0.87Q125.27-0.62 125.27-3.08L125.27-3.08L125.27-3.08Q125.27-7.34 128.46-11.79L128.46-11.79L128.46-11.79Q131.66-16.24 135.07-16.24L135.07-16.24L135.07-16.24Q136.86-16.24 136.86-14.78L136.86-14.78L136.86-14.78Q136.86-12.82 135.63-10.72L135.63-10.72L135.63-10.72Q134.40-8.62 131.10-5.04L131.10-5.04L131.10-5.04Q132.61-2.80 135.18-2.80ZM139.27 1.18L139.27 1.18L139.27 1.18Q139.27 0.22 143.19-3.81L143.19-3.81L143.19-3.81Q140.73-7.39 140.73-10.81L140.73-10.81L140.73-10.81Q140.73-11.76 142.38-13.38L142.38-13.38L142.38-13.38Q144.03-15.01 144.98-15.01L144.98-15.01L144.98-15.01Q145.54-15.01 145.77-14.34L145.77-14.34L145.77-14.34Q145.99-13.72 146.10-13.61L146.10-13.61L146.10-13.61Q146.83-11.65 148.74-8.79L148.74-8.79L148.74-8.79Q151.20-10.70 152.18-11.37L152.18-11.37L152.18-11.37Q153.16-12.04 153.61-12.04L153.61-12.04L153.61-12.04Q154.34-12.04 154.34-11.42L154.34-11.42L154.34-11.42Q154.34-10.98 153.66-10.47L153.66-10.47L153.66-10.47Q152.26-9.58 149.69-7.45L149.69-7.45L149.69-7.45Q152.77-3.42 155.68-3.42L155.68-3.42L155.68-3.42Q156.30-3.42 156.60-3.58L156.60-3.58L156.60-3.58Q156.91-3.75 157.02-3.75L157.02-3.75L157.02-3.75Q157.58-3.75 157.58-3.19L157.58-3.19L157.58-3.19Q157.58-2.86 156.74-1.82L156.74-1.82L156.74-1.82Q155.90-0.78 154.22 0.28L154.22 0.28L154.22 0.28Q152.54 1.34 150.81 1.34L150.81 1.34L150.81 1.34Q147.50 1.34 144.26-2.41L144.26-2.41L144.26-2.41Q142.30-0.28 141.18 1.34L141.18 1.34L141.18 1.34Q140.45 2.07 140.11 2.07L140.11 2.07L140.11 2.07Q139.78 2.07 139.52 1.79L139.52 1.79L139.52 1.79Q139.27 1.51 139.27 1.18ZM170.74-7.17L170.74-7.17L170.52-5.60L170.52-5.60Q170.52-4.59 171.39-3.50L171.39-3.50L171.39-3.50Q172.26-2.41 173.43-2.41L173.43-2.41L173.43-2.41Q174.33-2.41 174.89-2.80L174.89-2.80L174.89-2.80Q176.12-3.64 176.43-3.95L176.43-3.95L176.43-3.95Q176.74-4.26 177.44-4.26L177.44-4.26L177.44-4.26Q178.14-4.26 178.14-3.75L178.14-3.75L178.14-3.75Q178.14-3.19 175.50-0.22L175.50-0.22L175.50-0.22Q174.66 0.73 173.04 1.79L173.04 1.79L173.04 1.79Q171.42 2.86 170.16 2.86L170.16 2.86L170.16 2.86Q168.90 2.86 168.25 2.44L168.25 2.44L168.25 2.44Q167.61 2.02 167.33 1.12L167.33 1.12L167.33 1.12Q166.99-0.11 166.99-1.90L166.99-1.90L166.99-1.90Q166.99-2.13 166.71-2.13L166.71-2.13L166.71-2.13Q166.43-2.13 165.42-1.01L165.42-1.01L165.42-1.01Q162.29 2.24 160.36 2.24L160.36 2.24L160.36 2.24Q158.42 2.24 157.39 1.23L157.39 1.23L157.39 1.23Q156.35 0.22 156.35-1.34L156.35-1.34L156.35-1.34Q156.35-4.09 157.81-6.58L157.81-6.58L157.81-6.58Q159.26-9.07 161.28-10.58L161.28-10.58L161.28-10.58Q165.76-13.89 168.22-13.89L168.22-13.89L168.22-13.89Q171.92-13.78 171.92-11.26L171.92-11.26L171.92-11.26Q171.92-10.36 171.14-9.49L171.14-9.49L171.14-9.49Q170.35-8.62 169.68-8.62L169.68-8.62L169.68-8.62Q169.01-8.62 167.83-9.80L167.83-9.80L167.83-9.80Q166.66-10.98 165.26-10.98L165.26-10.98L165.26-10.98Q163.86-10.98 162.96-9.83L162.96-9.83L162.96-9.83Q162.06-8.68 162.06-6.89L162.06-6.89L162.06-6.89Q162.06-3.98 165.14-3.98L165.14-3.98L165.14-3.98Q166.38-3.98 167.19-4.59L167.19-4.59L167.19-4.59Q168.00-5.21 168.34-5.94L168.34-5.94L168.34-5.94Q169.29-7.84 170.07-7.84L170.07-7.84L170.07-7.84Q170.74-7.84 170.74-7.17ZM189.22-0.78L189.28-1.68L189.28-1.68Q189.28-4.09 188.75-4.09L188.75-4.09L188.75-4.09Q188.22-4.09 187.29-2.69L187.29-2.69L187.29-2.69Q186.37-1.29 185.30 0.14L185.30 0.14L185.30 0.14Q184.24 1.57 183.34 1.57L183.34 1.57L183.34 1.57Q182.84 1.57 181.80-0.22L181.80-0.22L181.80-0.22Q180.77-2.02 179.54-3.78L179.54-3.78L179.54-3.78Q178.30-5.54 177.35-5.54L177.35-5.54L177.35-5.54Q177.07-5.54 177.07-5.82L177.07-5.82L177.07-5.82Q177.07-6.72 179.20-9.07L179.20-9.07L179.20-9.07Q181.33-11.42 182.25-11.42L182.25-11.42L182.25-11.42Q183.18-11.42 185.00-8.51L185.00-8.51L185.00-8.51Q186.82-5.60 187.43-5.60L187.43-5.60L187.43-5.60Q188.05-5.60 189.92-7.90L189.92-7.90L189.92-7.90Q191.80-10.19 192.89-10.19L192.89-10.19L192.89-10.19Q193.98-10.19 194.52-9.32L194.52-9.32L194.52-9.32Q195.05-8.46 195.13-7.45L195.13-7.45L195.13-7.45Q195.22-6.44 195.33-5.57L195.33-5.57L195.33-5.57Q195.44-4.70 195.78-4.70L195.78-4.70L195.78-4.70Q196.34-4.70 198.66-7.48L198.66-7.48L198.66-7.48Q200.98-10.25 202.05-10.25L202.05-10.25L202.05-10.25Q203.22-10.25 205.97-6.72L205.97-6.72L205.97-6.72Q206.98-5.38 208.52-4.28L208.52-4.28L208.52-4.28Q210.06-3.19 211.06-3.19L211.06-3.19L211.06-3.19Q212.07-3.19 213.02-3.53L213.02-3.53L213.02-3.53Q213.98-3.86 214.65-3.86L214.65-3.86L214.65-3.86Q215.32-3.86 215.32-3.42L215.32-3.42L215.32-3.42Q215.32-3.19 215.12-3.02L215.12-3.02L215.12-3.02Q214.93-2.86 214.17-2.16L214.17-2.16L214.17-2.16Q213.42-1.46 212.94-1.06L212.94-1.06L212.94-1.06Q212.46-0.67 211.60 0.03L211.60 0.03L211.60 0.03Q210.73 0.73 210.11 1.12L210.11 1.12L210.11 1.12Q208.43 2.13 206.95 2.13L206.95 2.13L206.95 2.13Q205.46 2.13 203.64 0.48L203.64 0.48L203.64 0.48Q201.82-1.18 200.51-2.83L200.51-2.83L200.51-2.83Q199.19-4.48 198.58-4.48L198.58-4.48L198.58-4.48Q197.96-4.48 196.59-2.80L196.59-2.80L196.59-2.80Q195.22-1.12 193.79 0.56L193.79 0.56L193.79 0.56Q192.36 2.24 191.32 2.24L191.32 2.24L191.32 2.24Q190.29 2.24 189.76 1.29L189.76 1.29L189.76 1.29Q189.22 0.34 189.22-0.78L189.22-0.78ZM221.20-7.56L221.20-7.56L221.20-7.56Q219.63-7.56 218.90-1.79L218.90-1.79L218.90-1.79Q220.36-0.06 222.32-0.06L222.32-0.06L222.32-0.06Q223.22-0.06 224.34-0.62L224.34-0.62L224.34-0.62Q224.78-1.96 224.78-3.42L224.78-3.42L224.78-3.42Q224.78-4.87 223.61-6.22L223.61-6.22L223.61-6.22Q222.43-7.56 221.20-7.56ZM216.72-4.31L216.72-4.31L217.11-11.37L217.11-11.37Q217.11-11.70 216.92-11.70L216.92-11.70L216.92-11.70Q216.72-11.70 216.36-11.20L216.36-11.20L216.36-11.20Q215.99-10.70 215.38-10.70L215.38-10.70L215.38-10.70Q214.76-10.70 214.76-11.09L214.76-11.09L214.76-11.09Q214.76-11.48 215.26-12.07L215.26-12.07L215.26-12.07Q215.77-12.66 216.41-14.20L216.41-14.20L216.41-14.20Q217.06-15.74 217.56-16.77L217.56-16.77L217.56-16.77Q218.06-17.81 218.51-17.81L218.51-17.81L218.51-17.81Q219.13-17.81 219.46-17.28L219.46-17.28L219.46-17.28Q219.80-16.74 219.80-16.30L219.80-16.30L219.80-16.30Q219.80-15.85 219.30-13.27L219.30-13.27L219.30-13.27Q218.79-10.70 218.79-9.49L218.79-9.49L218.79-9.49Q218.79-8.29 219.07-8.29L219.07-8.29L219.07-8.29Q219.18-8.29 220.11-9.49L220.11-9.49L220.11-9.49Q221.03-10.70 222.35-11.90L222.35-11.90L222.35-11.90Q223.66-13.10 224.78-13.10L224.78-13.10L224.78-13.10Q228.93-13.10 228.93-8.34L228.93-8.34L228.93-8.34Q228.93-5.04 227.08-2.30L227.08-2.30L227.08-2.30Q229.88-4.26 232.18-6.38L232.18-6.38L232.96-7.11L232.96-7.11Q233.63-7.11 233.63-6.72L233.63-6.72L233.63-6.72Q233.63-5.77 231.25-3.56L231.25-3.56L231.25-3.56Q228.87-1.34 225.15 0.84L225.15 0.84L225.15 0.84Q221.42 3.02 218.29 3.70L218.29 3.70L218.29 3.70Q218.18 6.50 218.18 8.23L218.18 8.23L218.18 8.23Q218.18 9.97 218.37 11.34L218.37 11.34L218.37 11.34Q218.57 12.71 218.57 13.36L218.57 13.36L218.57 13.36Q218.57 14 218.06 14.42L218.06 14.42L218.06 14.42Q217.56 14.84 217.00 14.84L217.00 14.84L217.00 14.84Q216.27 14.84 216.22 13.89L216.22 13.89L216.22 13.89Q216.16 12.94 216.16 9.24L216.16 9.24L216.16 9.24Q216.16 5.54 216.22 3.98L216.22 3.98L216.22 3.98Q214.70 3.98 213.81 2.60L213.81 2.60L213.81 2.60Q212.91 1.23 212.91 0L212.91 0L212.91 0Q212.91-1.23 214.00-2.74L214.00-2.74L214.00-2.74Q215.10-4.26 216.72-4.31ZM237.22-31.02L237.22-31.02Q235.65-31.02 234.84-27.38L234.84-27.38L234.84-27.38Q234.02-23.74 234.02-19.99L234.02-19.99L234.02-19.99Q234.02-16.24 234.81-12.60L234.81-12.60L234.81-12.60Q238.67-18.37 238.67-28.06L238.67-28.06L238.67-28.06Q238.67-29.46 238.25-30.24L238.25-30.24L238.25-30.24Q237.83-31.02 237.22-31.02L237.22-31.02ZM242.65-3.81L242.65-3.81L242.65-3.81Q243.54-3.81 245.22-4.48L245.22-4.48L245.22-4.48Q246.90-5.15 247.52-5.15L247.52-5.15L247.52-5.15Q248.14-5.15 248.14-4.59L248.14-4.59L248.14-4.59Q248.14-3.30 244.64-0.81L244.64-0.81L244.64-0.81Q241.14 1.68 239.01 1.68L239.01 1.68L239.01 1.68Q236.88 1.68 235.54 1.01L235.54 1.01L235.54 1.01Q234.19 0.34 233.38-0.98L233.38-0.98L233.38-0.98Q232.57-2.30 232.06-3.58L232.06-3.58L232.06-3.58Q231.56-4.87 231.39-6.72L231.39-6.72L231.39-6.72Q231.06-9.58 231.06-13.38L231.06-13.38L231.06-13.38Q231.06-17.19 232.06-22.51L232.06-22.51L232.06-22.51Q233.07-27.83 234.89-31.53L234.89-31.53L234.89-31.53Q236.71-35.22 238.73-35.34L238.73-35.34L238.73-35.34Q239.29-35.28 239.65-35.14L239.65-35.14L239.65-35.14Q240.02-35 240.38-34.19L240.38-34.19L240.38-34.19Q240.74-33.38 240.74-31.86L240.74-31.86L240.74-31.86Q240.74-18.09 235.31-10.70L235.31-10.70L235.31-10.70Q237.55-3.81 242.65-3.81ZM250.43-6.44L250.43-6.44Q251.38-6.78 252.36-8.60L252.36-8.60L252.36-8.60Q253.34-10.42 253.34-11.59L253.34-11.59L253.34-11.59Q253.34-12.77 252.45-12.82L252.45-12.82L252.45-12.82Q251.10-12.82 250.54-11.62L250.54-11.62L250.54-11.62Q249.98-10.42 249.98-8.99L249.98-8.99L249.98-8.99Q249.98-7.56 250.43-6.44L250.43-6.44ZM255.25-2.80L255.25-2.80L255.25-2.80Q256.82-2.80 257.85-3.50L257.85-3.50L257.85-3.50Q258.89-4.20 259.81-5.32L259.81-5.32L259.81-5.32Q260.74-6.44 261.27-6.44L261.27-6.44L261.27-6.44Q261.80-6.44 261.80-5.94L261.80-5.94L261.80-5.94Q261.80-5.60 261.58-5.15L261.58-5.15L261.58-5.15Q259.73-2.18 256.98 0.08L256.98 0.08L256.98 0.08Q254.24 2.35 251.16 2.35L251.16 2.35L251.16 2.35Q248.08 2.35 246.71 0.87L246.71 0.87L246.71 0.87Q245.34-0.62 245.34-3.08L245.34-3.08L245.34-3.08Q245.34-7.34 248.53-11.79L248.53-11.79L248.53-11.79Q251.72-16.24 255.14-16.24L255.14-16.24L255.14-16.24Q256.93-16.24 256.93-14.78L256.93-14.78L256.93-14.78Q256.93-12.82 255.70-10.72L255.70-10.72L255.70-10.72Q254.46-8.62 251.16-5.04L251.16-5.04L251.16-5.04Q252.67-2.80 255.25-2.80Z" fill="url(#editing-shiny-gradient2)"></path></g></g><style>text {
  font-size: 64px;
  font-family: Arial Black;
  dominant-baseline: central;
  text-anchor: middle;
}</style></svg>