<svg width="513.7625px" height="148.4px" xmlns="http://www.w3.org/2000/svg" viewBox="-6.881250000000023 0.7999999999999972 513.7625 148.4" style="background: rgba(0, 0, 0, 0);" preserveAspectRatio="xMidYMid"><defs><linearGradient id="editing-shiny-gradient" x1="0.1403300998306744" x2="0.8596699001693255" y1="0.15267081477050137" y2="0.8473291852294986" gradientUnits="objectBoundingBox"><stop offset="0.0" stop-color="#000204"></stop><stop offset="0.5" stop-color="#004459"></stop><stop offset="1.0" stop-color="#0061b4"></stop></linearGradient><linearGradient id="editing-shiny-gradient2" x1="0" x2="0" y1="0" y2="1"><stop offset="0.2" stop-color="#fff" stop-opacity="0.8"></stop><stop offset="0.8" stop-color="#fff" stop-opacity="0"></stop></linearGradient><filter id="editing-shiny2" x="-100%" y="-100%" width="300%" height="300%"><feMorphology operator="erode" radius="2"></feMorphology></filter><filter id="editing-shiny" x="-100%" y="-100%" width="300%" height="300%"><feFlood flood-color="#fff" result="flood"></feFlood><feConvolveMatrix in="SourceGraphic" result="conv" order="8,8" divisor="1" kernelMatrix="0 0 0 0 0 0 0 0 0 0 0 1 1 0 0 0 0 0 0 1 1 0 0 0 0 0 1 0 0 1 0 0 0 0 1 0 0 1 0 0 0 1 0 0 0 0 1 0 0 1 1 0 0 1 1 0 0 0 0 1 1 0 0 0 "></feConvolveMatrix><feOffset dx="0" dy="4" in="conv" result="offset"></feOffset><feComposite operator="in" in="flood" in2="offset" result="comp"></feComposite><feGaussianBlur in="offset" stdDeviation="3" result="shadow"></feGaussianBlur><feColorMatrix in="shadow" type="matrix" values="0.7 0 0 0 0  0 0.7 0 0 0  0 0 0.7 0 0  0 0 0 0.3 0" result="dark-shadow"></feColorMatrix><feOffset dx="0" dy="4" in="dark-shadow" result="offset-shadow"></feOffset><feOffset dx="0" dy="2" in="conv" result="offset-2"></feOffset><feComposite operator="out" in="offset" in2="offset-2" result="edge-diff"></feComposite><feGaussianBlur in="edge-diff" stdDeviation="1" result="edge-blur"></feGaussianBlur><feColorMatrix in="edge-blur" result="edge-shadow" type="matrix" values="0 0 0 0 0  0 0 0 0 0  0 0 0 0 0  0 0 0 0.5 0"></feColorMatrix><feComposite operator="in" in="edge-shadow" in2="offset" result="edge-shadow-in"></feComposite><feOffset dx="0" dy="1" in="edge-shadow-in" result="edge-shadow-final"></feOffset><feMerge result="out"><feMergeNode in="offset-shadow"></feMergeNode><feMergeNode in="comp"></feMergeNode><feMergeNode in="edge-shadow-final"></feMergeNode><feMergeNode in="SourceGraphic"></feMergeNode></feMerge></filter></defs><g filter="url(#editing-shiny)"><g transform="translate(69.58499026298523, 110.38999938964844)"><path d="M25.92-13.63L25.92-13.63L25.92-13.63Q26.75-10.88 27.62-8.06L27.62-8.06L27.62-8.06Q28.48-5.25 29.73-2.85L29.73-2.85L29.73-2.85Q30.98-0.45 32.86 1.31L32.86 1.31L32.86 1.31Q34.75 3.07 37.63 3.65L37.63 3.65L37.63 3.65Q34.88 3.46 32.93 1.86L32.93 1.86L32.93 1.86Q30.98 0.26 29.63-2.08L29.63-2.08L29.63-2.08Q28.29-4.42 27.46-7.10L27.46-7.10L27.46-7.10Q26.62-9.79 26.24-12.03L26.24-12.03L26.24-12.03Q26.05-10.50 25.63-8.64L25.63-8.64L25.63-8.64Q25.22-6.78 24.58-4.96L24.58-4.96L24.58-4.96Q23.94-3.14 23.07-1.50L23.07-1.50L23.07-1.50Q22.21 0.13 21.06 1.28L21.06 1.28L15.62 2.24L15.62 2.24Q12.86 0.70 10.78-2.14L10.78-2.14L10.78-2.14Q8.70-4.99 7.14-8.61L7.14-8.61L7.14-8.61Q5.57-12.22 4.51-16.35L4.51-16.35L4.51-16.35Q3.46-20.48 2.75-24.51L2.75-24.51L2.75-24.51Q2.05-28.54 1.70-32.29L1.70-32.29L1.70-32.29Q1.34-36.03 1.28-38.85L1.28-38.85L2.88-39.04L2.88-39.04Q3.20-38.85 3.42-38.11L3.42-38.11L3.42-38.11Q3.65-37.38 3.78-36.48L3.78-36.48L3.78-36.48Q3.90-35.58 3.97-34.75L3.97-34.75L3.97-34.75Q4.03-33.92 4.03-33.60L4.03-33.60L4.61-33.79L4.61-33.79Q4.61-34.30 4.67-35.68L4.67-35.68L4.67-35.68Q4.74-37.06 4.99-38.50L4.99-38.50L4.99-38.50Q5.25-39.94 5.73-41.02L5.73-41.02L5.73-41.02Q6.21-42.11 6.98-42.11L6.98-42.11L6.98-42.11Q7.36-42.11 7.78-40.13L7.78-40.13L7.78-40.13Q8.19-38.14 8.77-34.98L8.77-34.98L8.77-34.98Q9.34-31.81 10.05-27.81L10.05-27.81L10.05-27.81Q10.75-23.81 11.74-19.81L11.74-19.81L11.74-19.81Q12.74-15.81 14.02-12.13L14.02-12.13L14.02-12.13Q15.30-8.45 16.96-5.95L16.96-5.95L16.96-5.95Q17.54-8.77 18.46-12.06L18.46-12.06L18.46-12.06Q19.39-15.36 20.29-18.21L20.29-18.21L20.29-18.21Q21.18-21.06 21.86-22.98L21.86-22.98L21.86-22.98Q22.53-24.90 22.66-24.96L22.66-24.96L29.50-25.15L29.50-25.15Q30.34-24.58 31.04-23.07L31.04-23.07L31.04-23.07Q31.74-21.57 32.38-19.58L32.38-19.58L32.38-19.58Q33.02-17.60 33.60-15.33L33.60-15.33L33.60-15.33Q34.18-13.06 34.82-10.91L34.82-10.91L34.82-10.91Q35.46-8.77 36.16-6.94L36.16-6.94L36.16-6.94Q36.86-5.12 37.70-4.03L37.70-4.03L38.27-3.97L38.27-3.97Q39.23-3.97 40.22-5.18L40.22-5.18L40.22-5.18Q41.22-6.40 42.21-8.29L42.21-8.29L42.21-8.29Q43.20-10.18 44.10-12.45L44.10-12.45L44.10-12.45Q44.99-14.72 45.73-16.86L45.73-16.86L45.73-16.86Q46.46-19.01 46.98-20.77L46.98-20.77L46.98-20.77Q47.49-22.53 47.74-23.36L47.74-23.36L47.74-23.36Q48-24.32 48.29-26.02L48.29-26.02L48.29-26.02Q48.58-27.71 48.90-29.70L48.90-29.70L48.90-29.70Q49.22-31.68 49.57-33.70L49.57-33.70L49.57-33.70Q49.92-35.71 50.30-37.34L50.30-37.34L50.30-37.34Q50.69-38.98 51.14-40.03L51.14-40.03L51.14-40.03Q51.58-41.09 52.10-41.09L52.10-41.09L52.42-41.02L52.42-41.02Q50.50-28.67 46.91-16.70L46.91-16.70L46.91-16.70Q48.90-22.59 50.21-28.61L50.21-28.61L50.21-28.61Q51.52-34.62 52.80-40.64L52.80-40.64L53.31-40.13L53.31-40.13Q53.38-40.58 53.70-41.76L53.70-41.76L53.70-41.76Q54.02-42.94 54.43-44.19L54.43-44.19L54.43-44.19Q54.85-45.44 55.36-46.40L55.36-46.40L55.36-46.40Q55.87-47.36 56.38-47.36L56.38-47.36L56.38-47.36Q56.77-47.36 57.06-46.72L57.06-46.72L57.06-46.72Q57.34-46.08 57.47-45.25L57.47-45.25L57.47-45.25Q57.60-44.42 57.66-43.62L57.66-43.62L57.66-43.62Q57.73-42.82 57.73-42.56L57.73-42.56L57.73-42.56Q57.73-42.37 57.54-41.73L57.54-41.73L57.54-41.73Q57.34-41.09 57.28-40.83L57.28-40.83L57.28-40.83Q56.77-38.66 56.03-34.82L56.03-34.82L56.03-34.82Q55.30-30.98 54.27-26.40L54.27-26.40L54.27-26.40Q53.25-21.82 51.84-17.09L51.84-17.09L51.84-17.09Q50.56-12.54 48.90-8.70L48.90-8.70L48.90-8.70Q50.62-12.54 52.03-17.02L52.03-17.02L52.03-17.02Q53.50-21.76 54.62-26.27L54.62-26.27L54.62-26.27Q55.74-30.78 56.58-34.62L56.58-34.62L56.58-34.62Q57.41-38.46 57.92-40.64L57.92-40.64L57.92-40.64Q57.92-37.38 57.41-33.89L57.41-33.89L57.41-33.89Q56.90-30.40 56.06-26.88L56.06-26.88L56.06-26.88Q55.23-23.36 54.21-19.90L54.21-19.90L54.21-19.90Q53.18-16.45 52.22-13.38L52.22-13.38L51.26-12.99L51.26-12.99Q50.69-10.94 49.66-8.13L49.66-8.13L49.66-8.13Q48.64-5.31 47.07-2.78L47.07-2.78L47.07-2.78Q45.50-0.26 43.42 1.50L43.42 1.50L43.42 1.50Q41.34 3.26 38.72 3.26L38.72 3.26L38.72 3.26Q36.74 3.26 35.17 2.40L35.17 2.40L35.17 2.40Q33.60 1.54 32.35 0.10L32.35 0.10L32.35 0.10Q31.10-1.34 30.18-3.20L30.18-3.20L30.18-3.20Q29.25-5.06 28.51-7.04L28.51-7.04L28.51-7.04Q27.78-9.02 27.20-11.04L27.20-11.04L27.20-11.04Q26.62-13.06 26.18-14.72L26.18-14.72L26.18-14.72Q26.05-14.27 25.92-13.63ZM38.27 2.18L38.27 2.18L38.27 2.18Q40.26 2.18 42.02 0.93L42.02 0.93L42.02 0.93Q43.78-0.32 45.31-2.43L45.31-2.43L45.31-2.43Q43.65-0.77 41.98 0.45L41.98 0.45L41.98 0.45Q40.32 1.66 38.27 1.66L38.27 1.66L38.27 1.66Q36.61 1.66 35.23 0.74L35.23 0.74L35.23 0.74Q33.86-0.19 32.74-1.70L32.74-1.70L32.74-1.70Q31.62-3.20 30.75-5.09L30.75-5.09L30.75-5.09Q29.89-6.98 29.18-8.83L29.18-8.83L29.18-8.83Q28.48-10.69 27.97-12.38L27.97-12.38L27.97-12.38Q27.46-14.08 27.07-15.23L27.07-15.23L27.07-15.23Q27.33-13.70 27.81-11.81L27.81-11.81L27.81-11.81Q28.29-9.92 28.93-8L28.93-8L28.93-8Q29.57-6.08 30.43-4.26L30.43-4.26L30.43-4.26Q31.30-2.43 32.45-0.99L32.45-0.99L32.45-0.99Q33.60 0.45 35.04 1.31L35.04 1.31L35.04 1.31Q36.48 2.18 38.27 2.18ZM38.98 3.58L38.98 3.58L38.98 3.58Q41.15 3.20 42.94 1.95L42.94 1.95L42.94 1.95Q44.74 0.70 46.18-1.02L46.18-1.02L46.18-1.02Q47.62-2.75 48.64-4.80L48.64-4.80L48.64-4.80Q49.22-5.89 49.73-6.98L49.73-6.98L49.73-6.98Q49.28-5.82 48.70-4.61L48.70-4.61L48.70-4.61Q47.68-2.43 46.27-0.61L46.27-0.61L46.27-0.61Q44.86 1.22 43.04 2.40L43.04 2.40L43.04 2.40Q41.22 3.58 38.98 3.58ZM37.63-2.75L37.63-2.75L37.63-2.75Q36.86-2.94 36.10-3.97L36.10-3.97L36.10-3.97Q35.39-4.99 35.01-6.08L35.01-6.08L35.01-6.08Q35.20-5.50 35.46-4.86L35.46-4.86L35.46-4.86Q35.78-4.22 36.19-3.65L36.19-3.65L36.19-3.65Q36.61-3.07 37.12-2.72L37.12-2.72L37.12-2.72Q37.63-2.37 38.27-2.37L38.27-2.37L38.27-2.37Q39.30-2.37 40.29-3.30L40.29-3.30L40.29-3.30Q41.28-4.22 42.14-5.57L42.14-5.57L42.14-5.57Q43.01-6.91 43.71-8.42L43.71-8.42L43.71-8.42Q44.42-9.92 44.93-11.14L44.93-11.14L44.93-11.14Q44.42-9.98 43.68-8.48L43.68-8.48L43.68-8.48Q42.94-6.98 42.08-5.70L42.08-5.70L42.08-5.70Q41.22-4.42 40.22-3.52L40.22-3.52L40.22-3.52Q39.23-2.62 38.27-2.62L38.27-2.62L38.27-2.62Q38.02-2.62 37.63-2.75ZM25.41-10.69L25.79-10.69L25.79-10.69Q25.86-11.14 25.92-11.55L25.92-11.55L25.92-11.55Q25.98-11.97 26.11-12.42L26.11-12.42L25.86-13.18L25.86-13.18Q25.73-12.54 25.63-11.94L25.63-11.94L25.63-11.94Q25.54-11.33 25.41-10.69L25.41-10.69ZM49.98-7.62L49.98-7.62L49.98-7.62Q49.86-7.30 49.73-6.98L49.73-6.98L49.73-6.98Q49.86-7.36 49.98-7.62ZM50.24-8.19L50.24-8.19L50.24-8.19Q50.11-7.87 49.98-7.62L49.98-7.62L49.98-7.62Q50.11-7.94 50.24-8.19ZM50.43-8.64L50.43-8.64L50.43-8.64Q50.30-8.45 50.24-8.19L50.24-8.19L50.24-8.19Q50.30-8.45 50.43-8.64ZM84.42 1.15L84.42 1.15L84.42 1.15Q81.98 1.98 80.70 2.08L80.70 2.08L80.70 2.08Q79.42 2.18 78.46 2.24L78.46 2.24L78.46 2.24Q74.88 2.24 72 0.90L72 0.90L72 0.90Q69.12-0.45 67.07-2.75L67.07-2.75L67.07-2.75Q65.02-5.06 63.90-8.16L63.90-8.16L63.90-8.16Q62.78-11.26 62.78-14.78L62.78-14.78L62.78-14.78Q62.78-16.83 63.17-19.04L63.17-19.04L63.17-19.04Q63.55-21.25 64.32-23.39L64.32-23.39L64.32-23.39Q65.09-25.54 66.30-27.39L66.30-27.39L66.30-27.39Q67.46-29.25 69.06-30.72L69.06-30.72L69.06-30.72Q67.39-29.38 66.24-27.52L66.24-27.52L66.24-27.52Q65.02-25.66 64.19-23.52L64.19-23.52L64.19-23.52Q63.36-21.38 62.98-19.10L62.98-19.10L62.98-19.10Q62.59-16.83 62.59-14.72L62.59-14.72L62.59-14.72Q62.59-12.03 63.46-8.99L63.46-8.99L63.46-8.99Q64.32-5.95 66.24-3.36L66.24-3.36L66.24-3.36Q68.16-0.77 71.20 0.96L71.20 0.96L71.20 0.96Q74.24 2.69 78.59 2.69L78.59 2.69L78.59 2.69Q80.64 2.69 82.88 2.11L82.88 2.11L82.88 2.11Q80.45 3.71 77.44 3.71L77.44 3.71L77.44 3.71Q75.01 3.71 72.86 2.98L72.86 2.98L72.86 2.98Q70.72 2.24 68.90 0.93L68.90 0.93L68.90 0.93Q67.07-0.38 65.60-2.18L65.60-2.18L65.60-2.18Q64.13-3.97 63.10-6.02L63.10-6.02L63.68-6.53L63.68-6.53Q62.59-8.70 62.11-10.88L62.11-10.88L62.11-10.88Q61.63-13.06 61.63-15.30L61.63-15.30L61.63-15.30Q61.63-18.56 62.56-21.57L62.56-21.57L62.56-21.57Q63.49-24.58 65.02-27.26L65.02-27.26L66.56-29.38L66.56-29.38Q66.94-30.08 67.68-30.78L67.68-30.78L67.68-30.78Q68.42-31.49 69.31-32.16L69.31-32.16L69.31-32.16Q70.21-32.83 71.20-33.38L71.20-33.38L71.20-33.38Q72.19-33.92 73.09-34.37L73.09-34.37L73.09-34.37Q75.39-35.52 77.70-36.45L77.70-36.45L77.70-36.45Q80-37.38 83.07-37.82L83.07-37.82L82.82-38.02L82.82-38.02Q76.93-37.44 72.83-35.17L72.83-35.17L72.83-35.17Q68.74-32.90 66.18-29.63L66.18-29.63L66.18-29.63Q63.62-26.37 62.46-22.50L62.46-22.50L62.46-22.50Q61.31-18.62 61.31-14.91L61.31-14.91L61.31-14.91Q61.31-12.93 61.66-10.91L61.66-10.91L61.66-10.91Q62.02-8.90 62.72-6.91L62.72-6.91L62.72-6.91Q61.12-10.75 61.12-15.04L61.12-15.04L61.12-15.04Q61.12-19.26 62.53-23.42L62.53-23.42L62.53-23.42Q63.94-27.58 66.94-31.10L66.94-31.10L66.94-31.10Q70.78-34.62 75.33-36.51L75.33-36.51L75.33-36.51Q79.87-38.40 84.10-38.40L84.10-38.40L84.10-38.40Q85.44-38.40 86.85-37.95L86.85-37.95L86.85-37.95Q88.26-37.50 89.41-36.58L89.41-36.58L89.41-36.58Q90.56-35.65 91.30-34.18L91.30-34.18L91.30-34.18Q92.03-32.70 92.03-30.59L92.03-30.59L92.03-30.59Q92.03-28.86 91.20-26.37L91.20-26.37L91.20-26.37Q90.37-23.87 88.74-21.54L88.74-21.54L88.74-21.54Q87.10-19.20 84.67-17.57L84.67-17.57L84.67-17.57Q82.24-15.94 79.04-15.94L79.04-15.94L76.93-15.94L76.93-15.94Q74.56-16.45 72.61-17.12L72.61-17.12L72.61-17.12Q70.66-17.79 68.93-18.18L68.93-18.18L68.93-18.18Q68.67-17.15 68.64-16.22L68.64-16.22L68.64-16.22Q68.61-15.30 68.61-14.40L68.61-14.40L68.61-14.40Q68.61-12.54 69.02-10.78L69.02-10.78L69.02-10.78Q69.44-9.02 70.34-7.55L70.34-7.55L70.34-7.55Q71.23-6.08 72.61-5.09L72.61-5.09L72.61-5.09Q73.98-4.10 75.97-3.84L75.97-3.84L75.97-3.84Q77.18-3.58 78.08-3.55L78.08-3.55L78.08-3.55Q78.98-3.52 79.58-3.49L79.58-3.49L79.58-3.49Q80.19-3.46 80.48-3.30L80.48-3.30L80.48-3.30Q80.77-3.14 80.77-2.69L80.77-2.69L80.77-2.69Q80.13-2.50 79.46-2.43L79.46-2.43L79.46-2.43Q78.78-2.37 78.08-2.37L78.08-2.37L78.08-2.37Q75.84-2.37 74.05-3.10L74.05-3.10L74.05-3.10Q72.26-3.84 70.98-4.80L70.98-4.80L70.98-4.80Q72.45-3.33 74.50-2.72L74.50-2.72L74.50-2.72Q76.54-2.11 78.53-2.11L78.53-2.11L78.53-2.11Q79.62-2.11 80.77-2.30L80.77-2.30L80.77-2.30Q80.64-1.92 80.64-1.86L80.64-1.86L80.64-1.86Q80.64-1.47 80.96-1.34L80.96-1.34L80.96-1.34Q81.22-1.41 81.86-1.70L81.86-1.70L81.86-1.70Q82.50-1.98 83.17-2.27L83.17-2.27L83.17-2.27Q83.84-2.56 84.48-2.78L84.48-2.78L84.48-2.78Q85.12-3.01 85.38-3.01L85.38-3.01L85.38-3.01Q85.70-3.01 85.95-2.91L85.95-2.91L85.95-2.91Q86.21-2.82 86.21-2.18L86.21-2.18L86.21-2.18Q86.21-1.54 85.76-0.64L85.76-0.64L85.76-0.64Q85.31 0.26 84.42 1.15ZM75.58-24.19L75.58-24.19L76.99-23.94L76.99-23.94Q77.70-23.81 78.27-23.81L78.27-23.81L78.27-23.81Q78.91-23.81 79.78-24.22L79.78-24.22L79.78-24.22Q80.64-24.64 81.50-25.41L81.50-25.41L81.50-25.41Q82.37-26.18 83.04-27.33L83.04-27.33L83.04-27.33Q83.71-28.48 84.03-29.95L84.03-29.95L84.16-30.34L84.16-30.34Q83.26-30.34 81.47-29.89L81.47-29.89L81.47-29.89Q79.68-29.44 77.76-28.70L77.76-28.70L77.76-28.70Q75.84-27.97 74.18-26.98L74.18-26.98L74.18-26.98Q72.51-25.98 71.87-24.83L71.87-24.83L71.87-24.83Q72.83-24.64 73.76-24.48L73.76-24.48L73.76-24.48Q74.69-24.32 75.58-24.19ZM69.50-20.42L72.64-19.46L72.64-19.46Q72.77-19.58 72.80-19.84L72.80-19.84L72.80-19.84Q72.83-20.10 72.83-20.22L72.83-20.22L69.82-21.31L69.50-20.42ZM70.85-4.93L70.85-4.93L70.85-4.93Q70.40-5.44 69.95-5.95L69.95-5.95L69.95-5.95Q69.57-6.40 69.31-6.85L69.31-6.85L69.31-6.85Q69.89-5.76 70.85-4.93ZM109.89-32.26L109.89-32.26L110.98-32.26L110.98-32.26Q114.69-32.26 118.34-30.94L118.34-30.94L118.34-30.94Q121.98-29.63 124.86-27.26L124.86-27.26L124.86-27.26Q127.74-24.90 129.50-21.60L129.50-21.60L129.50-21.60Q131.26-18.30 131.26-14.40L131.26-14.40L131.26-14.40Q131.26-10.24 130.11-7.46L130.11-7.46L130.11-7.46Q128.96-4.67 126.85-2.88L126.85-2.88L126.85-2.88Q124.74-1.09 121.79-0.10L121.79-0.10L121.79-0.10Q118.85 0.90 115.26 1.54L115.26 1.54L115.26 1.54Q117.50 1.34 120.29 0.70L120.29 0.70L120.29 0.70Q123.07 0.06 125.54-1.57L125.54-1.57L125.54-1.57Q128-3.20 129.66-6.11L129.66-6.11L129.66-6.11Q131.33-9.02 131.33-13.76L131.33-13.76L131.33-13.76Q131.33-19.58 128.06-24.26L128.06-24.26L128.06-24.26Q124.80-28.93 118.34-31.30L118.34-31.30L118.34-31.30Q116.74-32 115.04-32.42L115.04-32.42L115.04-32.42Q113.34-32.83 111.62-32.83L111.62-32.83L111.62-32.83Q112.19-33.15 113.15-33.18L113.15-33.18L113.15-33.18Q114.11-33.22 114.69-33.22L114.69-33.22L114.69-33.22Q117.18-33.22 119.84-32.19L119.84-32.19L119.84-32.19Q122.50-31.17 124.86-29.38L124.86-29.38L124.86-29.38Q127.23-27.58 129.06-25.18L129.06-25.18L129.06-25.18Q130.88-22.78 131.78-20.10L131.78-20.10L131.78-20.10Q131.46-19.97 131.20-19.58L131.20-19.58L131.20-19.58Q131.71-17.98 131.97-16.45L131.97-16.45L131.97-16.45Q132.22-14.91 132.22-13.31L132.22-13.31L132.22-13.31Q132.22-11.52 131.94-9.73L131.94-9.73L131.94-9.73Q131.65-7.94 130.78-6.21L130.78-6.21L130.78-6.21Q129.92-4.48 128.35-2.94L128.35-2.94L128.35-2.94Q126.78-1.41 124.22-0.19L124.22-0.19L124.22-0.19Q121.66 1.02 117.95 1.82L117.95 1.82L117.95 1.82Q114.24 2.62 109.12 2.88L109.12 2.88L109.12 2.88Q108.80 3.07 108.22 3.10L108.22 3.10L108.22 3.10Q107.65 3.14 107.07 3.14L107.07 3.14L106.18 3.14L106.18 3.14Q105.22 3.14 104.19 2.78L104.19 2.78L104.19 2.78Q103.17 2.43 102.34 1.57L102.34 1.57L102.34 1.57Q101.50 0.70 100.99-0.74L100.99-0.74L100.99-0.74Q100.48-2.18 100.48-4.35L100.48-4.35L100.48-5.06L100.48-5.06Q100.42-4.80 100.29-4.80L100.29-4.80L100.29-4.80Q100.10-4.80 100.10-4.93L100.10-4.93L100.10-4.61L100.10-4.61Q100.10-3.46 100.22-2.02L100.22-2.02L100.22-2.02Q100.35-0.58 100.96 0.70L100.96 0.70L100.96 0.70Q101.57 1.98 102.88 2.85L102.88 2.85L102.88 2.85Q104.19 3.71 106.62 3.71L106.62 3.71L106.62 3.71Q107.20 3.71 107.81 3.68L107.81 3.68L107.81 3.68Q108.42 3.65 109.12 3.46L109.12 3.46L109.12 3.46Q113.79 3.26 118.05 2.43L118.05 2.43L118.05 2.43Q122.30 1.60 125.57-0.29L125.57-0.29L125.57-0.29Q128.83-2.18 130.75-5.44L130.75-5.44L130.75-5.44Q132.67-8.70 132.67-13.82L132.67-13.82L132.67-13.82Q132.67-15.49 132.42-17.22L132.42-17.22L132.42-17.22Q132.48-16.51 132.61-15.87L132.61-15.87L132.61-15.87Q132.74-14.85 132.74-13.82L132.74-13.82L132.74-13.82Q132.74-12.42 132.58-10.62L132.58-10.62L132.58-10.62Q132.42-8.83 131.74-6.98L131.74-6.98L131.74-6.98Q131.07-5.12 129.79-3.33L129.79-3.33L129.79-3.33Q128.51-1.54 126.21-0.19L126.21-0.19L126.21-0.19Q123.84 1.22 121.31 2.02L121.31 2.02L121.31 2.02Q118.78 2.82 116.51 3.23L116.51 3.23L116.51 3.23Q114.24 3.65 112.42 3.74L112.42 3.74L112.42 3.74Q110.59 3.84 109.70 3.84L109.70 3.84L108.93 3.84L108.93 3.84Q108.35 3.84 107.74 3.94L107.74 3.94L107.74 3.94Q107.14 4.03 106.43 4.03L106.43 4.03L106.11 4.03L106.11 4.03Q105.54 4.03 104.67 3.90L104.67 3.90L104.67 3.90Q103.81 3.78 102.88 3.26L102.88 3.26L102.88 3.26Q101.95 2.75 101.18 1.63L101.18 1.63L101.18 1.63Q100.42 0.51 100.10-1.54L100.10-1.54L100.10-1.54Q99.97-2.24 99.90-2.94L99.90-2.94L99.90-2.94Q99.84-3.65 99.71-4.22L99.71-4.22L99.71-4.22Q99.71-5.50 99.90-6.62L99.90-6.62L99.90-6.62Q100.10-7.74 100.10-8.45L100.10-8.45L100.10-20.16L97.79-32.26L97.79-32.26Q97.86-33.54 97.95-35.07L97.95-35.07L97.95-35.07Q98.05-36.61 98.14-38.24L98.14-38.24L98.14-38.24Q98.24-39.87 98.30-41.47L98.30-41.47L98.30-41.47Q98.37-43.07 98.37-44.54L98.37-44.54L98.37-44.54Q98.37-45.06 98.34-45.54L98.34-45.54L98.34-45.54Q98.30-46.02 98.30-46.46L98.30-46.46L98.30-46.46Q98.50-46.27 98.69-46.27L98.69-46.27L98.69-46.27Q98.94-46.27 99.23-46.43L99.23-46.43L99.23-46.43Q99.52-46.59 99.78-46.59L99.78-46.59L99.78-46.59Q99.97-46.59 100.16-46.40L100.16-46.40L100.16-46.40Q100.35-46.21 100.51-45.70L100.51-45.70L100.51-45.70Q100.67-45.18 100.74-44.19L100.74-44.19L100.74-44.19Q100.80-43.20 100.80-41.66L100.80-41.66L101.38-41.66L101.38-41.66Q101.63-45.18 102.30-47.17L102.30-47.17L102.30-47.17Q102.98-49.15 103.68-49.15L103.68-49.15L103.68-49.15Q104.51-49.15 104.90-47.10L104.90-47.10L104.90-47.10Q105.28-45.06 105.44-41.95L105.44-41.95L105.44-41.95Q105.60-38.85 105.73-35.17L105.73-35.17L105.73-35.17Q105.86-31.49 106.24-28.22L106.24-28.22L106.24-28.22Q106.94-24.45 107.39-20.19L107.39-20.19L107.39-20.19Q107.84-15.94 107.97-11.90L107.97-11.90L107.97-11.90Q107.97-8.90 107.90-7.62L107.90-7.62L107.90-7.62Q107.84-6.34 107.71-5.76L107.71-5.76L107.71-4.03L109.89-4.22L109.89-4.22Q111.94-4.22 114.11-4.45L114.11-4.45L114.11-4.45Q116.29-4.67 117.76-5.18L117.76-5.18L117.76-5.18Q120.45-5.63 121.95-6.50L121.95-6.50L121.95-6.50Q123.46-7.36 124.22-8.38L124.22-8.38L124.22-8.38Q124.99-9.41 125.18-10.56L125.18-10.56L125.18-10.56Q125.38-11.71 125.38-12.74L125.38-12.74L125.38-12.74Q125.38-14.72 125.09-16.54L125.09-16.54L125.09-16.54Q124.80-18.37 123.97-19.94L123.97-19.94L123.97-19.94Q123.14-21.50 121.54-22.82L121.54-22.82L121.54-22.82Q119.94-24.13 117.38-25.15L117.38-25.15L117.38-25.15Q114.56-26.24 113.31-26.43L113.31-26.43L113.31-26.43Q112.06-26.62 112.06-27.20L112.06-27.20L112.06-27.20Q112.06-27.26 112.19-27.65L112.19-27.65L112.19-27.65Q114.88-27.52 117.57-26.37L117.57-26.37L117.57-26.37Q120.06-25.28 122.11-23.62L122.11-23.62L122.11-23.62Q120.13-25.28 117.70-26.37L117.70-26.37L117.70-26.37Q115.07-27.58 112.38-27.84L112.38-27.84L112.38-27.84Q112.58-28.10 112.58-28.48L112.58-28.48L112.58-28.48Q112.58-28.67 112.38-28.99L112.38-28.99L111.30-28.99L111.30-28.99Q110.85-28.99 110.34-28.93L110.34-28.93L110.34-28.93Q109.82-28.86 109.50-28.80L109.50-28.80L109.50-28.80Q107.97-28.93 107.36-29.25L107.36-29.25L107.36-29.25Q106.75-29.57 106.75-30.02L106.75-30.02L106.75-30.02Q106.75-30.66 107.81-31.30L107.81-31.30L107.81-31.30Q108.86-31.94 109.89-32.26ZM126.72-13.95L126.72-13.95L126.72-13.95Q126.72-11.01 126.02-9.15L126.02-9.15L126.02-9.15Q125.31-7.30 124.03-6.27L124.03-6.27L124.03-6.27Q125.70-7.42 126.24-9.22L126.24-9.22L126.24-9.22Q126.78-11.01 126.78-13.76L126.78-13.76L126.78-13.76Q126.78-14.21 126.72-14.59L126.72-14.59L126.72-14.59Q126.72-14.91 126.66-15.30L126.66-15.30L126.66-15.30Q126.66-14.91 126.66-14.59L126.66-14.59L126.66-14.59Q126.72-14.27 126.72-13.95ZM132.35-17.73L132.29-17.98L132.35-17.73ZM122.30-23.42L122.30-23.42L122.30-23.42Q122.18-23.49 122.11-23.62L122.11-23.62L122.11-23.62Q122.24-23.55 122.30-23.42ZM132.35-17.66L132.35-17.66L132.35-17.66Q132.35-17.54 132.35-17.47L132.35-17.47L132.35-17.47Q132.35-17.54 132.35-17.66ZM173.06-12.86L173.06-12.86L173.06-11.52L173.06-11.52Q173.06-10.43 173.09-9.38L173.09-9.38L173.09-9.38Q173.12-8.32 173.38-7.42L173.38-7.42L173.38-7.42Q173.06-4.29 172.90-1.15L172.90-1.15L172.90-1.15Q172.74 1.98 172.74 5.12L172.74 5.12L171.33 5.18L171.33 5.18Q171.01 5.18 170.85 4.77L170.85 4.77L170.85 4.77Q170.69 4.35 170.59 3.74L170.59 3.74L170.59 3.74Q170.50 3.14 170.46 2.43L170.46 2.43L170.46 2.43Q170.43 1.73 170.43 1.15L170.43 1.15L170.43-0.13L169.79-0.13L169.79-0.13Q169.79 0.26 169.60 1.54L169.60 1.54L169.60 1.54Q169.41 2.82 169.12 4.22L169.12 4.22L169.12 4.22Q168.83 5.63 168.38 6.75L168.38 6.75L168.38 6.75Q167.94 7.87 167.36 7.87L167.36 7.87L167.36 7.87Q166.91 7.87 166.59 7.01L166.59 7.01L166.59 7.01Q166.27 6.14 166.08 5.06L166.08 5.06L166.08 5.06Q165.89 3.97 165.76 2.98L165.76 2.98L165.76 2.98Q165.63 1.98 165.63 1.66L165.63 1.66L165.63 1.66Q165.06-3.97 165.06-9.63L165.06-9.63L165.06-9.63Q165.06-15.30 164.54-20.93L164.54-20.93L164.54-20.93Q164.35-22.85 163.97-24.67L163.97-24.67L163.97-24.67Q163.58-26.50 163.17-28.35L163.17-28.35L163.17-28.35Q162.75-30.21 162.46-32.06L162.46-32.06L162.46-32.06Q162.18-33.92 162.18-35.97L162.18-35.97L162.18-35.97Q162.18-38.85 163.65-40.48L163.65-40.48L163.65-40.48Q165.12-42.11 167.33-42.94L167.33-42.94L167.33-42.94Q169.54-43.78 172.10-43.97L172.10-43.97L172.10-43.97Q174.66-44.16 176.83-44.16L176.83-44.16L176.83-44.16Q181.25-44.16 185.50-43.52L185.50-43.52L185.50-43.52Q189.76-42.88 193.09-41.02L193.09-41.02L193.09-41.02Q196.42-39.17 198.43-35.81L198.43-35.81L198.43-35.81Q200.45-32.45 200.45-27.07L200.45-27.07L200.45-27.07Q200.45-22.53 199.07-19.14L199.07-19.14L199.07-19.14Q197.70-15.74 195.20-13.50L195.20-13.50L195.20-13.50Q192.70-11.26 189.15-10.14L189.15-10.14L189.15-10.14Q185.60-9.02 181.25-9.02L181.25-9.02L181.25-9.02Q181.06-9.02 180.42-9.06L180.42-9.06L180.42-9.06Q179.78-9.09 179.07-9.18L179.07-9.18L179.07-9.18Q178.37-9.28 177.82-9.50L177.82-9.50L177.82-9.50Q177.28-9.73 177.28-10.11L177.28-10.11L177.47-10.56L177.47-10.56Q178.56-10.50 179.65-10.46L179.65-10.46L179.65-10.46Q180.74-10.43 181.82-10.43L181.82-10.43L181.82-10.43Q183.74-10.43 185.63-10.62L185.63-10.62L185.63-10.62Q187.52-10.82 189.31-11.39L189.31-11.39L189.31-11.39Q191.10-11.97 192.64-12.99L192.64-12.99L192.64-12.99Q194.05-13.95 195.26-15.42L195.26-15.42L195.26-15.42Q193.98-13.95 192.51-12.99L192.51-12.99L192.51-12.99Q190.91-11.97 189.09-11.46L189.09-11.46L189.09-11.46Q187.26-10.94 185.31-10.78L185.31-10.78L185.31-10.78Q183.36-10.62 181.38-10.62L181.38-10.62L181.38-10.62Q180.48-10.62 179.52-10.66L179.52-10.66L179.52-10.66Q178.56-10.69 177.66-10.75L177.66-10.75L177.60-11.97L177.60-11.97Q177.09-11.90 176.70-11.87L176.70-11.87L176.70-11.87Q176.32-11.84 176-11.84L176-11.84L176-11.84Q175.23-11.84 174.59-12.06L174.59-12.06L174.59-12.06Q173.95-12.29 173.06-12.86ZM178.88-36.86L178.88-36.86L178.88-36.86Q176.70-36.86 174.27-36.70L174.27-36.70L174.27-36.70Q171.84-36.54 169.79-35.84L169.79-35.84L169.47-35.33L169.47-35.33Q171.90-36.03 173.95-36.16L173.95-36.16L173.95-36.16Q176-36.29 177.86-36.29L177.86-36.29L178.11-36.29L178.11-36.29Q180.86-36.29 183.55-36.13L183.55-36.13L183.55-36.13Q186.24-35.97 188.35-35.04L188.35-35.04L188.35-35.04Q190.46-34.11 191.78-32.16L191.78-32.16L191.78-32.16Q193.09-30.21 193.09-26.62L193.09-26.62L193.09-26.62Q193.09-25.54 192.90-24.58L192.90-24.58L192.90-24.58Q192.70-23.62 192.38-22.66L192.38-22.66L192.38-22.66Q192.64-23.55 192.80-24.48L192.80-24.48L192.80-24.48Q192.96-25.41 192.96-26.37L192.96-26.37L192.96-26.37Q192.96-28.80 192.13-30.78L192.13-30.78L192.13-30.78Q191.30-32.77 189.44-34.37L189.44-34.37L188.99-34.62L188.99-34.62Q188.03-35.07 186.59-35.33L186.59-35.33L186.59-35.33Q185.15-35.58 183.55-35.74L183.55-35.74L183.55-35.74Q181.95-35.90 180.32-35.94L180.32-35.94L180.32-35.94Q178.69-35.97 177.28-35.97L177.28-35.97L175.49-35.97L175.49-35.97Q174.34-35.97 172.83-35.78L172.83-35.78L172.83-35.78Q171.33-35.58 170.24-35.26L170.24-35.26L170.24-35.26Q170.24-33.66 170.53-32.10L170.53-32.10L170.53-32.10Q170.82-30.53 171.14-28.99L171.14-28.99L171.84-25.92L171.84-25.92Q172.22-24.38 172.35-22.85L172.35-22.85L172.93-14.85L172.93-14.85Q173.38-15.17 173.92-15.39L173.92-15.39L173.92-15.39Q174.46-15.62 175.36-15.62L175.36-15.62L175.68-15.62L175.68-15.62Q177.09-15.17 178.59-15.10L178.59-15.10L178.59-15.10Q180.10-15.04 181.57-15.04L181.57-15.04L181.57-15.04Q184.64-15.04 187.04-15.62L187.04-15.62L187.04-15.62Q189.44-16.19 191.10-17.57L191.10-17.57L191.10-17.57Q192.77-18.94 193.63-21.22L193.63-21.22L193.63-21.22Q194.50-23.49 194.50-26.82L194.50-26.82L194.50-26.82Q194.50-28.29 194.02-30.05L194.02-30.05L194.02-30.05Q193.54-31.81 192.58-33.34L192.58-33.34L192.58-33.34Q191.62-34.88 190.14-35.90L190.14-35.90L190.14-35.90Q188.74-36.93 186.88-36.99L186.88-36.99L186.88-36.99Q188.67-36.80 190.08-35.84L190.08-35.84L190.08-35.84Q191.49-34.88 192.45-33.41L192.45-33.41L192.45-33.41Q193.41-31.94 193.89-30.18L193.89-30.18L193.89-30.18Q194.37-28.42 194.37-26.75L194.37-26.75L194.37-26.75Q194.37-20.93 191.55-18.18L191.55-18.18L191.55-18.18Q188.74-15.42 182.91-15.42L182.91-15.42L182.91-15.42Q181.50-15.42 180.10-15.55L180.10-15.55L177.28-15.81L177.28-15.81Q179.39-16.32 181.60-16.42L181.60-16.42L181.60-16.42Q183.81-16.51 185.82-16.90L185.82-16.90L185.82-16.90Q187.84-17.28 189.47-18.34L189.47-18.34L189.47-18.34Q191.10-19.39 192.13-21.89L192.13-21.89L192.70-21.70L192.70-21.70Q193.47-23.81 193.47-26.11L193.47-26.11L193.47-26.11Q193.47-29.63 192.29-31.74L192.29-31.74L192.29-31.74Q191.10-33.86 189.12-35.01L189.12-35.01L189.12-35.01Q187.14-36.16 184.48-36.51L184.48-36.51L184.48-36.51Q181.82-36.86 178.88-36.86ZM199.17-27.20L199.17-27.20L199.17-27.20Q199.17-29.82 198.46-32.03L198.46-32.03L198.46-32.03Q197.76-34.24 196.29-36.35L196.29-36.35L196.29-36.35Q197.63-34.24 198.30-31.84L198.30-31.84L198.30-31.84Q198.98-29.44 198.98-26.94L198.98-26.94L198.98-26.94Q198.98-22.91 197.38-19.20L197.38-19.20L197.38-19.20Q198.21-20.99 198.66-22.98L198.66-22.98L198.66-22.98Q199.17-25.09 199.17-27.20ZM188.42-41.66L188.42-41.66L188.42-41.66Q189.31-41.34 190.18-41.12L190.18-41.12L190.18-41.12Q191.04-40.90 191.94-40.51L191.94-40.51L191.94-40.51Q190.34-41.34 188.42-41.66ZM194.50-38.59L194.50-38.59L194.50-38.59Q194.24-39.10 193.34-39.68L193.34-39.68L193.34-39.68Q192.51-40.19 192-40.45L192-40.45L192-40.45Q192.64-39.94 193.22-39.62L193.22-39.62L193.22-39.62Q193.86-39.23 194.50-38.59ZM227.39-16.77L227.39-16.77L227.39-16.77Q225.66-16.77 224.80-16.83L224.80-16.83L224.80-16.83Q223.94-16.90 223.23-16.90L223.23-16.90L223.23-16.90Q221.31-16.90 219.84-16.70L219.84-16.70L219.84-16.70Q218.37-16.51 217.34-15.94L217.34-15.94L217.34-15.94Q216.32-15.36 215.81-14.27L215.81-14.27L215.81-14.27Q215.30-13.18 215.30-11.39L215.30-11.39L215.30-11.39Q215.30-8.77 215.90-7.52L215.90-7.52L215.90-7.52Q216.51-6.27 217.63-5.73L217.63-5.73L217.63-5.73Q218.75-5.18 220.35-5.06L220.35-5.06L220.35-5.06Q221.95-4.93 223.94-4.48L223.94-4.48L223.94-4.48Q225.09-4.35 226.24-4.32L226.24-4.32L226.24-4.32Q227.39-4.29 228.54-4.29L228.54-4.29L233.15-4.29L233.15-4.29Q229.95-4.48 226.78-4.51L226.78-4.51L226.78-4.51Q223.62-4.54 221.09-5.06L221.09-5.06L221.09-5.06Q218.56-5.57 216.99-6.85L216.99-6.85L216.99-6.85Q215.42-8.13 215.42-10.75L215.42-10.75L215.42-10.75Q215.42-12.86 215.97-13.98L215.97-13.98L215.97-13.98Q216.51-15.10 217.44-15.65L217.44-15.65L217.44-15.65Q218.37-16.19 219.65-16.29L219.65-16.29L219.65-16.29Q220.93-16.38 222.40-16.38L222.40-16.38L222.40-16.38Q224.19-16.38 226.05-16.19L226.05-16.19L226.05-16.19Q224.58-15.74 223.07-15.52L223.07-15.52L223.07-15.52Q221.57-15.30 220.29-15.07L220.29-15.07L220.29-15.07Q219.01-14.85 218.08-14.50L218.08-14.50L218.08-14.50Q217.15-14.14 216.83-13.50L216.83-13.50L216.83-10.62L216.32-10.37L216.32-10.37Q216.58-8.77 216.80-7.97L216.80-7.97L216.80-7.97Q217.02-7.17 218.05-6.75L218.05-6.75L218.05-6.75Q219.07-6.34 221.34-6.08L221.34-6.08L221.34-6.08Q223.62-5.82 227.97-5.25L227.97-5.25L232.58-5.25L232.58-5.25Q233.79-5.25 234.02-5.34L234.02-5.34L234.02-5.34Q234.24-5.44 234.30-5.44L234.30-5.44L233.73-8.90L233.73-8.90Q233.60-10.18 233.41-11.20L233.41-11.20L233.41-11.20Q233.22-12.22 232.90-13.38L232.90-13.38L232.90-13.38Q232.83-13.18 232.51-13.18L232.51-13.18L232.51-13.18Q232.83-12.10 233.06-10.88L233.06-10.88L233.06-10.88Q233.28-9.66 233.44-8.58L233.44-8.58L233.44-8.58Q233.60-7.49 233.70-6.72L233.70-6.72L233.70-6.72Q233.79-5.95 233.92-5.82L233.92-5.82L233.54-5.70L233.54-5.70Q233.41-5.63 233.15-5.63L233.15-5.63L232.77-5.63L232.77-5.63Q232.32-5.63 231.74-5.73L231.74-5.73L231.74-5.73Q231.17-5.82 230.27-5.82L230.27-5.82L228.16-5.82L228.16-5.82Q225.66-5.82 223.55-6.08L223.55-6.08L223.55-6.08Q221.57-6.34 220.10-6.72L220.10-6.72L220.10-6.72Q221.57-6.40 223.68-6.21L223.68-6.21L223.68-6.21Q225.92-5.95 227.84-5.95L227.84-5.95L227.84-5.95Q228.67-5.95 229.60-5.98L229.60-5.98L229.60-5.98Q230.53-6.02 231.62-6.02L231.62-6.02L233.73-6.02L233.73-6.02Q233.54-6.21 233.28-6.21L233.28-6.21L233.15-6.21L233.15-6.21Q232.90-10.62 232.00-14.66L232.00-14.66L232.00-14.66Q231.10-18.69 229.12-21.73L229.12-21.73L229.12-21.73Q227.14-24.77 223.94-26.59L223.94-26.59L223.94-26.59Q220.74-28.42 215.94-28.42L215.94-28.42L215.94-28.42Q214.59-28.42 213.25-28.22L213.25-28.22L213.25-28.22Q211.90-28.03 210.50-27.71L210.50-27.71L210.50-27.71Q210.62-27.84 210.62-27.97L210.62-27.97L210.62-27.97Q210.62-28.29 210.37-28.58L210.37-28.58L210.37-28.58Q210.11-28.86 210.11-29.18L210.11-29.18L210.11-29.18Q210.11-29.57 210.91-29.92L210.91-29.92L210.91-29.92Q211.71-30.27 214.34-30.59L214.34-30.59L214.34-30.59Q214.21-30.72 214.18-30.98L214.18-30.98L214.18-30.98Q214.14-31.23 214.14-31.36L214.14-31.36L214.14-31.36Q210.69-31.36 208.77-31.52L208.77-31.52L208.77-31.52Q206.85-31.68 206.85-32.45L206.85-32.45L206.85-32.45Q206.85-32.77 207.65-33.34L207.65-33.34L207.65-33.34Q208.45-33.92 209.92-34.46L209.92-34.46L209.92-34.46Q211.39-35.01 213.47-35.42L213.47-35.42L213.47-35.42Q215.55-35.84 218.11-35.84L218.11-35.84L218.11-35.84Q223.04-35.84 226.56-34.34L226.56-34.34L226.56-34.34Q230.08-32.83 232.48-30.37L232.48-30.37L232.48-30.37Q234.88-27.90 236.38-24.77L236.38-24.77L236.38-24.77Q237.89-21.63 238.82-18.46L238.82-18.46L238.82-18.46Q239.74-15.30 240.19-12.32L240.19-12.32L240.19-12.32Q240.64-9.34 241.02-7.17L241.02-7.17L241.02-7.17Q241.02-6.78 241.06-6.40L241.06-6.40L241.06-6.40Q241.09-6.02 241.09-5.50L241.09-5.50L241.09-5.50Q241.09-3.65 240.42-2.27L240.42-2.27L240.42-2.27Q239.74-0.90 238.56 0.03L238.56 0.03L238.56 0.03Q237.38 0.96 235.81 1.44L235.81 1.44L235.81 1.44Q234.24 1.92 232.45 1.92L232.45 1.92L232.45 1.92Q231.04 1.92 228.80 1.86L228.80 1.86L228.80 1.86Q226.56 1.79 224.51 1.47L224.51 1.47L224.51 1.47Q223.17 1.15 221.57 0.99L221.57 0.99L221.57 0.99Q219.97 0.83 218.30 0.45L218.30 0.45L218.30 0.45Q216.64 0.06 215.07-0.64L215.07-0.64L215.07-0.64Q213.50-1.34 212.26-2.78L212.26-2.78L212.26-2.78Q211.01-4.22 210.27-6.53L210.27-6.53L210.27-6.53Q209.54-8.83 209.54-12.35L209.54-12.35L209.54-12.35Q209.54-15.68 211.07-17.70L211.07-17.70L211.07-17.70Q212.61-19.71 214.75-20.83L214.75-20.83L214.75-20.83Q216.90-21.95 219.14-22.30L219.14-22.30L219.14-22.30Q221.38-22.66 222.78-22.66L222.78-22.66L222.78-22.66Q224.58-22.66 225.15-22.40L225.15-22.40L225.15-22.40Q225.73-22.14 225.73-21.89L225.73-21.89L225.73-21.89Q225.73-21.70 225.66-21.57L225.66-21.57L225.66-21.57Q224.06-21.57 221.57-21.44L221.57-21.44L221.57-21.44Q219.07-21.31 216.74-20.61L216.74-20.61L216.74-20.61Q214.40-19.90 212.74-18.46L212.74-18.46L212.74-18.46Q211.07-17.02 211.07-14.40L211.07-14.40L211.07-14.40Q211.65-16.77 213.02-18.14L213.02-18.14L213.02-18.14Q214.40-19.52 216.19-20.19L216.19-20.19L216.19-20.19Q217.98-20.86 219.87-21.02L219.87-21.02L219.87-21.02Q221.76-21.18 223.30-21.18L223.30-21.18L225.47-21.18L225.47-21.18Q225.22-20.93 225.22-20.67L225.22-20.67L225.22-20.67Q225.22-20.42 225.47-20.22L225.47-20.22L227.97-20.22L227.97-20.22Q228.99-20.03 229.44-19.55L229.44-19.55L229.44-19.55Q229.89-19.07 229.89-18.69L229.89-18.69L229.89-18.69Q229.89-18.11 229.31-17.66L229.31-17.66L229.31-17.66Q228.74-17.22 227.39-16.77ZM216.64-1.28L216.64-1.28L216.64-1.28Q218.43-0.58 220.32-0.19L220.32-0.19L220.32-0.19Q222.21 0.19 224.06 0.32L224.06 0.32L224.06 0.32Q225.92 0.51 227.52 0.51L227.52 0.51L227.52 0.51Q226.24 0.38 224.96 0.06L224.96 0.06L224.96 0.06Q223.62-0.26 222.59-0.51L222.59-0.51L222.59-0.51Q221.50-0.77 220.45-0.86L220.45-0.86L220.45-0.86Q219.39-0.96 218.27-1.15L218.27-1.15L218.27-1.15Q217.15-1.34 216.00-1.76L216.00-1.76L216.00-1.76Q214.85-2.18 213.70-3.01L213.70-3.01L213.70-3.01Q214.91-1.92 216.64-1.28ZM217.02-8.13L217.28-8L217.28-8Q217.22-8.06 217.66-7.62L217.66-7.62L217.66-7.62Q218.05-7.23 218.69-7.04L218.69-7.04L218.69-7.04Q218.37-7.17 217.73-7.36L217.73-7.36L217.73-7.36Q217.02-7.62 217.02-8.13L217.02-8.13ZM218.88-7.04L218.88-7.04L218.88-7.04Q218.82-7.04 218.69-7.04L218.69-7.04L218.69-7.04Q218.75-7.04 218.88-7.04ZM271.87-23.04L273.66-22.53L273.66-22.66L272.00-23.17L273.09-25.02L280.58-22.72L280.58-22.72Q280.58-20.61 280.80-18.40L280.80-18.40L280.80-18.40Q281.02-16.19 281.31-13.89L281.31-13.89L281.31-13.89Q281.60-11.58 281.82-9.18L281.82-9.18L281.82-9.18Q282.05-6.78 282.05-4.35L282.05-4.35L282.05-4.35Q282.05-1.09 281.47 2.24L281.47 2.24L281.47 2.24Q280.90 5.57 279.58 8.58L279.58 8.58L279.58 8.58Q278.27 11.58 276.13 14.14L276.13 14.14L276.13 14.14Q273.98 16.70 270.78 18.37L270.78 18.37L270.78 18.37Q269.06 19.52 266.34 20.51L266.34 20.51L266.34 20.51Q263.62 21.50 260.99 21.63L260.99 21.63L260.22 21.63L260.22 21.63Q257.66 21.63 255.94 21.09L255.94 21.09L255.94 21.09Q254.21 20.54 253.18 19.87L253.18 19.87L253.18 19.87Q252.16 19.20 251.74 18.59L251.74 18.59L251.74 18.59Q251.33 17.98 251.33 17.86L251.33 17.86L251.33 17.86Q251.33 17.60 251.58 17.60L251.58 17.60L251.58 17.60Q253.57 19.07 255.87 19.71L255.87 19.71L255.87 19.71Q258.18 20.35 260.48 20.35L260.48 20.35L260.48 20.35Q264.38 20.35 267.71 18.82L267.71 18.82L267.71 18.82Q270.91 17.28 273.47 14.98L273.47 14.98L273.47 14.98Q270.91 17.22 267.65 18.69L267.65 18.69L267.65 18.69Q264.32 20.16 260.54 20.16L260.54 20.16L260.54 20.16Q258.30 20.16 256.16 19.52L256.16 19.52L256.16 19.52Q254.02 18.88 252.16 17.41L252.16 17.41L252.16 17.41Q252.35 17.41 252.61 17.31L252.61 17.31L252.61 17.31Q252.86 17.22 252.86 16.96L252.86 16.96L252.35 16.51L252.35 16.51Q251.90 16.06 251.30 15.36L251.30 15.36L251.30 15.36Q250.69 14.66 250.21 13.70L250.21 13.70L250.21 13.70Q249.73 12.74 249.73 11.65L249.73 11.65L249.73 11.65Q249.73 10.56 250.56 10.56L250.56 10.56L250.56 10.56Q251.20 10.56 252.03 11.39L252.03 11.39L252.03 11.39Q252.86 12.22 254.02 13.22L254.02 13.22L254.02 13.22Q255.17 14.21 256.80 15.04L256.80 15.04L256.80 15.04Q258.43 15.87 260.67 15.87L260.67 15.87L260.67 15.87Q263.87 15.87 266.43 14.62L266.43 14.62L266.43 14.62Q268.99 13.38 270.91 11.20L270.91 11.20L270.91 11.20Q269.06 13.25 266.59 14.40L266.59 14.40L266.59 14.40Q264.13 15.55 260.99 15.55L260.99 15.55L260.99 15.55Q259.07 15.55 257.38 14.91L257.38 14.91L257.38 14.91Q255.68 14.27 254.66 13.18L254.66 13.18L254.66 13.18Q255.74 13.50 257.38 13.89L257.38 13.89L257.38 13.89Q259.01 14.27 260.93 14.27L260.93 14.27L260.93 14.27Q264.38 14.27 267.04 12.51L267.04 12.51L267.04 12.51Q269.70 10.75 271.62 8.06L271.62 8.06L272.51 8.19L272.51 8.19Q273.98 5.63 274.59 2.72L274.59 2.72L274.59 2.72Q275.20-0.19 275.20-3.39L275.20-3.39L275.20-3.39Q275.20-5.57 275.01-7.81L275.01-7.81L275.01-7.81Q274.82-10.05 274.50-12.35L274.50-12.35L274.18-11.90L274.18-11.90Q274.50-9.66 274.66-7.52L274.66-7.52L274.66-7.52Q274.82-5.38 274.82-3.33L274.82-3.33L274.82-3.33Q274.82-0.77 274.30 1.76L274.30 1.76L274.30 1.76Q273.79 4.29 272.70 6.40L272.70 6.40L272.70 6.40Q273.79 4.16 274.24 1.63L274.24 1.63L274.24 1.63Q274.69-0.90 274.69-3.78L274.69-3.78L274.69-3.78Q274.37-5.44 274.37-7.10L274.37-7.10L274.37-7.10Q274.37-8.77 274.24-10.43L274.24-10.43L274.11-11.71L274.11-11.71Q273.66-11.07 272.77-9.92L272.77-9.92L272.77-9.92Q271.87-8.77 270.66-7.65L270.66-7.65L270.66-7.65Q269.44-6.53 267.94-5.70L267.94-5.70L267.94-5.70Q266.43-4.86 264.77-4.86L264.77-4.86L263.17-4.67L263.17-4.67Q259.78-4.67 257.09-6.40L257.09-6.40L257.09-6.40Q254.40-8.13 252.48-10.78L252.48-10.78L252.48-10.78Q250.56-13.44 249.54-16.61L249.54-16.61L249.54-16.61Q248.51-19.78 248.51-22.72L248.51-22.72L248.51-22.72Q248.45-23.04 248.45-23.23L248.45-23.23L248.45-23.81L248.45-23.81Q248.45-27.71 249.86-30.56L249.86-30.56L249.86-30.56Q251.26-33.41 253.73-35.20L253.73-35.20L253.73-35.20Q256.19-36.99 259.52-37.86L259.52-37.86L259.52-37.86Q262.85-38.72 266.69-38.72L266.69-38.72L266.69-38.72Q271.17-38.72 275.78-37.50L275.78-37.50L275.78-37.50Q275.39-37.38 275.39-37.06L275.39-37.06L275.39-37.06Q275.39-36.80 275.49-36.58L275.49-36.58L275.49-36.58Q275.58-36.35 275.58-36.10L275.58-36.10L275.58-35.97L275.58-35.97Q275.39-35.65 274.69-35.65L274.69-35.65L274.69-35.65Q273.98-35.65 272.64-35.84L272.64-35.84L272.64-35.84Q271.30-36.03 268.86-36.35L268.86-36.35L268.86-35.58L268.86-35.58Q271.04-35.33 272.58-34.78L272.58-34.78L272.58-34.78Q274.11-34.24 275.07-33.60L275.07-33.60L275.07-33.60Q276.03-32.96 276.45-32.38L276.45-32.38L276.45-32.38Q276.86-31.81 276.86-31.42L276.86-31.42L276.86-31.42Q276.86-31.17 276.58-31.07L276.58-31.07L276.58-31.07Q276.29-30.98 275.97-30.98L275.97-30.98L275.97-30.98Q275.26-30.98 273.44-31.23L273.44-31.23L273.44-31.23Q271.62-31.49 268.86-31.49L268.86-31.49L268.86-31.49Q266.24-31.49 263.94-31.17L263.94-31.17L263.94-31.17Q261.63-30.85 259.94-29.95L259.94-29.95L259.94-29.95Q258.24-29.06 257.28-27.46L257.28-27.46L257.28-27.46Q256.32-25.86 256.32-23.30L256.32-23.30L256.32-23.30Q256.32-21.18 256.99-19.26L256.99-19.26L256.99-19.26Q257.66-17.34 258.66-15.87L258.66-15.87L258.66-15.87Q259.65-14.40 260.86-13.54L260.86-13.54L260.86-13.54Q262.08-12.67 263.23-12.67L263.23-12.67L263.23-12.67Q264.00-12.67 265.12-13.76L265.12-13.76L265.12-13.76Q266.24-14.85 267.49-16.45L267.49-16.45L267.49-16.45Q268.74-18.05 269.89-19.84L269.89-19.84L269.89-19.84Q271.04-21.63 271.87-23.04L271.87-23.04ZM271.36-9.66L271.36-9.66L271.36-9.66Q270.72-9.02 269.95-8.29L269.95-8.29L269.95-8.29Q269.18-7.55 268.26-6.94L268.26-6.94L268.26-6.94Q267.33-6.34 266.18-5.86L266.18-5.86L266.18-5.86Q265.02-5.38 263.68-5.25L263.68-5.25L264.13-5.06L264.13-5.06Q266.05-5.31 267.65-6.18L267.65-6.18L267.65-6.18Q269.25-7.04 270.50-8.19L270.50-8.19L270.50-8.19Q271.74-9.34 272.70-10.56L272.70-10.56L272.70-10.56Q273.66-11.78 274.37-12.67L274.37-12.67L274.24-13.44L274.24-13.44Q273.66-12.61 272.86-11.58L272.86-11.58L272.86-11.58Q272.06-10.56 271.36-9.66ZM276.03-3.46L276.03-3.46L276.03-3.46Q276.03-0.64 275.46 2.05L275.46 2.05L275.46 2.05Q274.88 4.61 273.86 6.85L273.86 6.85L273.86 6.85Q274.94 4.54 275.58 1.79L275.58 1.79L275.58 1.79Q276.29-1.02 276.29-3.97L276.29-3.97L276.29-3.97Q276.29-5.44 276.19-6.98L276.19-6.98L276.19-6.98Q276.10-8.51 275.97-10.05L275.97-10.05L275.65-13.82L275.33-13.44L275.33-13.44Q275.58-10.94 275.81-8.45L275.81-8.45L275.81-8.45Q276.03-5.95 276.03-3.46ZM280.77-1.79L280.77-3.84L280.77-3.84Q280.77-7.23 280.48-10.43L280.48-10.43L280.48-10.43Q280.19-13.63 279.81-16.77L279.81-16.77L279.81-16.77Q280.06-13.82 280.38-10.91L280.38-10.91L280.38-10.91Q280.70-8 280.70-4.93L280.70-4.93L280.70-4.93Q280.70-2.82 280.48-0.48L280.48-0.48L280.48-0.48Q280.26 1.86 279.68 4.16L279.68 4.16L279.68 4.16Q279.10 6.46 278.08 8.64L278.08 8.64L278.08 8.64Q277.12 10.69 275.65 12.48L275.65 12.48L275.65 12.48Q278.21 9.54 279.30 5.82L279.30 5.82L279.30 5.82Q280.45 1.98 280.77-1.79L280.77-1.79ZM311.74 1.15L311.74 1.15L311.74 1.15Q309.31 1.98 308.03 2.08L308.03 2.08L308.03 2.08Q306.75 2.18 305.79 2.24L305.79 2.24L305.79 2.24Q302.21 2.24 299.33 0.90L299.33 0.90L299.33 0.90Q296.45-0.45 294.40-2.75L294.40-2.75L294.40-2.75Q292.35-5.06 291.23-8.16L291.23-8.16L291.23-8.16Q290.11-11.26 290.11-14.78L290.11-14.78L290.11-14.78Q290.11-16.83 290.50-19.04L290.50-19.04L290.50-19.04Q290.88-21.25 291.65-23.39L291.65-23.39L291.65-23.39Q292.42-25.54 293.63-27.39L293.63-27.39L293.63-27.39Q294.78-29.25 296.38-30.72L296.38-30.72L296.38-30.72Q294.72-29.38 293.57-27.52L293.57-27.52L293.57-27.52Q292.35-25.66 291.52-23.52L291.52-23.52L291.52-23.52Q290.69-21.38 290.30-19.10L290.30-19.10L290.30-19.10Q289.92-16.83 289.92-14.72L289.92-14.72L289.92-14.72Q289.92-12.03 290.78-8.99L290.78-8.99L290.78-8.99Q291.65-5.95 293.57-3.36L293.57-3.36L293.57-3.36Q295.49-0.77 298.53 0.96L298.53 0.96L298.53 0.96Q301.57 2.69 305.92 2.69L305.92 2.69L305.92 2.69Q307.97 2.69 310.21 2.11L310.21 2.11L310.21 2.11Q307.78 3.71 304.77 3.71L304.77 3.71L304.77 3.71Q302.34 3.71 300.19 2.98L300.19 2.98L300.19 2.98Q298.05 2.24 296.22 0.93L296.22 0.93L296.22 0.93Q294.40-0.38 292.93-2.18L292.93-2.18L292.93-2.18Q291.46-3.97 290.43-6.02L290.43-6.02L291.01-6.53L291.01-6.53Q289.92-8.70 289.44-10.88L289.44-10.88L289.44-10.88Q288.96-13.06 288.96-15.30L288.96-15.30L288.96-15.30Q288.96-18.56 289.89-21.57L289.89-21.57L289.89-21.57Q290.82-24.58 292.35-27.26L292.35-27.26L293.89-29.38L293.89-29.38Q294.27-30.08 295.01-30.78L295.01-30.78L295.01-30.78Q295.74-31.49 296.64-32.16L296.64-32.16L296.64-32.16Q297.54-32.83 298.53-33.38L298.53-33.38L298.53-33.38Q299.52-33.92 300.42-34.37L300.42-34.37L300.42-34.37Q302.72-35.52 305.02-36.45L305.02-36.45L305.02-36.45Q307.33-37.38 310.40-37.82L310.40-37.82L310.14-38.02L310.14-38.02Q304.26-37.44 300.16-35.17L300.16-35.17L300.16-35.17Q296.06-32.90 293.50-29.63L293.50-29.63L293.50-29.63Q290.94-26.37 289.79-22.50L289.79-22.50L289.79-22.50Q288.64-18.62 288.64-14.91L288.64-14.91L288.64-14.91Q288.64-12.93 288.99-10.91L288.99-10.91L288.99-10.91Q289.34-8.90 290.05-6.91L290.05-6.91L290.05-6.91Q288.45-10.75 288.45-15.04L288.45-15.04L288.45-15.04Q288.45-19.26 289.86-23.42L289.86-23.42L289.86-23.42Q291.26-27.58 294.27-31.10L294.27-31.10L294.27-31.10Q298.11-34.62 302.66-36.51L302.66-36.51L302.66-36.51Q307.20-38.40 311.42-38.40L311.42-38.40L311.42-38.40Q312.77-38.40 314.18-37.95L314.18-37.95L314.18-37.95Q315.58-37.50 316.74-36.58L316.74-36.58L316.74-36.58Q317.89-35.65 318.62-34.18L318.62-34.18L318.62-34.18Q319.36-32.70 319.36-30.59L319.36-30.59L319.36-30.59Q319.36-28.86 318.53-26.37L318.53-26.37L318.53-26.37Q317.70-23.87 316.06-21.54L316.06-21.54L316.06-21.54Q314.43-19.20 312.00-17.57L312.00-17.57L312.00-17.57Q309.57-15.94 306.37-15.94L306.37-15.94L304.26-15.94L304.26-15.94Q301.89-16.45 299.94-17.12L299.94-17.12L299.94-17.12Q297.98-17.79 296.26-18.18L296.26-18.18L296.26-18.18Q296.00-17.15 295.97-16.22L295.97-16.22L295.97-16.22Q295.94-15.30 295.94-14.40L295.94-14.40L295.94-14.40Q295.94-12.54 296.35-10.78L296.35-10.78L296.35-10.78Q296.77-9.02 297.66-7.55L297.66-7.55L297.66-7.55Q298.56-6.08 299.94-5.09L299.94-5.09L299.94-5.09Q301.31-4.10 303.30-3.84L303.30-3.84L303.30-3.84Q304.51-3.58 305.41-3.55L305.41-3.55L305.41-3.55Q306.30-3.52 306.91-3.49L306.91-3.49L306.91-3.49Q307.52-3.46 307.81-3.30L307.81-3.30L307.81-3.30Q308.10-3.14 308.10-2.69L308.10-2.69L308.10-2.69Q307.46-2.50 306.78-2.43L306.78-2.43L306.78-2.43Q306.11-2.37 305.41-2.37L305.41-2.37L305.41-2.37Q303.17-2.37 301.38-3.10L301.38-3.10L301.38-3.10Q299.58-3.84 298.30-4.80L298.30-4.80L298.30-4.80Q299.78-3.33 301.82-2.72L301.82-2.72L301.82-2.72Q303.87-2.11 305.86-2.11L305.86-2.11L305.86-2.11Q306.94-2.11 308.10-2.30L308.10-2.30L308.10-2.30Q307.97-1.92 307.97-1.86L307.97-1.86L307.97-1.86Q307.97-1.47 308.29-1.34L308.29-1.34L308.29-1.34Q308.54-1.41 309.18-1.70L309.18-1.70L309.18-1.70Q309.82-1.98 310.50-2.27L310.50-2.27L310.50-2.27Q311.17-2.56 311.81-2.78L311.81-2.78L311.81-2.78Q312.45-3.01 312.70-3.01L312.70-3.01L312.70-3.01Q313.02-3.01 313.28-2.91L313.28-2.91L313.28-2.91Q313.54-2.82 313.54-2.18L313.54-2.18L313.54-2.18Q313.54-1.54 313.09-0.64L313.09-0.64L313.09-0.64Q312.64 0.26 311.74 1.15ZM302.91-24.19L302.91-24.19L304.32-23.94L304.32-23.94Q305.02-23.81 305.60-23.81L305.60-23.81L305.60-23.81Q306.24-23.81 307.10-24.22L307.10-24.22L307.10-24.22Q307.97-24.64 308.83-25.41L308.83-25.41L308.83-25.41Q309.70-26.18 310.37-27.33L310.37-27.33L310.37-27.33Q311.04-28.48 311.36-29.95L311.36-29.95L311.49-30.34L311.49-30.34Q310.59-30.34 308.80-29.89L308.80-29.89L308.80-29.89Q307.01-29.44 305.09-28.70L305.09-28.70L305.09-28.70Q303.17-27.97 301.50-26.98L301.50-26.98L301.50-26.98Q299.84-25.98 299.20-24.83L299.20-24.83L299.20-24.83Q300.16-24.64 301.09-24.48L301.09-24.48L301.09-24.48Q302.02-24.32 302.91-24.19ZM296.83-20.42L299.97-19.46L299.97-19.46Q300.10-19.58 300.13-19.84L300.13-19.84L300.13-19.84Q300.16-20.10 300.16-20.22L300.16-20.22L297.15-21.31L296.83-20.42ZM298.18-4.93L298.18-4.93L298.18-4.93Q297.73-5.44 297.28-5.95L297.28-5.95L297.28-5.95Q296.90-6.40 296.64-6.85L296.64-6.85L296.64-6.85Q297.22-5.76 298.18-4.93ZM330.43-10.30L330.43-10.30L330.43-10.30Q331.46-9.98 332.90-9.15L332.90-9.15L332.90-9.15Q334.34-8.32 336.13-7.42L336.13-7.42L336.13-7.42Q337.92-6.53 340.06-5.82L340.06-5.82L340.06-5.82Q342.21-5.12 344.64-5.12L344.64-5.12L345.34-5.12L345.34-5.12Q345.73-5.12 346.24-5.25L346.24-5.25L346.94-4.74L346.94-4.74Q349.44-5.50 351.04-7.65L351.04-7.65L351.04-7.65Q352.64-9.79 352.64-13.44L352.64-13.44L352.64-13.44Q352.64-16.06 351.39-17.06L351.39-17.06L351.39-17.06Q350.14-18.05 346.82-18.05L346.82-18.05L346.82-18.05Q344.77-18.05 342.56-17.76L342.56-17.76L342.56-17.76Q340.35-17.47 337.92-17.47L337.92-17.47L337.92-17.47Q336.83-17.47 335.68-17.57L335.68-17.57L335.68-17.57Q334.53-17.66 333.31-17.98L333.31-17.98L333.31-17.60L333.31-17.60Q335.87-16.96 338.37-16.96L338.37-16.96L338.37-16.96Q340.80-16.96 343.01-17.25L343.01-17.25L343.01-17.25Q345.22-17.54 347.26-17.54L347.26-17.54L347.26-17.54Q348.99-17.54 349.98-17.18L349.98-17.18L349.98-17.18Q350.98-16.83 351.49-16.26L351.49-16.26L351.49-16.26Q352.00-15.68 352.16-14.88L352.16-14.88L352.16-14.88Q352.32-14.08 352.32-13.12L352.32-13.12L352.32-13.12Q352.32-10.11 350.72-8L350.72-8L350.72-8Q349.18-6.02 347.07-5.50L347.07-5.50L347.07-5.50Q349.44-6.34 350.78-8.38L350.78-8.38L350.78-8.38Q352.19-10.56 352.19-13.25L352.19-13.25L352.19-13.25Q352.19-15.17 351.20-16.19L351.20-16.19L351.20-16.19Q350.21-17.22 347.78-17.22L347.78-17.22L347.78-17.22Q345.79-17.22 343.30-16.96L343.30-16.96L343.30-16.96Q340.80-16.70 337.98-16.70L337.98-16.70L337.98-16.70Q336.26-16.70 333.98-17.15L333.98-17.15L333.98-17.15Q331.71-17.60 329.66-18.82L329.66-18.82L329.66-18.82Q327.62-20.03 326.21-22.18L326.21-22.18L326.21-22.18Q324.80-24.32 324.80-27.78L324.80-27.78L324.80-27.78Q324.80-30.53 325.92-32.86L325.92-32.86L325.92-32.86Q327.04-35.20 328.90-36.96L328.90-36.96L328.90-36.96Q330.75-38.72 333.15-39.74L333.15-39.74L333.15-39.74Q335.55-40.77 338.11-40.83L338.11-40.83L338.11-40.83Q340.54-40.83 342.75-40.16L342.75-40.16L342.75-40.16Q344.96-39.49 346.94-38.43L346.94-38.43L346.94-38.43Q348.93-37.38 350.72-36.10L350.72-36.10L350.72-36.10Q352.51-34.82 354.05-33.54L354.05-33.54L352.77-32.26L352.77-32.26Q352.32-32.26 351.42-32.80L351.42-32.80L351.42-32.80Q350.53-33.34 348.67-34.69L348.67-34.69L348.29-34.11L348.29-34.11Q350.59-32.26 351.65-30.66L351.65-30.66L351.65-30.66Q352.70-29.06 352.70-28.16L352.70-28.16L352.70-28.16Q352.58-27.65 352.06-27.65L352.06-27.65L352.06-27.65Q351.55-27.65 350.02-28.48L350.02-28.48L350.02-28.48Q348.48-29.31 346.53-30.34L346.53-30.34L346.53-30.34Q344.58-31.36 342.40-32.19L342.40-32.19L342.40-32.19Q340.22-33.02 338.43-33.02L338.43-33.02L338.43-33.02Q337.41-33.02 336.38-32.64L336.38-32.64L336.38-32.64Q335.36-32.26 334.53-31.58L334.53-31.58L334.53-31.58Q333.70-30.91 333.15-29.95L333.15-29.95L333.15-29.95Q332.61-28.99 332.61-27.84L332.61-27.84L332.61-27.84Q332.61-25.98 334.34-25.34L334.34-25.34L334.34-25.34Q336.06-24.70 338.88-24.70L338.88-24.70L338.88-24.70Q339.46-24.70 340.13-24.74L340.13-24.74L340.13-24.74Q340.80-24.77 341.38-24.90L341.38-24.90L341.38-24.90Q342.85-24.90 343.33-24.99L343.33-24.99L343.33-24.99Q343.81-25.09 344.26-25.09L344.26-25.09L344.26-25.09Q347.01-25.09 349.76-24.70L349.76-24.70L349.76-24.70Q352.51-24.32 354.69-23.04L354.69-23.04L354.69-23.04Q356.86-21.76 358.21-19.39L358.21-19.39L358.21-19.39Q359.55-17.02 359.55-13.06L359.55-13.06L359.55-13.06Q359.55-10.30 358.62-7.58L358.62-7.58L358.62-7.58Q357.70-4.86 355.84-2.72L355.84-2.72L355.84-2.72Q353.98-0.58 351.23 0.74L351.23 0.74L351.23 0.74Q348.48 2.05 344.77 2.05L344.77 2.05L344.77 2.05Q342.53 2.05 339.49 1.18L339.49 1.18L339.49 1.18Q336.45 0.32 333.73-0.86L333.73-0.86L333.73-0.86Q331.01-2.05 329.12-3.33L329.12-3.33L329.12-3.33Q327.23-4.61 327.23-5.50L327.23-5.50L327.23-5.50Q327.23-5.76 327.55-5.89L327.55-5.89L327.55-5.89Q331.46-3.01 335.49-1.15L335.49-1.15L335.49-1.15Q339.46 0.58 343.62 0.77L343.62 0.77L343.62 0.77Q341.57 0.64 339.52 0.06L339.52 0.06L339.52 0.06Q337.41-0.58 335.33-1.50L335.33-1.50L335.33-1.50Q333.25-2.43 331.36-3.62L331.36-3.62L331.36-3.62Q329.47-4.80 327.74-6.02L327.74-6.02L328.70-6.85L328.70-6.85Q328.51-6.91 328.00-7.30L328.00-7.30L328.00-7.30Q327.49-7.68 327.01-8.26L327.01-8.26L327.01-8.26Q326.53-8.83 326.14-9.47L326.14-9.47L326.14-9.47Q325.76-10.11 325.76-10.69L325.76-10.69L325.76-10.69Q325.76-11.33 326.02-11.52L326.02-11.52L326.02-11.52Q326.27-11.71 326.59-11.71L326.59-11.71L326.59-11.71Q326.91-11.71 327.94-11.26L327.94-11.26L327.94-11.26Q328.96-10.82 330.43-10.30ZM344.58-3.78L344.58-3.78L344.58-3.78Q342.34-3.78 339.62-4.70L339.62-4.70L339.62-4.70Q336.90-5.63 334.46-7.10L334.46-7.10L334.46-7.10Q336.45-5.76 338.88-4.70L338.88-4.70L338.88-4.70Q341.31-3.65 344.51-3.65L344.51-3.65L344.51-3.65Q348.80-3.65 351.33-6.27L351.33-6.27L351.33-6.27Q353.86-8.90 353.86-13.31L353.86-13.31L353.86-13.95L353.86-13.95Q353.54-16 352.48-17.31L352.48-17.31L352.48-17.31Q351.42-18.62 349.25-18.75L349.25-18.75L349.25-18.75Q350.59-18.50 351.46-17.92L351.46-17.92L351.46-17.92Q352.32-17.34 352.80-16.54L352.80-16.54L352.80-16.54Q353.28-15.74 353.47-14.78L353.47-14.78L353.47-14.78Q353.66-13.82 353.66-12.80L353.66-12.80L353.66-12.80Q353.41-8.58 350.98-6.18L350.98-6.18L350.98-6.18Q348.54-3.78 344.58-3.78ZM352.70-1.28L352.70-1.28L352.70-1.28Q354.30-2.30 355.26-3.78L355.26-3.78L355.26-3.78Q356.22-5.25 356.93-6.85L356.93-6.85L356.93-6.85Q355.58-4.16 353.25-2.11L353.25-2.11L353.25-2.11Q350.91-0.06 347.71 0.45L347.71 0.45L347.71 0.45Q348.93 0.26 350.24-0.10L350.24-0.10L350.24-0.10Q351.55-0.45 352.70-1.28ZM358.78-13.31L358.78-13.31L358.78-13.31Q358.78-14.02 358.53-14.66L358.53-14.66L358.53-14.66Q358.34-15.17 358.21-15.74L358.21-15.74L358.27-14.91L358.27-14.91Q358.34-14.40 358.34-13.50L358.34-13.50L358.34-13.50Q358.34-11.78 357.95-10.18L357.95-10.18L357.95-10.18Q357.57-8.58 356.99-7.04L356.99-7.04L356.99-7.04Q357.57-8.45 358.11-10.02L358.11-10.02L358.11-10.02Q358.66-11.58 358.78-13.31ZM358.21-15.94L358.21-15.94L358.21-15.94Q358.21-15.87 358.21-15.74L358.21-15.74L358.21-15.74Q358.21-15.87 358.21-15.94ZM347.01-5.44L347.01-5.44L347.01-5.44Q346.94-5.44 346.88-5.44L346.88-5.44L346.88-5.44Q346.94-5.44 347.01-5.44Z" fill="url(#editing-shiny-gradient)"></path></g></g><g filter="url(#editing-shiny2)"><g transform="translate(69.58500552177429, 110.38999938964844)"><path d="M25.92-13.63L25.92-13.63L25.92-13.63Q26.75-10.88 27.62-8.06L27.62-8.06L27.62-8.06Q28.48-5.25 29.73-2.85L29.73-2.85L29.73-2.85Q30.98-0.45 32.86 1.31L32.86 1.31L32.86 1.31Q34.75 3.07 37.63 3.65L37.63 3.65L37.63 3.65Q34.88 3.46 32.93 1.86L32.93 1.86L32.93 1.86Q30.98 0.26 29.63-2.08L29.63-2.08L29.63-2.08Q28.29-4.42 27.46-7.10L27.46-7.10L27.46-7.10Q26.62-9.79 26.24-12.03L26.24-12.03L26.24-12.03Q26.05-10.50 25.63-8.64L25.63-8.64L25.63-8.64Q25.22-6.78 24.58-4.96L24.58-4.96L24.58-4.96Q23.94-3.14 23.07-1.50L23.07-1.50L23.07-1.50Q22.21 0.13 21.06 1.28L21.06 1.28L15.62 2.24L15.62 2.24Q12.86 0.70 10.78-2.14L10.78-2.14L10.78-2.14Q8.70-4.99 7.14-8.61L7.14-8.61L7.14-8.61Q5.57-12.22 4.51-16.35L4.51-16.35L4.51-16.35Q3.46-20.48 2.75-24.51L2.75-24.51L2.75-24.51Q2.05-28.54 1.70-32.29L1.70-32.29L1.70-32.29Q1.34-36.03 1.28-38.85L1.28-38.85L2.88-39.04L2.88-39.04Q3.20-38.85 3.42-38.11L3.42-38.11L3.42-38.11Q3.65-37.38 3.78-36.48L3.78-36.48L3.78-36.48Q3.90-35.58 3.97-34.75L3.97-34.75L3.97-34.75Q4.03-33.92 4.03-33.60L4.03-33.60L4.61-33.79L4.61-33.79Q4.61-34.30 4.67-35.68L4.67-35.68L4.67-35.68Q4.74-37.06 4.99-38.50L4.99-38.50L4.99-38.50Q5.25-39.94 5.73-41.02L5.73-41.02L5.73-41.02Q6.21-42.11 6.98-42.11L6.98-42.11L6.98-42.11Q7.36-42.11 7.78-40.13L7.78-40.13L7.78-40.13Q8.19-38.14 8.77-34.98L8.77-34.98L8.77-34.98Q9.34-31.81 10.05-27.81L10.05-27.81L10.05-27.81Q10.75-23.81 11.74-19.81L11.74-19.81L11.74-19.81Q12.74-15.81 14.02-12.13L14.02-12.13L14.02-12.13Q15.30-8.45 16.96-5.95L16.96-5.95L16.96-5.95Q17.54-8.77 18.46-12.06L18.46-12.06L18.46-12.06Q19.39-15.36 20.29-18.21L20.29-18.21L20.29-18.21Q21.18-21.06 21.86-22.98L21.86-22.98L21.86-22.98Q22.53-24.90 22.66-24.96L22.66-24.96L29.50-25.15L29.50-25.15Q30.34-24.58 31.04-23.07L31.04-23.07L31.04-23.07Q31.74-21.57 32.38-19.58L32.38-19.58L32.38-19.58Q33.02-17.60 33.60-15.33L33.60-15.33L33.60-15.33Q34.18-13.06 34.82-10.91L34.82-10.91L34.82-10.91Q35.46-8.77 36.16-6.94L36.16-6.94L36.16-6.94Q36.86-5.12 37.70-4.03L37.70-4.03L38.27-3.97L38.27-3.97Q39.23-3.97 40.22-5.18L40.22-5.18L40.22-5.18Q41.22-6.40 42.21-8.29L42.21-8.29L42.21-8.29Q43.20-10.18 44.10-12.45L44.10-12.45L44.10-12.45Q44.99-14.72 45.73-16.86L45.73-16.86L45.73-16.86Q46.46-19.01 46.98-20.77L46.98-20.77L46.98-20.77Q47.49-22.53 47.74-23.36L47.74-23.36L47.74-23.36Q48-24.32 48.29-26.02L48.29-26.02L48.29-26.02Q48.58-27.71 48.90-29.70L48.90-29.70L48.90-29.70Q49.22-31.68 49.57-33.70L49.57-33.70L49.57-33.70Q49.92-35.71 50.30-37.34L50.30-37.34L50.30-37.34Q50.69-38.98 51.14-40.03L51.14-40.03L51.14-40.03Q51.58-41.09 52.10-41.09L52.10-41.09L52.42-41.02L52.42-41.02Q50.50-28.67 46.91-16.70L46.91-16.70L46.91-16.70Q48.90-22.59 50.21-28.61L50.21-28.61L50.21-28.61Q51.52-34.62 52.80-40.64L52.80-40.64L53.31-40.13L53.31-40.13Q53.38-40.58 53.70-41.76L53.70-41.76L53.70-41.76Q54.02-42.94 54.43-44.19L54.43-44.19L54.43-44.19Q54.85-45.44 55.36-46.40L55.36-46.40L55.36-46.40Q55.87-47.36 56.38-47.36L56.38-47.36L56.38-47.36Q56.77-47.36 57.06-46.72L57.06-46.72L57.06-46.72Q57.34-46.08 57.47-45.25L57.47-45.25L57.47-45.25Q57.60-44.42 57.66-43.62L57.66-43.62L57.66-43.62Q57.73-42.82 57.73-42.56L57.73-42.56L57.73-42.56Q57.73-42.37 57.54-41.73L57.54-41.73L57.54-41.73Q57.34-41.09 57.28-40.83L57.28-40.83L57.28-40.83Q56.77-38.66 56.03-34.82L56.03-34.82L56.03-34.82Q55.30-30.98 54.27-26.40L54.27-26.40L54.27-26.40Q53.25-21.82 51.84-17.09L51.84-17.09L51.84-17.09Q50.56-12.54 48.90-8.70L48.90-8.70L48.90-8.70Q50.62-12.54 52.03-17.02L52.03-17.02L52.03-17.02Q53.50-21.76 54.62-26.27L54.62-26.27L54.62-26.27Q55.74-30.78 56.58-34.62L56.58-34.62L56.58-34.62Q57.41-38.46 57.92-40.64L57.92-40.64L57.92-40.64Q57.92-37.38 57.41-33.89L57.41-33.89L57.41-33.89Q56.90-30.40 56.06-26.88L56.06-26.88L56.06-26.88Q55.23-23.36 54.21-19.90L54.21-19.90L54.21-19.90Q53.18-16.45 52.22-13.38L52.22-13.38L51.26-12.99L51.26-12.99Q50.69-10.94 49.66-8.13L49.66-8.13L49.66-8.13Q48.64-5.31 47.07-2.78L47.07-2.78L47.07-2.78Q45.50-0.26 43.42 1.50L43.42 1.50L43.42 1.50Q41.34 3.26 38.72 3.26L38.72 3.26L38.72 3.26Q36.74 3.26 35.17 2.40L35.17 2.40L35.17 2.40Q33.60 1.54 32.35 0.10L32.35 0.10L32.35 0.10Q31.10-1.34 30.18-3.20L30.18-3.20L30.18-3.20Q29.25-5.06 28.51-7.04L28.51-7.04L28.51-7.04Q27.78-9.02 27.20-11.04L27.20-11.04L27.20-11.04Q26.62-13.06 26.18-14.72L26.18-14.72L26.18-14.72Q26.05-14.27 25.92-13.63ZM38.27 2.18L38.27 2.18L38.27 2.18Q40.26 2.18 42.02 0.93L42.02 0.93L42.02 0.93Q43.78-0.32 45.31-2.43L45.31-2.43L45.31-2.43Q43.65-0.77 41.98 0.45L41.98 0.45L41.98 0.45Q40.32 1.66 38.27 1.66L38.27 1.66L38.27 1.66Q36.61 1.66 35.23 0.74L35.23 0.74L35.23 0.74Q33.86-0.19 32.74-1.70L32.74-1.70L32.74-1.70Q31.62-3.20 30.75-5.09L30.75-5.09L30.75-5.09Q29.89-6.98 29.18-8.83L29.18-8.83L29.18-8.83Q28.48-10.69 27.97-12.38L27.97-12.38L27.97-12.38Q27.46-14.08 27.07-15.23L27.07-15.23L27.07-15.23Q27.33-13.70 27.81-11.81L27.81-11.81L27.81-11.81Q28.29-9.92 28.93-8L28.93-8L28.93-8Q29.57-6.08 30.43-4.26L30.43-4.26L30.43-4.26Q31.30-2.43 32.45-0.99L32.45-0.99L32.45-0.99Q33.60 0.45 35.04 1.31L35.04 1.31L35.04 1.31Q36.48 2.18 38.27 2.18ZM38.98 3.58L38.98 3.58L38.98 3.58Q41.15 3.20 42.94 1.95L42.94 1.95L42.94 1.95Q44.74 0.70 46.18-1.02L46.18-1.02L46.18-1.02Q47.62-2.75 48.64-4.80L48.64-4.80L48.64-4.80Q49.22-5.89 49.73-6.98L49.73-6.98L49.73-6.98Q49.28-5.82 48.70-4.61L48.70-4.61L48.70-4.61Q47.68-2.43 46.27-0.61L46.27-0.61L46.27-0.61Q44.86 1.22 43.04 2.40L43.04 2.40L43.04 2.40Q41.22 3.58 38.98 3.58ZM37.63-2.75L37.63-2.75L37.63-2.75Q36.86-2.94 36.10-3.97L36.10-3.97L36.10-3.97Q35.39-4.99 35.01-6.08L35.01-6.08L35.01-6.08Q35.20-5.50 35.46-4.86L35.46-4.86L35.46-4.86Q35.78-4.22 36.19-3.65L36.19-3.65L36.19-3.65Q36.61-3.07 37.12-2.72L37.12-2.72L37.12-2.72Q37.63-2.37 38.27-2.37L38.27-2.37L38.27-2.37Q39.30-2.37 40.29-3.30L40.29-3.30L40.29-3.30Q41.28-4.22 42.14-5.57L42.14-5.57L42.14-5.57Q43.01-6.91 43.71-8.42L43.71-8.42L43.71-8.42Q44.42-9.92 44.93-11.14L44.93-11.14L44.93-11.14Q44.42-9.98 43.68-8.48L43.68-8.48L43.68-8.48Q42.94-6.98 42.08-5.70L42.08-5.70L42.08-5.70Q41.22-4.42 40.22-3.52L40.22-3.52L40.22-3.52Q39.23-2.62 38.27-2.62L38.27-2.62L38.27-2.62Q38.02-2.62 37.63-2.75ZM25.41-10.69L25.79-10.69L25.79-10.69Q25.86-11.14 25.92-11.55L25.92-11.55L25.92-11.55Q25.98-11.97 26.11-12.42L26.11-12.42L25.86-13.18L25.86-13.18Q25.73-12.54 25.63-11.94L25.63-11.94L25.63-11.94Q25.54-11.33 25.41-10.69L25.41-10.69ZM49.98-7.62L49.98-7.62L49.98-7.62Q49.86-7.30 49.73-6.98L49.73-6.98L49.73-6.98Q49.86-7.36 49.98-7.62ZM50.24-8.19L50.24-8.19L50.24-8.19Q50.11-7.87 49.98-7.62L49.98-7.62L49.98-7.62Q50.11-7.94 50.24-8.19ZM50.43-8.64L50.43-8.64L50.43-8.64Q50.30-8.45 50.24-8.19L50.24-8.19L50.24-8.19Q50.30-8.45 50.43-8.64ZM84.42 1.15L84.42 1.15L84.42 1.15Q81.98 1.98 80.70 2.08L80.70 2.08L80.70 2.08Q79.42 2.18 78.46 2.24L78.46 2.24L78.46 2.24Q74.88 2.24 72 0.90L72 0.90L72 0.90Q69.12-0.45 67.07-2.75L67.07-2.75L67.07-2.75Q65.02-5.06 63.90-8.16L63.90-8.16L63.90-8.16Q62.78-11.26 62.78-14.78L62.78-14.78L62.78-14.78Q62.78-16.83 63.17-19.04L63.17-19.04L63.17-19.04Q63.55-21.25 64.32-23.39L64.32-23.39L64.32-23.39Q65.09-25.54 66.30-27.39L66.30-27.39L66.30-27.39Q67.46-29.25 69.06-30.72L69.06-30.72L69.06-30.72Q67.39-29.38 66.24-27.52L66.24-27.52L66.24-27.52Q65.02-25.66 64.19-23.52L64.19-23.52L64.19-23.52Q63.36-21.38 62.98-19.10L62.98-19.10L62.98-19.10Q62.59-16.83 62.59-14.72L62.59-14.72L62.59-14.72Q62.59-12.03 63.46-8.99L63.46-8.99L63.46-8.99Q64.32-5.95 66.24-3.36L66.24-3.36L66.24-3.36Q68.16-0.77 71.20 0.96L71.20 0.96L71.20 0.96Q74.24 2.69 78.59 2.69L78.59 2.69L78.59 2.69Q80.64 2.69 82.88 2.11L82.88 2.11L82.88 2.11Q80.45 3.71 77.44 3.71L77.44 3.71L77.44 3.71Q75.01 3.71 72.86 2.98L72.86 2.98L72.86 2.98Q70.72 2.24 68.90 0.93L68.90 0.93L68.90 0.93Q67.07-0.38 65.60-2.18L65.60-2.18L65.60-2.18Q64.13-3.97 63.10-6.02L63.10-6.02L63.68-6.53L63.68-6.53Q62.59-8.70 62.11-10.88L62.11-10.88L62.11-10.88Q61.63-13.06 61.63-15.30L61.63-15.30L61.63-15.30Q61.63-18.56 62.56-21.57L62.56-21.57L62.56-21.57Q63.49-24.58 65.02-27.26L65.02-27.26L66.56-29.38L66.56-29.38Q66.94-30.08 67.68-30.78L67.68-30.78L67.68-30.78Q68.42-31.49 69.31-32.16L69.31-32.16L69.31-32.16Q70.21-32.83 71.20-33.38L71.20-33.38L71.20-33.38Q72.19-33.92 73.09-34.37L73.09-34.37L73.09-34.37Q75.39-35.52 77.70-36.45L77.70-36.45L77.70-36.45Q80-37.38 83.07-37.82L83.07-37.82L82.82-38.02L82.82-38.02Q76.93-37.44 72.83-35.17L72.83-35.17L72.83-35.17Q68.74-32.90 66.18-29.63L66.18-29.63L66.18-29.63Q63.62-26.37 62.46-22.50L62.46-22.50L62.46-22.50Q61.31-18.62 61.31-14.91L61.31-14.91L61.31-14.91Q61.31-12.93 61.66-10.91L61.66-10.91L61.66-10.91Q62.02-8.90 62.72-6.91L62.72-6.91L62.72-6.91Q61.12-10.75 61.12-15.04L61.12-15.04L61.12-15.04Q61.12-19.26 62.53-23.42L62.53-23.42L62.53-23.42Q63.94-27.58 66.94-31.10L66.94-31.10L66.94-31.10Q70.78-34.62 75.33-36.51L75.33-36.51L75.33-36.51Q79.87-38.40 84.10-38.40L84.10-38.40L84.10-38.40Q85.44-38.40 86.85-37.95L86.85-37.95L86.85-37.95Q88.26-37.50 89.41-36.58L89.41-36.58L89.41-36.58Q90.56-35.65 91.30-34.18L91.30-34.18L91.30-34.18Q92.03-32.70 92.03-30.59L92.03-30.59L92.03-30.59Q92.03-28.86 91.20-26.37L91.20-26.37L91.20-26.37Q90.37-23.87 88.74-21.54L88.74-21.54L88.74-21.54Q87.10-19.20 84.67-17.57L84.67-17.57L84.67-17.57Q82.24-15.94 79.04-15.94L79.04-15.94L76.93-15.94L76.93-15.94Q74.56-16.45 72.61-17.12L72.61-17.12L72.61-17.12Q70.66-17.79 68.93-18.18L68.93-18.18L68.93-18.18Q68.67-17.15 68.64-16.22L68.64-16.22L68.64-16.22Q68.61-15.30 68.61-14.40L68.61-14.40L68.61-14.40Q68.61-12.54 69.02-10.78L69.02-10.78L69.02-10.78Q69.44-9.02 70.34-7.55L70.34-7.55L70.34-7.55Q71.23-6.08 72.61-5.09L72.61-5.09L72.61-5.09Q73.98-4.10 75.97-3.84L75.97-3.84L75.97-3.84Q77.18-3.58 78.08-3.55L78.08-3.55L78.08-3.55Q78.98-3.52 79.58-3.49L79.58-3.49L79.58-3.49Q80.19-3.46 80.48-3.30L80.48-3.30L80.48-3.30Q80.77-3.14 80.77-2.69L80.77-2.69L80.77-2.69Q80.13-2.50 79.46-2.43L79.46-2.43L79.46-2.43Q78.78-2.37 78.08-2.37L78.08-2.37L78.08-2.37Q75.84-2.37 74.05-3.10L74.05-3.10L74.05-3.10Q72.26-3.84 70.98-4.80L70.98-4.80L70.98-4.80Q72.45-3.33 74.50-2.72L74.50-2.72L74.50-2.72Q76.54-2.11 78.53-2.11L78.53-2.11L78.53-2.11Q79.62-2.11 80.77-2.30L80.77-2.30L80.77-2.30Q80.64-1.92 80.64-1.86L80.64-1.86L80.64-1.86Q80.64-1.47 80.96-1.34L80.96-1.34L80.96-1.34Q81.22-1.41 81.86-1.70L81.86-1.70L81.86-1.70Q82.50-1.98 83.17-2.27L83.17-2.27L83.17-2.27Q83.84-2.56 84.48-2.78L84.48-2.78L84.48-2.78Q85.12-3.01 85.38-3.01L85.38-3.01L85.38-3.01Q85.70-3.01 85.95-2.91L85.95-2.91L85.95-2.91Q86.21-2.82 86.21-2.18L86.21-2.18L86.21-2.18Q86.21-1.54 85.76-0.64L85.76-0.64L85.76-0.64Q85.31 0.26 84.42 1.15ZM75.58-24.19L75.58-24.19L76.99-23.94L76.99-23.94Q77.70-23.81 78.27-23.81L78.27-23.81L78.27-23.81Q78.91-23.81 79.78-24.22L79.78-24.22L79.78-24.22Q80.64-24.64 81.50-25.41L81.50-25.41L81.50-25.41Q82.37-26.18 83.04-27.33L83.04-27.33L83.04-27.33Q83.71-28.48 84.03-29.95L84.03-29.95L84.16-30.34L84.16-30.34Q83.26-30.34 81.47-29.89L81.47-29.89L81.47-29.89Q79.68-29.44 77.76-28.70L77.76-28.70L77.76-28.70Q75.84-27.97 74.18-26.98L74.18-26.98L74.18-26.98Q72.51-25.98 71.87-24.83L71.87-24.83L71.87-24.83Q72.83-24.64 73.76-24.48L73.76-24.48L73.76-24.48Q74.69-24.32 75.58-24.19ZM69.50-20.42L72.64-19.46L72.64-19.46Q72.77-19.58 72.80-19.84L72.80-19.84L72.80-19.84Q72.83-20.10 72.83-20.22L72.83-20.22L69.82-21.31L69.50-20.42ZM70.85-4.93L70.85-4.93L70.85-4.93Q70.40-5.44 69.95-5.95L69.95-5.95L69.95-5.95Q69.57-6.40 69.31-6.85L69.31-6.85L69.31-6.85Q69.89-5.76 70.85-4.93ZM109.89-32.26L109.89-32.26L110.98-32.26L110.98-32.26Q114.69-32.26 118.34-30.94L118.34-30.94L118.34-30.94Q121.98-29.63 124.86-27.26L124.86-27.26L124.86-27.26Q127.74-24.90 129.50-21.60L129.50-21.60L129.50-21.60Q131.26-18.30 131.26-14.40L131.26-14.40L131.26-14.40Q131.26-10.24 130.11-7.46L130.11-7.46L130.11-7.46Q128.96-4.67 126.85-2.88L126.85-2.88L126.85-2.88Q124.74-1.09 121.79-0.10L121.79-0.10L121.79-0.10Q118.85 0.90 115.26 1.54L115.26 1.54L115.26 1.54Q117.50 1.34 120.29 0.70L120.29 0.70L120.29 0.70Q123.07 0.06 125.54-1.57L125.54-1.57L125.54-1.57Q128-3.20 129.66-6.11L129.66-6.11L129.66-6.11Q131.33-9.02 131.33-13.76L131.33-13.76L131.33-13.76Q131.33-19.58 128.06-24.26L128.06-24.26L128.06-24.26Q124.80-28.93 118.34-31.30L118.34-31.30L118.34-31.30Q116.74-32 115.04-32.42L115.04-32.42L115.04-32.42Q113.34-32.83 111.62-32.83L111.62-32.83L111.62-32.83Q112.19-33.15 113.15-33.18L113.15-33.18L113.15-33.18Q114.11-33.22 114.69-33.22L114.69-33.22L114.69-33.22Q117.18-33.22 119.84-32.19L119.84-32.19L119.84-32.19Q122.50-31.17 124.86-29.38L124.86-29.38L124.86-29.38Q127.23-27.58 129.06-25.18L129.06-25.18L129.06-25.18Q130.88-22.78 131.78-20.10L131.78-20.10L131.78-20.10Q131.46-19.97 131.20-19.58L131.20-19.58L131.20-19.58Q131.71-17.98 131.97-16.45L131.97-16.45L131.97-16.45Q132.22-14.91 132.22-13.31L132.22-13.31L132.22-13.31Q132.22-11.52 131.94-9.73L131.94-9.73L131.94-9.73Q131.65-7.94 130.78-6.21L130.78-6.21L130.78-6.21Q129.92-4.48 128.35-2.94L128.35-2.94L128.35-2.94Q126.78-1.41 124.22-0.19L124.22-0.19L124.22-0.19Q121.66 1.02 117.95 1.82L117.95 1.82L117.95 1.82Q114.24 2.62 109.12 2.88L109.12 2.88L109.12 2.88Q108.80 3.07 108.22 3.10L108.22 3.10L108.22 3.10Q107.65 3.14 107.07 3.14L107.07 3.14L106.18 3.14L106.18 3.14Q105.22 3.14 104.19 2.78L104.19 2.78L104.19 2.78Q103.17 2.43 102.34 1.57L102.34 1.57L102.34 1.57Q101.50 0.70 100.99-0.74L100.99-0.74L100.99-0.74Q100.48-2.18 100.48-4.35L100.48-4.35L100.48-5.06L100.48-5.06Q100.42-4.80 100.29-4.80L100.29-4.80L100.29-4.80Q100.10-4.80 100.10-4.93L100.10-4.93L100.10-4.61L100.10-4.61Q100.10-3.46 100.22-2.02L100.22-2.02L100.22-2.02Q100.35-0.58 100.96 0.70L100.96 0.70L100.96 0.70Q101.57 1.98 102.88 2.85L102.88 2.85L102.88 2.85Q104.19 3.71 106.62 3.71L106.62 3.71L106.62 3.71Q107.20 3.71 107.81 3.68L107.81 3.68L107.81 3.68Q108.42 3.65 109.12 3.46L109.12 3.46L109.12 3.46Q113.79 3.26 118.05 2.43L118.05 2.43L118.05 2.43Q122.30 1.60 125.57-0.29L125.57-0.29L125.57-0.29Q128.83-2.18 130.75-5.44L130.75-5.44L130.75-5.44Q132.67-8.70 132.67-13.82L132.67-13.82L132.67-13.82Q132.67-15.49 132.42-17.22L132.42-17.22L132.42-17.22Q132.48-16.51 132.61-15.87L132.61-15.87L132.61-15.87Q132.74-14.85 132.74-13.82L132.74-13.82L132.74-13.82Q132.74-12.42 132.58-10.62L132.58-10.62L132.58-10.62Q132.42-8.83 131.74-6.98L131.74-6.98L131.74-6.98Q131.07-5.12 129.79-3.33L129.79-3.33L129.79-3.33Q128.51-1.54 126.21-0.19L126.21-0.19L126.21-0.19Q123.84 1.22 121.31 2.02L121.31 2.02L121.31 2.02Q118.78 2.82 116.51 3.23L116.51 3.23L116.51 3.23Q114.24 3.65 112.42 3.74L112.42 3.74L112.42 3.74Q110.59 3.84 109.70 3.84L109.70 3.84L108.93 3.84L108.93 3.84Q108.35 3.84 107.74 3.94L107.74 3.94L107.74 3.94Q107.14 4.03 106.43 4.03L106.43 4.03L106.11 4.03L106.11 4.03Q105.54 4.03 104.67 3.90L104.67 3.90L104.67 3.90Q103.81 3.78 102.88 3.26L102.88 3.26L102.88 3.26Q101.95 2.75 101.18 1.63L101.18 1.63L101.18 1.63Q100.42 0.51 100.10-1.54L100.10-1.54L100.10-1.54Q99.97-2.24 99.90-2.94L99.90-2.94L99.90-2.94Q99.84-3.65 99.71-4.22L99.71-4.22L99.71-4.22Q99.71-5.50 99.90-6.62L99.90-6.62L99.90-6.62Q100.10-7.74 100.10-8.45L100.10-8.45L100.10-20.16L97.79-32.26L97.79-32.26Q97.86-33.54 97.95-35.07L97.95-35.07L97.95-35.07Q98.05-36.61 98.14-38.24L98.14-38.24L98.14-38.24Q98.24-39.87 98.30-41.47L98.30-41.47L98.30-41.47Q98.37-43.07 98.37-44.54L98.37-44.54L98.37-44.54Q98.37-45.06 98.34-45.54L98.34-45.54L98.34-45.54Q98.30-46.02 98.30-46.46L98.30-46.46L98.30-46.46Q98.50-46.27 98.69-46.27L98.69-46.27L98.69-46.27Q98.94-46.27 99.23-46.43L99.23-46.43L99.23-46.43Q99.52-46.59 99.78-46.59L99.78-46.59L99.78-46.59Q99.97-46.59 100.16-46.40L100.16-46.40L100.16-46.40Q100.35-46.21 100.51-45.70L100.51-45.70L100.51-45.70Q100.67-45.18 100.74-44.19L100.74-44.19L100.74-44.19Q100.80-43.20 100.80-41.66L100.80-41.66L101.38-41.66L101.38-41.66Q101.63-45.18 102.30-47.17L102.30-47.17L102.30-47.17Q102.98-49.15 103.68-49.15L103.68-49.15L103.68-49.15Q104.51-49.15 104.90-47.10L104.90-47.10L104.90-47.10Q105.28-45.06 105.44-41.95L105.44-41.95L105.44-41.95Q105.60-38.85 105.73-35.17L105.73-35.17L105.73-35.17Q105.86-31.49 106.24-28.22L106.24-28.22L106.24-28.22Q106.94-24.45 107.39-20.19L107.39-20.19L107.39-20.19Q107.84-15.94 107.97-11.90L107.97-11.90L107.97-11.90Q107.97-8.90 107.90-7.62L107.90-7.62L107.90-7.62Q107.84-6.34 107.71-5.76L107.71-5.76L107.71-4.03L109.89-4.22L109.89-4.22Q111.94-4.22 114.11-4.45L114.11-4.45L114.11-4.45Q116.29-4.67 117.76-5.18L117.76-5.18L117.76-5.18Q120.45-5.63 121.95-6.50L121.95-6.50L121.95-6.50Q123.46-7.36 124.22-8.38L124.22-8.38L124.22-8.38Q124.99-9.41 125.18-10.56L125.18-10.56L125.18-10.56Q125.38-11.71 125.38-12.74L125.38-12.74L125.38-12.74Q125.38-14.72 125.09-16.54L125.09-16.54L125.09-16.54Q124.80-18.37 123.97-19.94L123.97-19.94L123.97-19.94Q123.14-21.50 121.54-22.82L121.54-22.82L121.54-22.82Q119.94-24.13 117.38-25.15L117.38-25.15L117.38-25.15Q114.56-26.24 113.31-26.43L113.31-26.43L113.31-26.43Q112.06-26.62 112.06-27.20L112.06-27.20L112.06-27.20Q112.06-27.26 112.19-27.65L112.19-27.65L112.19-27.65Q114.88-27.52 117.57-26.37L117.57-26.37L117.57-26.37Q120.06-25.28 122.11-23.62L122.11-23.62L122.11-23.62Q120.13-25.28 117.70-26.37L117.70-26.37L117.70-26.37Q115.07-27.58 112.38-27.84L112.38-27.84L112.38-27.84Q112.58-28.10 112.58-28.48L112.58-28.48L112.58-28.48Q112.58-28.67 112.38-28.99L112.38-28.99L111.30-28.99L111.30-28.99Q110.85-28.99 110.34-28.93L110.34-28.93L110.34-28.93Q109.82-28.86 109.50-28.80L109.50-28.80L109.50-28.80Q107.97-28.93 107.36-29.25L107.36-29.25L107.36-29.25Q106.75-29.57 106.75-30.02L106.75-30.02L106.75-30.02Q106.75-30.66 107.81-31.30L107.81-31.30L107.81-31.30Q108.86-31.94 109.89-32.26ZM126.72-13.95L126.72-13.95L126.72-13.95Q126.72-11.01 126.02-9.15L126.02-9.15L126.02-9.15Q125.31-7.30 124.03-6.27L124.03-6.27L124.03-6.27Q125.70-7.42 126.24-9.22L126.24-9.22L126.24-9.22Q126.78-11.01 126.78-13.76L126.78-13.76L126.78-13.76Q126.78-14.21 126.72-14.59L126.72-14.59L126.72-14.59Q126.72-14.91 126.66-15.30L126.66-15.30L126.66-15.30Q126.66-14.91 126.66-14.59L126.66-14.59L126.66-14.59Q126.72-14.27 126.72-13.95ZM132.35-17.73L132.29-17.98L132.35-17.73ZM122.30-23.42L122.30-23.42L122.30-23.42Q122.18-23.49 122.11-23.62L122.11-23.62L122.11-23.62Q122.24-23.55 122.30-23.42ZM132.35-17.66L132.35-17.66L132.35-17.66Q132.35-17.54 132.35-17.47L132.35-17.47L132.35-17.47Q132.35-17.54 132.35-17.66ZM173.06-12.86L173.06-12.86L173.06-11.52L173.06-11.52Q173.06-10.43 173.09-9.38L173.09-9.38L173.09-9.38Q173.12-8.32 173.38-7.42L173.38-7.42L173.38-7.42Q173.06-4.29 172.90-1.15L172.90-1.15L172.90-1.15Q172.74 1.98 172.74 5.12L172.74 5.12L171.33 5.18L171.33 5.18Q171.01 5.18 170.85 4.77L170.85 4.77L170.85 4.77Q170.69 4.35 170.59 3.74L170.59 3.74L170.59 3.74Q170.50 3.14 170.46 2.43L170.46 2.43L170.46 2.43Q170.43 1.73 170.43 1.15L170.43 1.15L170.43-0.13L169.79-0.13L169.79-0.13Q169.79 0.26 169.60 1.54L169.60 1.54L169.60 1.54Q169.41 2.82 169.12 4.22L169.12 4.22L169.12 4.22Q168.83 5.63 168.38 6.75L168.38 6.75L168.38 6.75Q167.94 7.87 167.36 7.87L167.36 7.87L167.36 7.87Q166.91 7.87 166.59 7.01L166.59 7.01L166.59 7.01Q166.27 6.14 166.08 5.06L166.08 5.06L166.08 5.06Q165.89 3.97 165.76 2.98L165.76 2.98L165.76 2.98Q165.63 1.98 165.63 1.66L165.63 1.66L165.63 1.66Q165.06-3.97 165.06-9.63L165.06-9.63L165.06-9.63Q165.06-15.30 164.54-20.93L164.54-20.93L164.54-20.93Q164.35-22.85 163.97-24.67L163.97-24.67L163.97-24.67Q163.58-26.50 163.17-28.35L163.17-28.35L163.17-28.35Q162.75-30.21 162.46-32.06L162.46-32.06L162.46-32.06Q162.18-33.92 162.18-35.97L162.18-35.97L162.18-35.97Q162.18-38.85 163.65-40.48L163.65-40.48L163.65-40.48Q165.12-42.11 167.33-42.94L167.33-42.94L167.33-42.94Q169.54-43.78 172.10-43.97L172.10-43.97L172.10-43.97Q174.66-44.16 176.83-44.16L176.83-44.16L176.83-44.16Q181.25-44.16 185.50-43.52L185.50-43.52L185.50-43.52Q189.76-42.88 193.09-41.02L193.09-41.02L193.09-41.02Q196.42-39.17 198.43-35.81L198.43-35.81L198.43-35.81Q200.45-32.45 200.45-27.07L200.45-27.07L200.45-27.07Q200.45-22.53 199.07-19.14L199.07-19.14L199.07-19.14Q197.70-15.74 195.20-13.50L195.20-13.50L195.20-13.50Q192.70-11.26 189.15-10.14L189.15-10.14L189.15-10.14Q185.60-9.02 181.25-9.02L181.25-9.02L181.25-9.02Q181.06-9.02 180.42-9.06L180.42-9.06L180.42-9.06Q179.78-9.09 179.07-9.18L179.07-9.18L179.07-9.18Q178.37-9.28 177.82-9.50L177.82-9.50L177.82-9.50Q177.28-9.73 177.28-10.11L177.28-10.11L177.47-10.56L177.47-10.56Q178.56-10.50 179.65-10.46L179.65-10.46L179.65-10.46Q180.74-10.43 181.82-10.43L181.82-10.43L181.82-10.43Q183.74-10.43 185.63-10.62L185.63-10.62L185.63-10.62Q187.52-10.82 189.31-11.39L189.31-11.39L189.31-11.39Q191.10-11.97 192.64-12.99L192.64-12.99L192.64-12.99Q194.05-13.95 195.26-15.42L195.26-15.42L195.26-15.42Q193.98-13.95 192.51-12.99L192.51-12.99L192.51-12.99Q190.91-11.97 189.09-11.46L189.09-11.46L189.09-11.46Q187.26-10.94 185.31-10.78L185.31-10.78L185.31-10.78Q183.36-10.62 181.38-10.62L181.38-10.62L181.38-10.62Q180.48-10.62 179.52-10.66L179.52-10.66L179.52-10.66Q178.56-10.69 177.66-10.75L177.66-10.75L177.60-11.97L177.60-11.97Q177.09-11.90 176.70-11.87L176.70-11.87L176.70-11.87Q176.32-11.84 176-11.84L176-11.84L176-11.84Q175.23-11.84 174.59-12.06L174.59-12.06L174.59-12.06Q173.95-12.29 173.06-12.86ZM178.88-36.86L178.88-36.86L178.88-36.86Q176.70-36.86 174.27-36.70L174.27-36.70L174.27-36.70Q171.84-36.54 169.79-35.84L169.79-35.84L169.47-35.33L169.47-35.33Q171.90-36.03 173.95-36.16L173.95-36.16L173.95-36.16Q176-36.29 177.86-36.29L177.86-36.29L178.11-36.29L178.11-36.29Q180.86-36.29 183.55-36.13L183.55-36.13L183.55-36.13Q186.24-35.97 188.35-35.04L188.35-35.04L188.35-35.04Q190.46-34.11 191.78-32.16L191.78-32.16L191.78-32.16Q193.09-30.21 193.09-26.62L193.09-26.62L193.09-26.62Q193.09-25.54 192.90-24.58L192.90-24.58L192.90-24.58Q192.70-23.62 192.38-22.66L192.38-22.66L192.38-22.66Q192.64-23.55 192.80-24.48L192.80-24.48L192.80-24.48Q192.96-25.41 192.96-26.37L192.96-26.37L192.96-26.37Q192.96-28.80 192.13-30.78L192.13-30.78L192.13-30.78Q191.30-32.77 189.44-34.37L189.44-34.37L188.99-34.62L188.99-34.62Q188.03-35.07 186.59-35.33L186.59-35.33L186.59-35.33Q185.15-35.58 183.55-35.74L183.55-35.74L183.55-35.74Q181.95-35.90 180.32-35.94L180.32-35.94L180.32-35.94Q178.69-35.97 177.28-35.97L177.28-35.97L175.49-35.97L175.49-35.97Q174.34-35.97 172.83-35.78L172.83-35.78L172.83-35.78Q171.33-35.58 170.24-35.26L170.24-35.26L170.24-35.26Q170.24-33.66 170.53-32.10L170.53-32.10L170.53-32.10Q170.82-30.53 171.14-28.99L171.14-28.99L171.84-25.92L171.84-25.92Q172.22-24.38 172.35-22.85L172.35-22.85L172.93-14.85L172.93-14.85Q173.38-15.17 173.92-15.39L173.92-15.39L173.92-15.39Q174.46-15.62 175.36-15.62L175.36-15.62L175.68-15.62L175.68-15.62Q177.09-15.17 178.59-15.10L178.59-15.10L178.59-15.10Q180.10-15.04 181.57-15.04L181.57-15.04L181.57-15.04Q184.64-15.04 187.04-15.62L187.04-15.62L187.04-15.62Q189.44-16.19 191.10-17.57L191.10-17.57L191.10-17.57Q192.77-18.94 193.63-21.22L193.63-21.22L193.63-21.22Q194.50-23.49 194.50-26.82L194.50-26.82L194.50-26.82Q194.50-28.29 194.02-30.05L194.02-30.05L194.02-30.05Q193.54-31.81 192.58-33.34L192.58-33.34L192.58-33.34Q191.62-34.88 190.14-35.90L190.14-35.90L190.14-35.90Q188.74-36.93 186.88-36.99L186.88-36.99L186.88-36.99Q188.67-36.80 190.08-35.84L190.08-35.84L190.08-35.84Q191.49-34.88 192.45-33.41L192.45-33.41L192.45-33.41Q193.41-31.94 193.89-30.18L193.89-30.18L193.89-30.18Q194.37-28.42 194.37-26.75L194.37-26.75L194.37-26.75Q194.37-20.93 191.55-18.18L191.55-18.18L191.55-18.18Q188.74-15.42 182.91-15.42L182.91-15.42L182.91-15.42Q181.50-15.42 180.10-15.55L180.10-15.55L177.28-15.81L177.28-15.81Q179.39-16.32 181.60-16.42L181.60-16.42L181.60-16.42Q183.81-16.51 185.82-16.90L185.82-16.90L185.82-16.90Q187.84-17.28 189.47-18.34L189.47-18.34L189.47-18.34Q191.10-19.39 192.13-21.89L192.13-21.89L192.70-21.70L192.70-21.70Q193.47-23.81 193.47-26.11L193.47-26.11L193.47-26.11Q193.47-29.63 192.29-31.74L192.29-31.74L192.29-31.74Q191.10-33.86 189.12-35.01L189.12-35.01L189.12-35.01Q187.14-36.16 184.48-36.51L184.48-36.51L184.48-36.51Q181.82-36.86 178.88-36.86ZM199.17-27.20L199.17-27.20L199.17-27.20Q199.17-29.82 198.46-32.03L198.46-32.03L198.46-32.03Q197.76-34.24 196.29-36.35L196.29-36.35L196.29-36.35Q197.63-34.24 198.30-31.84L198.30-31.84L198.30-31.84Q198.98-29.44 198.98-26.94L198.98-26.94L198.98-26.94Q198.98-22.91 197.38-19.20L197.38-19.20L197.38-19.20Q198.21-20.99 198.66-22.98L198.66-22.98L198.66-22.98Q199.17-25.09 199.17-27.20ZM188.42-41.66L188.42-41.66L188.42-41.66Q189.31-41.34 190.18-41.12L190.18-41.12L190.18-41.12Q191.04-40.90 191.94-40.51L191.94-40.51L191.94-40.51Q190.34-41.34 188.42-41.66ZM194.50-38.59L194.50-38.59L194.50-38.59Q194.24-39.10 193.34-39.68L193.34-39.68L193.34-39.68Q192.51-40.19 192-40.45L192-40.45L192-40.45Q192.64-39.94 193.22-39.62L193.22-39.62L193.22-39.62Q193.86-39.23 194.50-38.59ZM227.39-16.77L227.39-16.77L227.39-16.77Q225.66-16.77 224.80-16.83L224.80-16.83L224.80-16.83Q223.94-16.90 223.23-16.90L223.23-16.90L223.23-16.90Q221.31-16.90 219.84-16.70L219.84-16.70L219.84-16.70Q218.37-16.51 217.34-15.94L217.34-15.94L217.34-15.94Q216.32-15.36 215.81-14.27L215.81-14.27L215.81-14.27Q215.30-13.18 215.30-11.39L215.30-11.39L215.30-11.39Q215.30-8.77 215.90-7.52L215.90-7.52L215.90-7.52Q216.51-6.27 217.63-5.73L217.63-5.73L217.63-5.73Q218.75-5.18 220.35-5.06L220.35-5.06L220.35-5.06Q221.95-4.93 223.94-4.48L223.94-4.48L223.94-4.48Q225.09-4.35 226.24-4.32L226.24-4.32L226.24-4.32Q227.39-4.29 228.54-4.29L228.54-4.29L233.15-4.29L233.15-4.29Q229.95-4.48 226.78-4.51L226.78-4.51L226.78-4.51Q223.62-4.54 221.09-5.06L221.09-5.06L221.09-5.06Q218.56-5.57 216.99-6.85L216.99-6.85L216.99-6.85Q215.42-8.13 215.42-10.75L215.42-10.75L215.42-10.75Q215.42-12.86 215.97-13.98L215.97-13.98L215.97-13.98Q216.51-15.10 217.44-15.65L217.44-15.65L217.44-15.65Q218.37-16.19 219.65-16.29L219.65-16.29L219.65-16.29Q220.93-16.38 222.40-16.38L222.40-16.38L222.40-16.38Q224.19-16.38 226.05-16.19L226.05-16.19L226.05-16.19Q224.58-15.74 223.07-15.52L223.07-15.52L223.07-15.52Q221.57-15.30 220.29-15.07L220.29-15.07L220.29-15.07Q219.01-14.85 218.08-14.50L218.08-14.50L218.08-14.50Q217.15-14.14 216.83-13.50L216.83-13.50L216.83-10.62L216.32-10.37L216.32-10.37Q216.58-8.77 216.80-7.97L216.80-7.97L216.80-7.97Q217.02-7.17 218.05-6.75L218.05-6.75L218.05-6.75Q219.07-6.34 221.34-6.08L221.34-6.08L221.34-6.08Q223.62-5.82 227.97-5.25L227.97-5.25L232.58-5.25L232.58-5.25Q233.79-5.25 234.02-5.34L234.02-5.34L234.02-5.34Q234.24-5.44 234.30-5.44L234.30-5.44L233.73-8.90L233.73-8.90Q233.60-10.18 233.41-11.20L233.41-11.20L233.41-11.20Q233.22-12.22 232.90-13.38L232.90-13.38L232.90-13.38Q232.83-13.18 232.51-13.18L232.51-13.18L232.51-13.18Q232.83-12.10 233.06-10.88L233.06-10.88L233.06-10.88Q233.28-9.66 233.44-8.58L233.44-8.58L233.44-8.58Q233.60-7.49 233.70-6.72L233.70-6.72L233.70-6.72Q233.79-5.95 233.92-5.82L233.92-5.82L233.54-5.70L233.54-5.70Q233.41-5.63 233.15-5.63L233.15-5.63L232.77-5.63L232.77-5.63Q232.32-5.63 231.74-5.73L231.74-5.73L231.74-5.73Q231.17-5.82 230.27-5.82L230.27-5.82L228.16-5.82L228.16-5.82Q225.66-5.82 223.55-6.08L223.55-6.08L223.55-6.08Q221.57-6.34 220.10-6.72L220.10-6.72L220.10-6.72Q221.57-6.40 223.68-6.21L223.68-6.21L223.68-6.21Q225.92-5.95 227.84-5.95L227.84-5.95L227.84-5.95Q228.67-5.95 229.60-5.98L229.60-5.98L229.60-5.98Q230.53-6.02 231.62-6.02L231.62-6.02L233.73-6.02L233.73-6.02Q233.54-6.21 233.28-6.21L233.28-6.21L233.15-6.21L233.15-6.21Q232.90-10.62 232.00-14.66L232.00-14.66L232.00-14.66Q231.10-18.69 229.12-21.73L229.12-21.73L229.12-21.73Q227.14-24.77 223.94-26.59L223.94-26.59L223.94-26.59Q220.74-28.42 215.94-28.42L215.94-28.42L215.94-28.42Q214.59-28.42 213.25-28.22L213.25-28.22L213.25-28.22Q211.90-28.03 210.50-27.71L210.50-27.71L210.50-27.71Q210.62-27.84 210.62-27.97L210.62-27.97L210.62-27.97Q210.62-28.29 210.37-28.58L210.37-28.58L210.37-28.58Q210.11-28.86 210.11-29.18L210.11-29.18L210.11-29.18Q210.11-29.57 210.91-29.92L210.91-29.92L210.91-29.92Q211.71-30.27 214.34-30.59L214.34-30.59L214.34-30.59Q214.21-30.72 214.18-30.98L214.18-30.98L214.18-30.98Q214.14-31.23 214.14-31.36L214.14-31.36L214.14-31.36Q210.69-31.36 208.77-31.52L208.77-31.52L208.77-31.52Q206.85-31.68 206.85-32.45L206.85-32.45L206.85-32.45Q206.85-32.77 207.65-33.34L207.65-33.34L207.65-33.34Q208.45-33.92 209.92-34.46L209.92-34.46L209.92-34.46Q211.39-35.01 213.47-35.42L213.47-35.42L213.47-35.42Q215.55-35.84 218.11-35.84L218.11-35.84L218.11-35.84Q223.04-35.84 226.56-34.34L226.56-34.34L226.56-34.34Q230.08-32.83 232.48-30.37L232.48-30.37L232.48-30.37Q234.88-27.90 236.38-24.77L236.38-24.77L236.38-24.77Q237.89-21.63 238.82-18.46L238.82-18.46L238.82-18.46Q239.74-15.30 240.19-12.32L240.19-12.32L240.19-12.32Q240.64-9.34 241.02-7.17L241.02-7.17L241.02-7.17Q241.02-6.78 241.06-6.40L241.06-6.40L241.06-6.40Q241.09-6.02 241.09-5.50L241.09-5.50L241.09-5.50Q241.09-3.65 240.42-2.27L240.42-2.27L240.42-2.27Q239.74-0.90 238.56 0.03L238.56 0.03L238.56 0.03Q237.38 0.96 235.81 1.44L235.81 1.44L235.81 1.44Q234.24 1.92 232.45 1.92L232.45 1.92L232.45 1.92Q231.04 1.92 228.80 1.86L228.80 1.86L228.80 1.86Q226.56 1.79 224.51 1.47L224.51 1.47L224.51 1.47Q223.17 1.15 221.57 0.99L221.57 0.99L221.57 0.99Q219.97 0.83 218.30 0.45L218.30 0.45L218.30 0.45Q216.64 0.06 215.07-0.64L215.07-0.64L215.07-0.64Q213.50-1.34 212.26-2.78L212.26-2.78L212.26-2.78Q211.01-4.22 210.27-6.53L210.27-6.53L210.27-6.53Q209.54-8.83 209.54-12.35L209.54-12.35L209.54-12.35Q209.54-15.68 211.07-17.70L211.07-17.70L211.07-17.70Q212.61-19.71 214.75-20.83L214.75-20.83L214.75-20.83Q216.90-21.95 219.14-22.30L219.14-22.30L219.14-22.30Q221.38-22.66 222.78-22.66L222.78-22.66L222.78-22.66Q224.58-22.66 225.15-22.40L225.15-22.40L225.15-22.40Q225.73-22.14 225.73-21.89L225.73-21.89L225.73-21.89Q225.73-21.70 225.66-21.57L225.66-21.57L225.66-21.57Q224.06-21.57 221.57-21.44L221.57-21.44L221.57-21.44Q219.07-21.31 216.74-20.61L216.74-20.61L216.74-20.61Q214.40-19.90 212.74-18.46L212.74-18.46L212.74-18.46Q211.07-17.02 211.07-14.40L211.07-14.40L211.07-14.40Q211.65-16.77 213.02-18.14L213.02-18.14L213.02-18.14Q214.40-19.52 216.19-20.19L216.19-20.19L216.19-20.19Q217.98-20.86 219.87-21.02L219.87-21.02L219.87-21.02Q221.76-21.18 223.30-21.18L223.30-21.18L225.47-21.18L225.47-21.18Q225.22-20.93 225.22-20.67L225.22-20.67L225.22-20.67Q225.22-20.42 225.47-20.22L225.47-20.22L227.97-20.22L227.97-20.22Q228.99-20.03 229.44-19.55L229.44-19.55L229.44-19.55Q229.89-19.07 229.89-18.69L229.89-18.69L229.89-18.69Q229.89-18.11 229.31-17.66L229.31-17.66L229.31-17.66Q228.74-17.22 227.39-16.77ZM216.64-1.28L216.64-1.28L216.64-1.28Q218.43-0.58 220.32-0.19L220.32-0.19L220.32-0.19Q222.21 0.19 224.06 0.32L224.06 0.32L224.06 0.32Q225.92 0.51 227.52 0.51L227.52 0.51L227.52 0.51Q226.24 0.38 224.96 0.06L224.96 0.06L224.96 0.06Q223.62-0.26 222.59-0.51L222.59-0.51L222.59-0.51Q221.50-0.77 220.45-0.86L220.45-0.86L220.45-0.86Q219.39-0.96 218.27-1.15L218.27-1.15L218.27-1.15Q217.15-1.34 216.00-1.76L216.00-1.76L216.00-1.76Q214.85-2.18 213.70-3.01L213.70-3.01L213.70-3.01Q214.91-1.92 216.64-1.28ZM217.02-8.13L217.28-8L217.28-8Q217.22-8.06 217.66-7.62L217.66-7.62L217.66-7.62Q218.05-7.23 218.69-7.04L218.69-7.04L218.69-7.04Q218.37-7.17 217.73-7.36L217.73-7.36L217.73-7.36Q217.02-7.62 217.02-8.13L217.02-8.13ZM218.88-7.04L218.88-7.04L218.88-7.04Q218.82-7.04 218.69-7.04L218.69-7.04L218.69-7.04Q218.75-7.04 218.88-7.04ZM271.87-23.04L273.66-22.53L273.66-22.66L272.00-23.17L273.09-25.02L280.58-22.72L280.58-22.72Q280.58-20.61 280.80-18.40L280.80-18.40L280.80-18.40Q281.02-16.19 281.31-13.89L281.31-13.89L281.31-13.89Q281.60-11.58 281.82-9.18L281.82-9.18L281.82-9.18Q282.05-6.78 282.05-4.35L282.05-4.35L282.05-4.35Q282.05-1.09 281.47 2.24L281.47 2.24L281.47 2.24Q280.90 5.57 279.58 8.58L279.58 8.58L279.58 8.58Q278.27 11.58 276.13 14.14L276.13 14.14L276.13 14.14Q273.98 16.70 270.78 18.37L270.78 18.37L270.78 18.37Q269.06 19.52 266.34 20.51L266.34 20.51L266.34 20.51Q263.62 21.50 260.99 21.63L260.99 21.63L260.22 21.63L260.22 21.63Q257.66 21.63 255.94 21.09L255.94 21.09L255.94 21.09Q254.21 20.54 253.18 19.87L253.18 19.87L253.18 19.87Q252.16 19.20 251.74 18.59L251.74 18.59L251.74 18.59Q251.33 17.98 251.33 17.86L251.33 17.86L251.33 17.86Q251.33 17.60 251.58 17.60L251.58 17.60L251.58 17.60Q253.57 19.07 255.87 19.71L255.87 19.71L255.87 19.71Q258.18 20.35 260.48 20.35L260.48 20.35L260.48 20.35Q264.38 20.35 267.71 18.82L267.71 18.82L267.71 18.82Q270.91 17.28 273.47 14.98L273.47 14.98L273.47 14.98Q270.91 17.22 267.65 18.69L267.65 18.69L267.65 18.69Q264.32 20.16 260.54 20.16L260.54 20.16L260.54 20.16Q258.30 20.16 256.16 19.52L256.16 19.52L256.16 19.52Q254.02 18.88 252.16 17.41L252.16 17.41L252.16 17.41Q252.35 17.41 252.61 17.31L252.61 17.31L252.61 17.31Q252.86 17.22 252.86 16.96L252.86 16.96L252.35 16.51L252.35 16.51Q251.90 16.06 251.30 15.36L251.30 15.36L251.30 15.36Q250.69 14.66 250.21 13.70L250.21 13.70L250.21 13.70Q249.73 12.74 249.73 11.65L249.73 11.65L249.73 11.65Q249.73 10.56 250.56 10.56L250.56 10.56L250.56 10.56Q251.20 10.56 252.03 11.39L252.03 11.39L252.03 11.39Q252.86 12.22 254.02 13.22L254.02 13.22L254.02 13.22Q255.17 14.21 256.80 15.04L256.80 15.04L256.80 15.04Q258.43 15.87 260.67 15.87L260.67 15.87L260.67 15.87Q263.87 15.87 266.43 14.62L266.43 14.62L266.43 14.62Q268.99 13.38 270.91 11.20L270.91 11.20L270.91 11.20Q269.06 13.25 266.59 14.40L266.59 14.40L266.59 14.40Q264.13 15.55 260.99 15.55L260.99 15.55L260.99 15.55Q259.07 15.55 257.38 14.91L257.38 14.91L257.38 14.91Q255.68 14.27 254.66 13.18L254.66 13.18L254.66 13.18Q255.74 13.50 257.38 13.89L257.38 13.89L257.38 13.89Q259.01 14.27 260.93 14.27L260.93 14.27L260.93 14.27Q264.38 14.27 267.04 12.51L267.04 12.51L267.04 12.51Q269.70 10.75 271.62 8.06L271.62 8.06L272.51 8.19L272.51 8.19Q273.98 5.63 274.59 2.72L274.59 2.72L274.59 2.72Q275.20-0.19 275.20-3.39L275.20-3.39L275.20-3.39Q275.20-5.57 275.01-7.81L275.01-7.81L275.01-7.81Q274.82-10.05 274.50-12.35L274.50-12.35L274.18-11.90L274.18-11.90Q274.50-9.66 274.66-7.52L274.66-7.52L274.66-7.52Q274.82-5.38 274.82-3.33L274.82-3.33L274.82-3.33Q274.82-0.77 274.30 1.76L274.30 1.76L274.30 1.76Q273.79 4.29 272.70 6.40L272.70 6.40L272.70 6.40Q273.79 4.16 274.24 1.63L274.24 1.63L274.24 1.63Q274.69-0.90 274.69-3.78L274.69-3.78L274.69-3.78Q274.37-5.44 274.37-7.10L274.37-7.10L274.37-7.10Q274.37-8.77 274.24-10.43L274.24-10.43L274.11-11.71L274.11-11.71Q273.66-11.07 272.77-9.92L272.77-9.92L272.77-9.92Q271.87-8.77 270.66-7.65L270.66-7.65L270.66-7.65Q269.44-6.53 267.94-5.70L267.94-5.70L267.94-5.70Q266.43-4.86 264.77-4.86L264.77-4.86L263.17-4.67L263.17-4.67Q259.78-4.67 257.09-6.40L257.09-6.40L257.09-6.40Q254.40-8.13 252.48-10.78L252.48-10.78L252.48-10.78Q250.56-13.44 249.54-16.61L249.54-16.61L249.54-16.61Q248.51-19.78 248.51-22.72L248.51-22.72L248.51-22.72Q248.45-23.04 248.45-23.23L248.45-23.23L248.45-23.81L248.45-23.81Q248.45-27.71 249.86-30.56L249.86-30.56L249.86-30.56Q251.26-33.41 253.73-35.20L253.73-35.20L253.73-35.20Q256.19-36.99 259.52-37.86L259.52-37.86L259.52-37.86Q262.85-38.72 266.69-38.72L266.69-38.72L266.69-38.72Q271.17-38.72 275.78-37.50L275.78-37.50L275.78-37.50Q275.39-37.38 275.39-37.06L275.39-37.06L275.39-37.06Q275.39-36.80 275.49-36.58L275.49-36.58L275.49-36.58Q275.58-36.35 275.58-36.10L275.58-36.10L275.58-35.97L275.58-35.97Q275.39-35.65 274.69-35.65L274.69-35.65L274.69-35.65Q273.98-35.65 272.64-35.84L272.64-35.84L272.64-35.84Q271.30-36.03 268.86-36.35L268.86-36.35L268.86-35.58L268.86-35.58Q271.04-35.33 272.58-34.78L272.58-34.78L272.58-34.78Q274.11-34.24 275.07-33.60L275.07-33.60L275.07-33.60Q276.03-32.96 276.45-32.38L276.45-32.38L276.45-32.38Q276.86-31.81 276.86-31.42L276.86-31.42L276.86-31.42Q276.86-31.17 276.58-31.07L276.58-31.07L276.58-31.07Q276.29-30.98 275.97-30.98L275.97-30.98L275.97-30.98Q275.26-30.98 273.44-31.23L273.44-31.23L273.44-31.23Q271.62-31.49 268.86-31.49L268.86-31.49L268.86-31.49Q266.24-31.49 263.94-31.17L263.94-31.17L263.94-31.17Q261.63-30.85 259.94-29.95L259.94-29.95L259.94-29.95Q258.24-29.06 257.28-27.46L257.28-27.46L257.28-27.46Q256.32-25.86 256.32-23.30L256.32-23.30L256.32-23.30Q256.32-21.18 256.99-19.26L256.99-19.26L256.99-19.26Q257.66-17.34 258.66-15.87L258.66-15.87L258.66-15.87Q259.65-14.40 260.86-13.54L260.86-13.54L260.86-13.54Q262.08-12.67 263.23-12.67L263.23-12.67L263.23-12.67Q264.00-12.67 265.12-13.76L265.12-13.76L265.12-13.76Q266.24-14.85 267.49-16.45L267.49-16.45L267.49-16.45Q268.74-18.05 269.89-19.84L269.89-19.84L269.89-19.84Q271.04-21.63 271.87-23.04L271.87-23.04ZM271.36-9.66L271.36-9.66L271.36-9.66Q270.72-9.02 269.95-8.29L269.95-8.29L269.95-8.29Q269.18-7.55 268.26-6.94L268.26-6.94L268.26-6.94Q267.33-6.34 266.18-5.86L266.18-5.86L266.18-5.86Q265.02-5.38 263.68-5.25L263.68-5.25L264.13-5.06L264.13-5.06Q266.05-5.31 267.65-6.18L267.65-6.18L267.65-6.18Q269.25-7.04 270.50-8.19L270.50-8.19L270.50-8.19Q271.74-9.34 272.70-10.56L272.70-10.56L272.70-10.56Q273.66-11.78 274.37-12.67L274.37-12.67L274.24-13.44L274.24-13.44Q273.66-12.61 272.86-11.58L272.86-11.58L272.86-11.58Q272.06-10.56 271.36-9.66ZM276.03-3.46L276.03-3.46L276.03-3.46Q276.03-0.64 275.46 2.05L275.46 2.05L275.46 2.05Q274.88 4.61 273.86 6.85L273.86 6.85L273.86 6.85Q274.94 4.54 275.58 1.79L275.58 1.79L275.58 1.79Q276.29-1.02 276.29-3.97L276.29-3.97L276.29-3.97Q276.29-5.44 276.19-6.98L276.19-6.98L276.19-6.98Q276.10-8.51 275.97-10.05L275.97-10.05L275.65-13.82L275.33-13.44L275.33-13.44Q275.58-10.94 275.81-8.45L275.81-8.45L275.81-8.45Q276.03-5.95 276.03-3.46ZM280.77-1.79L280.77-3.84L280.77-3.84Q280.77-7.23 280.48-10.43L280.48-10.43L280.48-10.43Q280.19-13.63 279.81-16.77L279.81-16.77L279.81-16.77Q280.06-13.82 280.38-10.91L280.38-10.91L280.38-10.91Q280.70-8 280.70-4.93L280.70-4.93L280.70-4.93Q280.70-2.82 280.48-0.48L280.48-0.48L280.48-0.48Q280.26 1.86 279.68 4.16L279.68 4.16L279.68 4.16Q279.10 6.46 278.08 8.64L278.08 8.64L278.08 8.64Q277.12 10.69 275.65 12.48L275.65 12.48L275.65 12.48Q278.21 9.54 279.30 5.82L279.30 5.82L279.30 5.82Q280.45 1.98 280.77-1.79L280.77-1.79ZM311.74 1.15L311.74 1.15L311.74 1.15Q309.31 1.98 308.03 2.08L308.03 2.08L308.03 2.08Q306.75 2.18 305.79 2.24L305.79 2.24L305.79 2.24Q302.21 2.24 299.33 0.90L299.33 0.90L299.33 0.90Q296.45-0.45 294.40-2.75L294.40-2.75L294.40-2.75Q292.35-5.06 291.23-8.16L291.23-8.16L291.23-8.16Q290.11-11.26 290.11-14.78L290.11-14.78L290.11-14.78Q290.11-16.83 290.50-19.04L290.50-19.04L290.50-19.04Q290.88-21.25 291.65-23.39L291.65-23.39L291.65-23.39Q292.42-25.54 293.63-27.39L293.63-27.39L293.63-27.39Q294.78-29.25 296.38-30.72L296.38-30.72L296.38-30.72Q294.72-29.38 293.57-27.52L293.57-27.52L293.57-27.52Q292.35-25.66 291.52-23.52L291.52-23.52L291.52-23.52Q290.69-21.38 290.30-19.10L290.30-19.10L290.30-19.10Q289.92-16.83 289.92-14.72L289.92-14.72L289.92-14.72Q289.92-12.03 290.78-8.99L290.78-8.99L290.78-8.99Q291.65-5.95 293.57-3.36L293.57-3.36L293.57-3.36Q295.49-0.77 298.53 0.96L298.53 0.96L298.53 0.96Q301.57 2.69 305.92 2.69L305.92 2.69L305.92 2.69Q307.97 2.69 310.21 2.11L310.21 2.11L310.21 2.11Q307.78 3.71 304.77 3.71L304.77 3.71L304.77 3.71Q302.34 3.71 300.19 2.98L300.19 2.98L300.19 2.98Q298.05 2.24 296.22 0.93L296.22 0.93L296.22 0.93Q294.40-0.38 292.93-2.18L292.93-2.18L292.93-2.18Q291.46-3.97 290.43-6.02L290.43-6.02L291.01-6.53L291.01-6.53Q289.92-8.70 289.44-10.88L289.44-10.88L289.44-10.88Q288.96-13.06 288.96-15.30L288.96-15.30L288.96-15.30Q288.96-18.56 289.89-21.57L289.89-21.57L289.89-21.57Q290.82-24.58 292.35-27.26L292.35-27.26L293.89-29.38L293.89-29.38Q294.27-30.08 295.01-30.78L295.01-30.78L295.01-30.78Q295.74-31.49 296.64-32.16L296.64-32.16L296.64-32.16Q297.54-32.83 298.53-33.38L298.53-33.38L298.53-33.38Q299.52-33.92 300.42-34.37L300.42-34.37L300.42-34.37Q302.72-35.52 305.02-36.45L305.02-36.45L305.02-36.45Q307.33-37.38 310.40-37.82L310.40-37.82L310.14-38.02L310.14-38.02Q304.26-37.44 300.16-35.17L300.16-35.17L300.16-35.17Q296.06-32.90 293.50-29.63L293.50-29.63L293.50-29.63Q290.94-26.37 289.79-22.50L289.79-22.50L289.79-22.50Q288.64-18.62 288.64-14.91L288.64-14.91L288.64-14.91Q288.64-12.93 288.99-10.91L288.99-10.91L288.99-10.91Q289.34-8.90 290.05-6.91L290.05-6.91L290.05-6.91Q288.45-10.75 288.45-15.04L288.45-15.04L288.45-15.04Q288.45-19.26 289.86-23.42L289.86-23.42L289.86-23.42Q291.26-27.58 294.27-31.10L294.27-31.10L294.27-31.10Q298.11-34.62 302.66-36.51L302.66-36.51L302.66-36.51Q307.20-38.40 311.42-38.40L311.42-38.40L311.42-38.40Q312.77-38.40 314.18-37.95L314.18-37.95L314.18-37.95Q315.58-37.50 316.74-36.58L316.74-36.58L316.74-36.58Q317.89-35.65 318.62-34.18L318.62-34.18L318.62-34.18Q319.36-32.70 319.36-30.59L319.36-30.59L319.36-30.59Q319.36-28.86 318.53-26.37L318.53-26.37L318.53-26.37Q317.70-23.87 316.06-21.54L316.06-21.54L316.06-21.54Q314.43-19.20 312.00-17.57L312.00-17.57L312.00-17.57Q309.57-15.94 306.37-15.94L306.37-15.94L304.26-15.94L304.26-15.94Q301.89-16.45 299.94-17.12L299.94-17.12L299.94-17.12Q297.98-17.79 296.26-18.18L296.26-18.18L296.26-18.18Q296.00-17.15 295.97-16.22L295.97-16.22L295.97-16.22Q295.94-15.30 295.94-14.40L295.94-14.40L295.94-14.40Q295.94-12.54 296.35-10.78L296.35-10.78L296.35-10.78Q296.77-9.02 297.66-7.55L297.66-7.55L297.66-7.55Q298.56-6.08 299.94-5.09L299.94-5.09L299.94-5.09Q301.31-4.10 303.30-3.84L303.30-3.84L303.30-3.84Q304.51-3.58 305.41-3.55L305.41-3.55L305.41-3.55Q306.30-3.52 306.91-3.49L306.91-3.49L306.91-3.49Q307.52-3.46 307.81-3.30L307.81-3.30L307.81-3.30Q308.10-3.14 308.10-2.69L308.10-2.69L308.10-2.69Q307.46-2.50 306.78-2.43L306.78-2.43L306.78-2.43Q306.11-2.37 305.41-2.37L305.41-2.37L305.41-2.37Q303.17-2.37 301.38-3.10L301.38-3.10L301.38-3.10Q299.58-3.84 298.30-4.80L298.30-4.80L298.30-4.80Q299.78-3.33 301.82-2.72L301.82-2.72L301.82-2.72Q303.87-2.11 305.86-2.11L305.86-2.11L305.86-2.11Q306.94-2.11 308.10-2.30L308.10-2.30L308.10-2.30Q307.97-1.92 307.97-1.86L307.97-1.86L307.97-1.86Q307.97-1.47 308.29-1.34L308.29-1.34L308.29-1.34Q308.54-1.41 309.18-1.70L309.18-1.70L309.18-1.70Q309.82-1.98 310.50-2.27L310.50-2.27L310.50-2.27Q311.17-2.56 311.81-2.78L311.81-2.78L311.81-2.78Q312.45-3.01 312.70-3.01L312.70-3.01L312.70-3.01Q313.02-3.01 313.28-2.91L313.28-2.91L313.28-2.91Q313.54-2.82 313.54-2.18L313.54-2.18L313.54-2.18Q313.54-1.54 313.09-0.64L313.09-0.64L313.09-0.64Q312.64 0.26 311.74 1.15ZM302.91-24.19L302.91-24.19L304.32-23.94L304.32-23.94Q305.02-23.81 305.60-23.81L305.60-23.81L305.60-23.81Q306.24-23.81 307.10-24.22L307.10-24.22L307.10-24.22Q307.97-24.64 308.83-25.41L308.83-25.41L308.83-25.41Q309.70-26.18 310.37-27.33L310.37-27.33L310.37-27.33Q311.04-28.48 311.36-29.95L311.36-29.95L311.49-30.34L311.49-30.34Q310.59-30.34 308.80-29.89L308.80-29.89L308.80-29.89Q307.01-29.44 305.09-28.70L305.09-28.70L305.09-28.70Q303.17-27.97 301.50-26.98L301.50-26.98L301.50-26.98Q299.84-25.98 299.20-24.83L299.20-24.83L299.20-24.83Q300.16-24.64 301.09-24.48L301.09-24.48L301.09-24.48Q302.02-24.32 302.91-24.19ZM296.83-20.42L299.97-19.46L299.97-19.46Q300.10-19.58 300.13-19.84L300.13-19.84L300.13-19.84Q300.16-20.10 300.16-20.22L300.16-20.22L297.15-21.31L296.83-20.42ZM298.18-4.93L298.18-4.93L298.18-4.93Q297.73-5.44 297.28-5.95L297.28-5.95L297.28-5.95Q296.90-6.40 296.64-6.85L296.64-6.85L296.64-6.85Q297.22-5.76 298.18-4.93ZM330.43-10.30L330.43-10.30L330.43-10.30Q331.46-9.98 332.90-9.15L332.90-9.15L332.90-9.15Q334.34-8.32 336.13-7.42L336.13-7.42L336.13-7.42Q337.92-6.53 340.06-5.82L340.06-5.82L340.06-5.82Q342.21-5.12 344.64-5.12L344.64-5.12L345.34-5.12L345.34-5.12Q345.73-5.12 346.24-5.25L346.24-5.25L346.94-4.74L346.94-4.74Q349.44-5.50 351.04-7.65L351.04-7.65L351.04-7.65Q352.64-9.79 352.64-13.44L352.64-13.44L352.64-13.44Q352.64-16.06 351.39-17.06L351.39-17.06L351.39-17.06Q350.14-18.05 346.82-18.05L346.82-18.05L346.82-18.05Q344.77-18.05 342.56-17.76L342.56-17.76L342.56-17.76Q340.35-17.47 337.92-17.47L337.92-17.47L337.92-17.47Q336.83-17.47 335.68-17.57L335.68-17.57L335.68-17.57Q334.53-17.66 333.31-17.98L333.31-17.98L333.31-17.60L333.31-17.60Q335.87-16.96 338.37-16.96L338.37-16.96L338.37-16.96Q340.80-16.96 343.01-17.25L343.01-17.25L343.01-17.25Q345.22-17.54 347.26-17.54L347.26-17.54L347.26-17.54Q348.99-17.54 349.98-17.18L349.98-17.18L349.98-17.18Q350.98-16.83 351.49-16.26L351.49-16.26L351.49-16.26Q352.00-15.68 352.16-14.88L352.16-14.88L352.16-14.88Q352.32-14.08 352.32-13.12L352.32-13.12L352.32-13.12Q352.32-10.11 350.72-8L350.72-8L350.72-8Q349.18-6.02 347.07-5.50L347.07-5.50L347.07-5.50Q349.44-6.34 350.78-8.38L350.78-8.38L350.78-8.38Q352.19-10.56 352.19-13.25L352.19-13.25L352.19-13.25Q352.19-15.17 351.20-16.19L351.20-16.19L351.20-16.19Q350.21-17.22 347.78-17.22L347.78-17.22L347.78-17.22Q345.79-17.22 343.30-16.96L343.30-16.96L343.30-16.96Q340.80-16.70 337.98-16.70L337.98-16.70L337.98-16.70Q336.26-16.70 333.98-17.15L333.98-17.15L333.98-17.15Q331.71-17.60 329.66-18.82L329.66-18.82L329.66-18.82Q327.62-20.03 326.21-22.18L326.21-22.18L326.21-22.18Q324.80-24.32 324.80-27.78L324.80-27.78L324.80-27.78Q324.80-30.53 325.92-32.86L325.92-32.86L325.92-32.86Q327.04-35.20 328.90-36.96L328.90-36.96L328.90-36.96Q330.75-38.72 333.15-39.74L333.15-39.74L333.15-39.74Q335.55-40.77 338.11-40.83L338.11-40.83L338.11-40.83Q340.54-40.83 342.75-40.16L342.75-40.16L342.75-40.16Q344.96-39.49 346.94-38.43L346.94-38.43L346.94-38.43Q348.93-37.38 350.72-36.10L350.72-36.10L350.72-36.10Q352.51-34.82 354.05-33.54L354.05-33.54L352.77-32.26L352.77-32.26Q352.32-32.26 351.42-32.80L351.42-32.80L351.42-32.80Q350.53-33.34 348.67-34.69L348.67-34.69L348.29-34.11L348.29-34.11Q350.59-32.26 351.65-30.66L351.65-30.66L351.65-30.66Q352.70-29.06 352.70-28.16L352.70-28.16L352.70-28.16Q352.58-27.65 352.06-27.65L352.06-27.65L352.06-27.65Q351.55-27.65 350.02-28.48L350.02-28.48L350.02-28.48Q348.48-29.31 346.53-30.34L346.53-30.34L346.53-30.34Q344.58-31.36 342.40-32.19L342.40-32.19L342.40-32.19Q340.22-33.02 338.43-33.02L338.43-33.02L338.43-33.02Q337.41-33.02 336.38-32.64L336.38-32.64L336.38-32.64Q335.36-32.26 334.53-31.58L334.53-31.58L334.53-31.58Q333.70-30.91 333.15-29.95L333.15-29.95L333.15-29.95Q332.61-28.99 332.61-27.84L332.61-27.84L332.61-27.84Q332.61-25.98 334.34-25.34L334.34-25.34L334.34-25.34Q336.06-24.70 338.88-24.70L338.88-24.70L338.88-24.70Q339.46-24.70 340.13-24.74L340.13-24.74L340.13-24.74Q340.80-24.77 341.38-24.90L341.38-24.90L341.38-24.90Q342.85-24.90 343.33-24.99L343.33-24.99L343.33-24.99Q343.81-25.09 344.26-25.09L344.26-25.09L344.26-25.09Q347.01-25.09 349.76-24.70L349.76-24.70L349.76-24.70Q352.51-24.32 354.69-23.04L354.69-23.04L354.69-23.04Q356.86-21.76 358.21-19.39L358.21-19.39L358.21-19.39Q359.55-17.02 359.55-13.06L359.55-13.06L359.55-13.06Q359.55-10.30 358.62-7.58L358.62-7.58L358.62-7.58Q357.70-4.86 355.84-2.72L355.84-2.72L355.84-2.72Q353.98-0.58 351.23 0.74L351.23 0.74L351.23 0.74Q348.48 2.05 344.77 2.05L344.77 2.05L344.77 2.05Q342.53 2.05 339.49 1.18L339.49 1.18L339.49 1.18Q336.45 0.32 333.73-0.86L333.73-0.86L333.73-0.86Q331.01-2.05 329.12-3.33L329.12-3.33L329.12-3.33Q327.23-4.61 327.23-5.50L327.23-5.50L327.23-5.50Q327.23-5.76 327.55-5.89L327.55-5.89L327.55-5.89Q331.46-3.01 335.49-1.15L335.49-1.15L335.49-1.15Q339.46 0.58 343.62 0.77L343.62 0.77L343.62 0.77Q341.57 0.64 339.52 0.06L339.52 0.06L339.52 0.06Q337.41-0.58 335.33-1.50L335.33-1.50L335.33-1.50Q333.25-2.43 331.36-3.62L331.36-3.62L331.36-3.62Q329.47-4.80 327.74-6.02L327.74-6.02L328.70-6.85L328.70-6.85Q328.51-6.91 328.00-7.30L328.00-7.30L328.00-7.30Q327.49-7.68 327.01-8.26L327.01-8.26L327.01-8.26Q326.53-8.83 326.14-9.47L326.14-9.47L326.14-9.47Q325.76-10.11 325.76-10.69L325.76-10.69L325.76-10.69Q325.76-11.33 326.02-11.52L326.02-11.52L326.02-11.52Q326.27-11.71 326.59-11.71L326.59-11.71L326.59-11.71Q326.91-11.71 327.94-11.26L327.94-11.26L327.94-11.26Q328.96-10.82 330.43-10.30ZM344.58-3.78L344.58-3.78L344.58-3.78Q342.34-3.78 339.62-4.70L339.62-4.70L339.62-4.70Q336.90-5.63 334.46-7.10L334.46-7.10L334.46-7.10Q336.45-5.76 338.88-4.70L338.88-4.70L338.88-4.70Q341.31-3.65 344.51-3.65L344.51-3.65L344.51-3.65Q348.80-3.65 351.33-6.27L351.33-6.27L351.33-6.27Q353.86-8.90 353.86-13.31L353.86-13.31L353.86-13.95L353.86-13.95Q353.54-16 352.48-17.31L352.48-17.31L352.48-17.31Q351.42-18.62 349.25-18.75L349.25-18.75L349.25-18.75Q350.59-18.50 351.46-17.92L351.46-17.92L351.46-17.92Q352.32-17.34 352.80-16.54L352.80-16.54L352.80-16.54Q353.28-15.74 353.47-14.78L353.47-14.78L353.47-14.78Q353.66-13.82 353.66-12.80L353.66-12.80L353.66-12.80Q353.41-8.58 350.98-6.18L350.98-6.18L350.98-6.18Q348.54-3.78 344.58-3.78ZM352.70-1.28L352.70-1.28L352.70-1.28Q354.30-2.30 355.26-3.78L355.26-3.78L355.26-3.78Q356.22-5.25 356.93-6.85L356.93-6.85L356.93-6.85Q355.58-4.16 353.25-2.11L353.25-2.11L353.25-2.11Q350.91-0.06 347.71 0.45L347.71 0.45L347.71 0.45Q348.93 0.26 350.24-0.10L350.24-0.10L350.24-0.10Q351.55-0.45 352.70-1.28ZM358.78-13.31L358.78-13.31L358.78-13.31Q358.78-14.02 358.53-14.66L358.53-14.66L358.53-14.66Q358.34-15.17 358.21-15.74L358.21-15.74L358.27-14.91L358.27-14.91Q358.34-14.40 358.34-13.50L358.34-13.50L358.34-13.50Q358.34-11.78 357.95-10.18L357.95-10.18L357.95-10.18Q357.57-8.58 356.99-7.04L356.99-7.04L356.99-7.04Q357.57-8.45 358.11-10.02L358.11-10.02L358.11-10.02Q358.66-11.58 358.78-13.31ZM358.21-15.94L358.21-15.94L358.21-15.94Q358.21-15.87 358.21-15.74L358.21-15.74L358.21-15.74Q358.21-15.87 358.21-15.94ZM347.01-5.44L347.01-5.44L347.01-5.44Q346.94-5.44 346.88-5.44L346.88-5.44L346.88-5.44Q346.94-5.44 347.01-5.44Z" fill="url(#editing-shiny-gradient2)"></path></g></g><style>text {
  font-size: 64px;
  font-family: Arial Black;
  dominant-baseline: central;
  text-anchor: middle;
}</style></svg>